ZillaSlab-MediumItalic.ufo
<glyph name="exclam" format="1">
  <advance width="243"/>
  <unicode hex="0021"/>
  <outline>
    <contour>
      <point x="211" y="650" type="line"/>
      <point x="145" y="203" type="line"/>
      <point x="81" y="203" type="line"/>
      <point x="109" y="650" type="line"/>
    </contour>
    <contour>
      <point x="43" y="0" type="line"/>
      <point x="148" y="0" type="line"/>
      <point x="159" y="111" type="line"/>
      <point x="55" y="111" type="line"/>
    </contour>
  </outline>
</glyph>
<glyph name="quotedbl" format="1">
  <advance width="369"/>
  <unicode hex="0022"/>
  <outline>
    <contour>
      <point x="144" y="377" type="line"/>
      <point x="179" y="650" type="line"/>
      <point x="93" y="650" type="line"/>
      <point x="69" y="377" type="line"/>
    </contour>
    <contour>
      <point x="320" y="377" type="line"/>
      <point x="355" y="650" type="line"/>
      <point x="269" y="650" type="line"/>
      <point x="245" y="377" type="line"/>
    </contour>
  </outline>
</glyph>
<glyph name="numbersign" format="1">
  <advance width="574"/>
  <unicode hex="0023"/>
  <outline>
    <contour>
      <point x="514" y="521" type="line"/>
      <point x="481" y="408" type="line"/>
      <point x="552" y="408" type="line"/>
      <point x="544" y="339" type="line"/>
      <point x="460" y="339" type="line"/>
      <point x="416" y="187" type="line"/>
      <point x="499" y="187" type="line"/>
      <point x="492" y="118" type="line"/>
      <point x="395" y="118" type="line"/>
      <point x="361" y="0" type="line"/>
      <point x="286" y="0" type="line"/>
      <point x="320" y="118" type="line"/>
      <point x="161" y="118" type="line"/>
      <point x="127" y="0" type="line"/>
      <point x="52" y="0" type="line"/>
      <point x="86" y="118" type="line"/>
      <point x="19" y="118" type="line"/>
      <point x="26" y="187" type="line"/>
      <point x="107" y="187" type="line"/>
      <point x="151" y="339" type="line"/>
      <point x="72" y="339" type="line"/>
      <point x="79" y="408" type="line"/>
      <point x="172" y="408" type="line"/>
      <point x="205" y="521" type="line"/>
      <point x="280" y="521" type="line"/>
      <point x="247" y="408" type="line"/>
      <point x="406" y="408" type="line"/>
      <point x="439" y="521" type="line"/>
    </contour>
    <contour>
      <point x="182" y="187" type="line"/>
      <point x="341" y="187" type="line"/>
      <point x="385" y="339" type="line"/>
      <point x="226" y="339" type="line"/>
    </contour>
  </outline>
</glyph>
<glyph name="dollar" format="1">
  <advance width="469"/>
  <unicode hex="0024"/>
  <outline>
    <contour>
      <point x="417" y="163" type="curve" smooth="yes"/>
      <point x="417" y="62"/>
      <point x="342" y="0"/>
      <point x="229" y="-7" type="curve"/>
      <point x="223" y="-65" type="line"/>
      <point x="176" y="-65" type="line"/>
      <point x="182" y="-7" type="line"/>
      <point x="114" y="-2"/>
      <point x="52" y="21"/>
      <point x="20" y="44" type="curve"/>
      <point x="47" y="162" type="line"/>
      <point x="119" y="157" type="line"/>
      <point x="109" y="87" type="line"/>
      <point x="131" y="75"/>
      <point x="161" y="67"/>
      <point x="189" y="64" type="curve"/>
      <point x="208" y="240" type="line"/>
      <point x="125" y="257"/>
      <point x="60" y="285"/>
      <point x="60" y="369" type="curve" smooth="yes"/>
      <point x="60" y="474"/>
      <point x="144" y="521"/>
      <point x="238" y="528" type="curve"/>
      <point x="245" y="593" type="line"/>
      <point x="292" y="593" type="line"/>
      <point x="285" y="528" type="line"/>
      <point x="342" y="524"/>
      <point x="392" y="506"/>
      <point x="425" y="481" type="curve"/>
      <point x="421" y="362" type="line"/>
      <point x="349" y="356" type="line"/>
      <point x="346" y="436" type="line"/>
      <point x="324" y="450"/>
      <point x="300" y="456"/>
      <point x="278" y="459" type="curve"/>
      <point x="262" y="308" type="line"/>
      <point x="329" y="293"/>
      <point x="417" y="267"/>
    </contour>
    <contour>
      <point x="324" y="149" type="curve" smooth="yes"/>
      <point x="324" y="195"/>
      <point x="294" y="215"/>
      <point x="253" y="228" type="curve"/>
      <point x="236" y="64" type="line"/>
      <point x="291" y="71"/>
      <point x="324" y="100"/>
    </contour>
    <contour>
      <point x="153" y="384" type="curve" smooth="yes"/>
      <point x="153" y="345"/>
      <point x="179" y="330"/>
      <point x="216" y="319" type="curve"/>
      <point x="231" y="458" type="line"/>
      <point x="184" y="452"/>
      <point x="153" y="426"/>
    </contour>
  </outline>
</glyph>
<glyph name="percent" format="1">
  <advance width="689"/>
  <unicode hex="0025"/>
  <outline>
    <contour>
      <point x="611" y="521" type="line"/>
      <point x="385" y="265" type="line"/>
      <point x="161" y="0" type="line"/>
      <point x="70" y="0" type="line"/>
      <point x="328" y="286" type="line"/>
      <point x="521" y="521" type="line"/>
    </contour>
    <contour>
      <point x="172" y="242" type="curve" smooth="yes"/>
      <point x="274" y="242"/>
      <point x="335" y="311"/>
      <point x="335" y="404" type="curve" smooth="yes"/>
      <point x="335" y="484"/>
      <point x="288" y="530"/>
      <point x="209" y="530" type="curve" smooth="yes"/>
      <point x="112" y="530"/>
      <point x="45" y="466"/>
      <point x="45" y="368" type="curve" smooth="yes"/>
      <point x="45" y="289"/>
      <point x="91" y="242"/>
    </contour>
    <contour>
      <point x="178" y="302" type="curve" smooth="yes"/>
      <point x="138" y="302"/>
      <point x="115" y="322"/>
      <point x="115" y="374" type="curve" smooth="yes"/>
      <point x="115" y="440"/>
      <point x="151" y="470"/>
      <point x="201" y="470" type="curve" smooth="yes"/>
      <point x="243" y="470"/>
      <point x="264" y="449"/>
      <point x="264" y="399" type="curve" smooth="yes"/>
      <point x="264" y="340"/>
      <point x="235" y="302"/>
    </contour>
    <contour>
      <point x="481" y="-10" type="curve" smooth="yes"/>
      <point x="583" y="-10"/>
      <point x="644" y="59"/>
      <point x="644" y="152" type="curve" smooth="yes"/>
      <point x="644" y="231"/>
      <point x="596" y="278"/>
      <point x="517" y="278" type="curve" smooth="yes"/>
      <point x="421" y="278"/>
      <point x="352" y="215"/>
      <point x="352" y="117" type="curve" smooth="yes"/>
      <point x="352" y="33"/>
      <point x="400" y="-10"/>
    </contour>
    <contour>
      <point x="487" y="50" type="curve" smooth="yes"/>
      <point x="446" y="50"/>
      <point x="424" y="70"/>
      <point x="424" y="122" type="curve" smooth="yes"/>
      <point x="424" y="187"/>
      <point x="459" y="219"/>
      <point x="510" y="219" type="curve" smooth="yes"/>
      <point x="552" y="219"/>
      <point x="572" y="197"/>
      <point x="572" y="147" type="curve" smooth="yes"/>
      <point x="572" y="87"/>
      <point x="543" y="50"/>
    </contour>
  </outline>
</glyph>
<glyph name="quotesingle" format="1">
  <advance width="193"/>
  <unicode hex="0027"/>
  <outline>
    <contour>
      <point x="144" y="377" type="line"/>
      <point x="179" y="650" type="line"/>
      <point x="93" y="650" type="line"/>
      <point x="69" y="377" type="line"/>
    </contour>
  </outline>
</glyph>
<glyph name="parenleft" format="1">
  <advance width="276"/>
  <unicode hex="0028"/>
  <outline>
    <contour>
      <point x="240" y="718" type="curve"/>
      <point x="319" y="718" type="line"/>
      <point x="178" y="557"/>
      <point x="105" y="392"/>
      <point x="105" y="212" type="curve" smooth="yes"/>
      <point x="105" y="79"/>
      <point x="144" y="-66"/>
      <point x="224" y="-183" type="curve"/>
      <point x="143" y="-183" type="line"/>
      <point x="66" y="-60"/>
      <point x="32" y="79"/>
      <point x="32" y="208" type="curve" smooth="yes"/>
      <point x="32" y="385"/>
      <point x="96" y="552"/>
    </contour>
  </outline>
</glyph>
<glyph name="parenright" format="1">
  <advance width="276"/>
  <unicode hex="0029"/>
  <outline>
    <contour>
      <point x="34" y="-183" type="curve"/>
      <point x="-45" y="-183" type="line"/>
      <point x="96" y="-22"/>
      <point x="169" y="143"/>
      <point x="169" y="323" type="curve" smooth="yes"/>
      <point x="169" y="456"/>
      <point x="130" y="601"/>
      <point x="50" y="718" type="curve"/>
      <point x="131" y="718" type="line"/>
      <point x="208" y="595"/>
      <point x="242" y="456"/>
      <point x="242" y="327" type="curve" smooth="yes"/>
      <point x="242" y="150"/>
      <point x="178" y="-17"/>
    </contour>
  </outline>
</glyph>
<glyph name="plus" format="1">
  <advance width="408"/>
  <unicode hex="002B"/>
  <outline>
    <contour>
      <point x="31" y="249" type="line"/>
      <point x="173" y="249" type="line"/>
      <point x="158" y="108" type="line"/>
      <point x="220" y="108" type="line"/>
      <point x="235" y="249" type="line"/>
      <point x="371" y="249" type="line"/>
      <point x="377" y="313" type="line"/>
      <point x="242" y="313" type="line"/>
      <point x="257" y="455" type="line"/>
      <point x="195" y="455" type="line"/>
      <point x="180" y="313" type="line"/>
      <point x="37" y="313" type="line"/>
    </contour>
  </outline>
</glyph>
<glyph name="hyphen" format="1">
  <advance width="334"/>
  <unicode hex="002D"/>
  <unicode hex="00AD"/>
  <outline>
    <contour>
      <point x="52" y="269" type="line"/>
      <point x="281" y="269" type="line"/>
      <point x="273" y="194" type="line"/>
      <point x="44" y="194" type="line"/>
    </contour>
  </outline>
</glyph>
<glyph name="period" format="1">
  <advance width="213"/>
  <unicode hex="002E"/>
  <outline>
    <contour>
      <point x="24" y="0" type="line"/>
      <point x="134" y="0" type="line"/>
      <point x="146" y="119" type="line"/>
      <point x="36" y="119" type="line"/>
    </contour>
  </outline>
</glyph>
<glyph name="slash" format="1">
  <advance width="380"/>
  <unicode hex="002F"/>
  <outline>
    <contour>
      <point x="385" y="688" type="line"/>
      <point x="100" y="0" type="line"/>
      <point x="19" y="0" type="line"/>
      <point x="303" y="688" type="line"/>
    </contour>
  </outline>
</glyph>
<glyph name="four" format="1">
  <advance width="537"/>
  <unicode hex="0034"/>
  <outline>
    <contour>
      <point x="371" y="-131" type="line"/>
      <point x="389" y="38" type="line"/>
      <point x="482" y="38" type="line"/>
      <point x="499" y="114" type="line"/>
      <point x="397" y="114" type="line"/>
      <point x="440" y="521" type="line"/>
      <point x="264" y="521" type="line"/>
      <point x="3" y="114" type="line"/>
      <point x="4" y="38" type="line"/>
      <point x="301" y="38" type="line"/>
      <point x="283" y="-131" type="line"/>
    </contour>
    <contour>
      <point x="309" y="114" type="line"/>
      <point x="87" y="114" type="line"/>
      <point x="295" y="443" type="line"/>
      <point x="343" y="443" type="line"/>
    </contour>
  </outline>
</glyph>
<glyph name="five" format="1">
  <advance width="505"/>
  <unicode hex="0035"/>
  <outline>
    <contour>
      <point x="448" y="81" type="curve" smooth="yes"/>
      <point x="448" y="237"/>
      <point x="333" y="272"/>
      <point x="199" y="272" type="curve" smooth="yes"/>
      <point x="185" y="272"/>
      <point x="169" y="272"/>
      <point x="154" y="271" type="curve"/>
      <point x="172" y="443" type="line"/>
      <point x="378" y="443" type="line"/>
      <point x="383" y="363" type="line"/>
      <point x="459" y="370" type="line"/>
      <point x="463" y="521" type="line"/>
      <point x="98" y="521" type="line"/>
      <point x="66" y="221" type="line"/>
      <point x="93" y="192" type="line"/>
      <point x="121" y="194"/>
      <point x="152" y="196"/>
      <point x="179" y="196" type="curve" smooth="yes"/>
      <point x="274" y="196"/>
      <point x="351" y="176"/>
      <point x="351" y="74" type="curve" smooth="yes"/>
      <point x="351" y="-2"/>
      <point x="308" y="-63"/>
      <point x="213" y="-63" type="curve" smooth="yes"/>
      <point x="136" y="-63"/>
      <point x="101" y="-20"/>
      <point x="94" y="35" type="curve"/>
      <point x="21" y="11" type="line"/>
      <point x="23" y="-79"/>
      <point x="88" y="-140"/>
      <point x="213" y="-140" type="curve" smooth="yes"/>
      <point x="355" y="-140"/>
      <point x="448" y="-59"/>
    </contour>
  </outline>
</glyph>
<glyph name="six" format="1">
  <advance width="526"/>
  <unicode hex="0036"/>
  <outline>
    <contour>
      <point x="478" y="232" type="curve" smooth="yes"/>
      <point x="478" y="329"/>
      <point x="434" y="408"/>
      <point x="317" y="408" type="curve" smooth="yes"/>
      <point x="222" y="408"/>
      <point x="164" y="355"/>
      <point x="139" y="305" type="curve"/>
      <point x="151" y="482"/>
      <point x="206" y="582"/>
      <point x="317" y="582" type="curve" smooth="yes"/>
      <point x="373" y="582"/>
      <point x="419" y="556"/>
      <point x="445" y="518" type="curve"/>
      <point x="502" y="572" type="line"/>
      <point x="463" y="631"/>
      <point x="403" y="660"/>
      <point x="326" y="660" type="curve" smooth="yes"/>
      <point x="113" y="660"/>
      <point x="44" y="450"/>
      <point x="44" y="258" type="curve" smooth="yes"/>
      <point x="44" y="93"/>
      <point x="97" y="-10"/>
      <point x="246" y="-10" type="curve" smooth="yes"/>
      <point x="402" y="-10"/>
      <point x="478" y="105"/>
    </contour>
    <contour>
      <point x="386" y="221" type="curve" smooth="yes"/>
      <point x="386" y="137"/>
      <point x="348" y="71"/>
      <point x="251" y="71" type="curve" smooth="yes"/>
      <point x="163" y="71"/>
      <point x="138" y="124"/>
      <point x="136" y="206" type="curve"/>
      <point x="148" y="265"/>
      <point x="190" y="332"/>
      <point x="285" y="332" type="curve" smooth="yes"/>
      <point x="358" y="332"/>
      <point x="386" y="292"/>
    </contour>
  </outline>
</glyph>
<glyph name="seven" format="1">
  <advance width="470"/>
  <unicode hex="0037"/>
  <outline>
    <contour>
      <point x="56" y="521" type="line"/>
      <point x="36" y="333" type="line"/>
      <point x="116" y="333" type="line"/>
      <point x="127" y="443" type="line"/>
      <point x="378" y="443" type="line"/>
      <point x="87" y="-130" type="line"/>
      <point x="179" y="-130" type="line"/>
      <point x="477" y="473" type="line"/>
      <point x="470" y="521" type="line"/>
    </contour>
  </outline>
</glyph>
<glyph name="semicolon" format="1">
  <advance width="236"/>
  <unicode hex="003B"/>
  <outline>
    <contour>
      <point x="-14" y="-97" type="line"/>
      <point x="71" y="-97" type="line"/>
      <point x="148" y="124" type="line"/>
      <point x="64" y="124" type="line"/>
    </contour>
    <contour>
      <point x="80" y="326" type="line"/>
      <point x="190" y="326" type="line"/>
      <point x="202" y="445" type="line"/>
      <point x="92" y="445" type="line"/>
    </contour>
  </outline>
</glyph>
<glyph name="less" format="1">
  <advance width="394"/>
  <unicode hex="003C"/>
  <outline>
    <contour>
      <point x="312" y="14" type="line"/>
      <point x="321" y="98" type="line"/>
      <point x="119" y="281" type="line"/>
      <point x="358" y="465" type="line"/>
      <point x="368" y="549" type="line"/>
      <point x="29" y="293" type="line"/>
      <point x="26" y="265" type="line"/>
    </contour>
  </outline>
</glyph>
<glyph name="greater" format="1">
  <advance width="395"/>
  <unicode hex="003E"/>
  <outline>
    <contour>
      <point x="366" y="265" type="line"/>
      <point x="369" y="293" type="line"/>
      <point x="84" y="549" type="line"/>
      <point x="75" y="465" type="line"/>
      <point x="278" y="281" type="line"/>
      <point x="37" y="98" type="line"/>
      <point x="28" y="14" type="line"/>
    </contour>
  </outline>
</glyph>
<glyph name="A" format="1">
  <advance width="640"/>
  <unicode hex="0041"/>
  <outline>
    <contour>
      <point x="-14" y="79" type="line"/>
      <point x="46" y="79" type="line"/>
      <point x="296" y="571" type="line"/>
      <point x="199" y="571" type="line"/>
      <point x="207" y="650" type="line"/>
      <point x="396" y="650" type="line"/>
      <point x="564" y="79" type="line"/>
      <point x="625" y="79" type="line"/>
      <point x="617" y="0" type="line"/>
      <point x="386" y="0" type="line"/>
      <point x="394" y="79" type="line"/>
      <point x="468" y="79" type="line"/>
      <point x="440" y="187" type="line"/>
      <point x="188" y="187" type="line"/>
      <point x="135" y="79" type="line"/>
      <point x="216" y="79" type="line"/>
      <point x="208" y="0" type="line"/>
      <point x="-21" y="0" type="line"/>
    </contour>
    <contour>
      <point x="349" y="519" type="line"/>
      <point x="221" y="255" type="line"/>
      <point x="422" y="255" type="line"/>
      <point x="354" y="519" type="line"/>
    </contour>
  </outline>
</glyph>
<glyph name="F" format="1">
  <advance width="544"/>
  <unicode hex="0046"/>
  <outline>
    <contour>
      <point x="540" y="459" type="line"/>
      <point x="540" y="650" type="line"/>
      <point x="79" y="650" type="line"/>
      <point x="71" y="571" type="line"/>
      <point x="147" y="571" type="line"/>
      <point x="95" y="79" type="line"/>
      <point x="19" y="79" type="line"/>
      <point x="11" y="0" type="line"/>
      <point x="284" y="0" type="line"/>
      <point x="292" y="79" type="line"/>
      <point x="182" y="79" type="line"/>
      <point x="202" y="261" type="line"/>
      <point x="485" y="261" type="line"/>
      <point x="493" y="339" type="line"/>
      <point x="210" y="339" type="line"/>
      <point x="234" y="571" type="line"/>
      <point x="456" y="571" type="line"/>
      <point x="462" y="451" type="line"/>
    </contour>
  </outline>
</glyph>
<glyph name="I" format="1">
  <advance width="319"/>
  <unicode hex="0049"/>
  <outline>
    <contour>
      <point x="19" y="79" type="line"/>
      <point x="95" y="79" type="line"/>
      <point x="147" y="571" type="line"/>
      <point x="71" y="571" type="line"/>
      <point x="79" y="650" type="line"/>
      <point x="318" y="650" type="line"/>
      <point x="310" y="571" type="line"/>
      <point x="234" y="571" type="line"/>
      <point x="182" y="79" type="line"/>
      <point x="259" y="79" type="line"/>
      <point x="250" y="0" type="line"/>
      <point x="11" y="0" type="line"/>
    </contour>
  </outline>
</glyph>
<glyph name="J" format="1">
  <advance width="449"/>
  <unicode hex="004A"/>
  <outline>
    <contour>
      <point x="179" y="650" type="line"/>
      <point x="454" y="650" type="line"/>
      <point x="446" y="571" type="line"/>
      <point x="379" y="571" type="line"/>
      <point x="338" y="172" type="line" smooth="yes"/>
      <point x="325" y="50"/>
      <point x="253" y="-10"/>
      <point x="148" y="-10" type="curve" smooth="yes"/>
      <point x="58" y="-10"/>
      <point x="14" y="35"/>
      <point x="-7" y="96" type="curve"/>
      <point x="61" y="145" type="line"/>
      <point x="81" y="90"/>
      <point x="110" y="75"/>
      <point x="149" y="75" type="curve" smooth="yes"/>
      <point x="213" y="75"/>
      <point x="243" y="114"/>
      <point x="250" y="171" type="curve"/>
      <point x="292" y="571" type="line"/>
      <point x="171" y="571" type="line"/>
    </contour>
  </outline>
</glyph>
<glyph name="M" format="1">
  <advance width="859"/>
  <unicode hex="004D"/>
  <outline>
    <contour>
      <point x="21" y="79" type="line"/>
      <point x="96" y="79" type="line"/>
      <point x="148" y="571" type="line"/>
      <point x="67" y="571" type="line"/>
      <point x="75" y="650" type="line"/>
      <point x="231" y="650" type="line"/>
      <point x="420" y="174" type="line"/>
      <point x="424" y="174" type="line"/>
      <point x="704" y="650" type="line"/>
      <point x="862" y="650" type="line"/>
      <point x="854" y="571" type="line"/>
      <point x="773" y="571" type="line"/>
      <point x="721" y="79" type="line"/>
      <point x="797" y="79" type="line"/>
      <point x="789" y="0" type="line"/>
      <point x="556" y="0" type="line"/>
      <point x="564" y="79" type="line"/>
      <point x="633" y="79" type="line"/>
      <point x="671" y="444" type="line"/>
      <point x="668" y="444" type="line"/>
      <point x="427" y="39" type="line"/>
      <point x="384" y="39" type="line"/>
      <point x="222" y="450" type="line"/>
      <point x="218" y="450" type="line"/>
      <point x="179" y="79" type="line"/>
      <point x="250" y="79" type="line"/>
      <point x="242" y="0" type="line"/>
      <point x="13" y="0" type="line"/>
    </contour>
  </outline>
</glyph>
<glyph name="Q" format="1">
  <advance width="713"/>
  <unicode hex="0051"/>
  <outline>
    <contour>
      <point x="389" y="660" type="curve" smooth="yes"/>
      <point x="190" y="660"/>
      <point x="37" y="495"/>
      <point x="37" y="291" type="curve" smooth="yes"/>
      <point x="37" y="125"/>
      <point x="141" y="-10"/>
      <point x="321" y="-10" type="curve" smooth="yes"/>
      <point x="389" y="-10"/>
      <point x="452" y="9"/>
      <point x="504" y="41" type="curve"/>
      <point x="591" y="-54" type="line"/>
      <point x="650" y="1" type="line"/>
      <point x="567" y="91" type="line"/>
      <point x="635" y="159"/>
      <point x="676" y="255"/>
      <point x="676" y="359" type="curve" smooth="yes"/>
      <point x="676" y="526"/>
      <point x="567" y="660"/>
    </contour>
    <contour>
      <point x="355" y="206" type="line"/>
      <point x="450" y="101" type="line"/>
      <point x="417" y="82"/>
      <point x="378" y="71"/>
      <point x="334" y="71" type="curve" smooth="yes"/>
      <point x="193" y="71"/>
      <point x="132" y="178"/>
      <point x="132" y="299" type="curve" smooth="yes"/>
      <point x="132" y="451"/>
      <point x="231" y="579"/>
      <point x="380" y="579" type="curve" smooth="yes"/>
      <point x="507" y="579"/>
      <point x="581" y="488"/>
      <point x="581" y="353" type="curve" smooth="yes"/>
      <point x="581" y="277"/>
      <point x="557" y="205"/>
      <point x="512" y="152" type="curve"/>
      <point x="414" y="261" type="line"/>
    </contour>
  </outline>
</glyph>
<glyph name="bracketleft" format="1">
  <advance width="283"/>
  <unicode hex="005B"/>
  <outline>
    <contour>
      <point x="26" y="-223" type="line"/>
      <point x="212" y="-223" type="line"/>
      <point x="219" y="-161" type="line"/>
      <point x="107" y="-161" type="line"/>
      <point x="197" y="698" type="line"/>
      <point x="309" y="698" type="line"/>
      <point x="316" y="760" type="line"/>
      <point x="130" y="760" type="line"/>
    </contour>
  </outline>
</glyph>
<glyph name="backslash" format="1">
  <advance width="489"/>
  <unicode hex="005C"/>
  <outline>
    <contour>
      <point x="58" y="688" type="line"/>
      <point x="343" y="0" type="line"/>
      <point x="424" y="0" type="line"/>
      <point x="140" y="688" type="line"/>
    </contour>
  </outline>
</glyph>
<glyph name="bracketright" format="1">
  <advance width="282"/>
  <unicode hex="005D"/>
  <outline>
    <contour>
      <point x="255" y="760" type="line"/>
      <point x="69" y="760" type="line"/>
      <point x="62" y="698" type="line"/>
      <point x="174" y="698" type="line"/>
      <point x="84" y="-161" type="line"/>
      <point x="-28" y="-161" type="line"/>
      <point x="-35" y="-223" type="line"/>
      <point x="151" y="-223" type="line"/>
    </contour>
  </outline>
</glyph>
<glyph name="asciicircum" format="1">
  <advance width="450"/>
  <unicode hex="005E"/>
  <outline>
    <contour>
      <point x="236" y="654" type="line"/>
      <point x="48" y="371" type="line"/>
      <point x="128" y="371" type="line"/>
      <point x="255" y="569" type="line"/>
      <point x="345" y="371" type="line"/>
      <point x="424" y="371" type="line"/>
      <point x="291" y="654" type="line"/>
    </contour>
  </outline>
</glyph>
<glyph name="underscore" format="1">
  <advance width="517"/>
  <unicode hex="005F"/>
  <outline>
    <contour>
      <point x="11" y="-72" type="line"/>
      <point x="435" y="-72" type="line"/>
      <point x="429" y="-133" type="line"/>
      <point x="5" y="-133" type="line"/>
    </contour>
  </outline>
</glyph>
<glyph name="grave" format="1">
  <advance width="431"/>
  <unicode hex="0060"/>
  <outline>
    <contour>
      <point x="396" y="516" type="line"/>
      <point x="418" y="553" type="line"/>
      <point x="250" y="688" type="line"/>
      <point x="208" y="617" type="line"/>
    </contour>
  </outline>
</glyph>
<glyph name="d" format="1">
  <advance width="514"/>
  <unicode hex="0064"/>
  <outline>
    <contour>
      <point x="303" y="667" type="line"/>
      <point x="327" y="688" type="line"/>
      <point x="487" y="688" type="line"/>
      <point x="410" y="69" type="line"/>
      <point x="481" y="69" type="line"/>
      <point x="476" y="19" type="line"/>
      <point x="452" y="0" type="line"/>
      <point x="331" y="0" type="line"/>
      <point x="332" y="93" type="line"/>
      <point x="301" y="38"/>
      <point x="251" y="-10"/>
      <point x="174" y="-10" type="curve" smooth="yes"/>
      <point x="76" y="-10"/>
      <point x="26" y="68"/>
      <point x="26" y="177" type="curve" smooth="yes"/>
      <point x="26" y="297"/>
      <point x="87" y="456"/>
      <point x="238" y="456" type="curve" smooth="yes"/>
      <point x="299" y="456"/>
      <point x="343" y="429"/>
      <point x="364" y="384" type="curve"/>
      <point x="393" y="619" type="line"/>
      <point x="297" y="619" type="line"/>
    </contour>
    <contour>
      <point x="249" y="387" type="curve" smooth="yes"/>
      <point x="152" y="387"/>
      <point x="117" y="280"/>
      <point x="117" y="188" type="curve" smooth="yes"/>
      <point x="117" y="107"/>
      <point x="145" y="59"/>
      <point x="204" y="59" type="curve" smooth="yes"/>
      <point x="273" y="59"/>
      <point x="328" y="133"/>
      <point x="341" y="194" type="curve"/>
      <point x="351" y="276" type="line"/>
      <point x="351" y="342"/>
      <point x="306" y="387"/>
    </contour>
  </outline>
</glyph>
<glyph name="f" format="1">
  <advance width="308"/>
  <unicode hex="0066"/>
  <outline>
    <contour>
      <point x="291" y="698" type="curve" smooth="yes"/>
      <point x="202" y="698"/>
      <point x="134" y="638"/>
      <point x="121" y="531" type="curve" smooth="yes"/>
      <point x="110" y="447" type="line"/>
      <point x="49" y="447" type="line"/>
      <point x="23" y="423" type="line"/>
      <point x="19" y="378" type="line"/>
      <point x="102" y="378" type="line"/>
      <point x="49" y="-47" type="line" smooth="yes"/>
      <point x="41" y="-108"/>
      <point x="23" y="-154"/>
      <point x="-26" y="-154" type="curve" smooth="yes"/>
      <point x="-49" y="-154"/>
      <point x="-83" y="-142"/>
      <point x="-81" y="-70" type="curve"/>
      <point x="-148" y="-90" type="line"/>
      <point x="-149" y="-185"/>
      <point x="-94" y="-223"/>
      <point x="-22" y="-223" type="curve" smooth="yes"/>
      <point x="83" y="-223"/>
      <point x="121" y="-146"/>
      <point x="133" y="-48" type="curve" smooth="yes"/>
      <point x="185" y="378" type="line"/>
      <point x="285" y="378" type="line"/>
      <point x="312" y="402" type="line"/>
      <point x="318" y="447" type="line"/>
      <point x="194" y="447" type="line"/>
      <point x="205" y="536" type="line" smooth="yes"/>
      <point x="213" y="600"/>
      <point x="237" y="631"/>
      <point x="283" y="631" type="curve" smooth="yes"/>
      <point x="296" y="631"/>
      <point x="315" y="629"/>
      <point x="331" y="622" type="curve"/>
      <point x="343" y="547" type="line"/>
      <point x="410" y="555" type="line"/>
      <point x="404" y="664" type="line"/>
      <point x="368" y="692"/>
      <point x="326" y="698"/>
    </contour>
  </outline>
</glyph>
<glyph name="j" format="1">
  <advance width="247"/>
  <unicode hex="006A"/>
  <outline>
    <contour>
      <point x="24" y="425" type="line"/>
      <point x="48" y="447" type="line"/>
      <point x="202" y="447" type="line"/>
      <point x="146" y="-8" type="line"/>
      <point x="129" y="-140"/>
      <point x="82" y="-220"/>
      <point x="3" y="-223" type="curve"/>
      <point x="-30" y="-223"/>
      <point x="-58" y="-214"/>
      <point x="-82" y="-201" type="curve"/>
      <point x="-79" y="-141" type="line"/>
      <point x="-10" y="-169"/>
      <point x="44" y="-152"/>
      <point x="62" y="-8" type="curve" smooth="yes"/>
      <point x="109" y="378" type="line"/>
      <point x="18" y="378" type="line"/>
    </contour>
    <contour>
      <point x="123" y="552" type="line"/>
      <point x="210" y="552" type="line"/>
      <point x="221" y="655" type="line"/>
      <point x="134" y="655" type="line"/>
    </contour>
  </outline>
</glyph>
<glyph name="k" format="1">
  <advance width="453"/>
  <unicode hex="006B"/>
  <outline>
    <contour>
      <point x="45" y="667" type="line"/>
      <point x="70" y="688" type="line"/>
      <point x="202" y="688" type="line"/>
      <point x="150" y="262" type="line"/>
      <point x="224" y="262" type="line"/>
      <point x="282" y="316"/>
      <point x="316" y="375"/>
      <point x="323" y="447" type="curve"/>
      <point x="410" y="447" type="line"/>
      <point x="406" y="364"/>
      <point x="352" y="288"/>
      <point x="274" y="234" type="curve"/>
      <point x="364" y="69" type="line"/>
      <point x="428" y="69" type="line"/>
      <point x="422" y="19" type="line"/>
      <point x="398" y="0" type="line"/>
      <point x="312" y="0" type="line"/>
      <point x="206" y="200" type="line"/>
      <point x="142" y="200" type="line"/>
      <point x="118" y="0" type="line"/>
      <point x="34" y="0" type="line"/>
      <point x="109" y="619" type="line"/>
      <point x="39" y="619" type="line"/>
    </contour>
  </outline>
</glyph>
<glyph name="m" format="1">
  <advance width="792"/>
  <unicode hex="006D"/>
  <outline>
    <contour>
      <point x="57" y="447" type="line"/>
      <point x="178" y="447" type="line"/>
      <point x="178" y="361" type="line"/>
      <point x="209" y="418"/>
      <point x="255" y="456"/>
      <point x="325" y="456" type="curve" smooth="yes"/>
      <point x="391" y="456"/>
      <point x="437" y="423"/>
      <point x="446" y="354" type="curve"/>
      <point x="476" y="415"/>
      <point x="524" y="456"/>
      <point x="596" y="456" type="curve" smooth="yes"/>
      <point x="679" y="456"/>
      <point x="733" y="403"/>
      <point x="720" y="291" type="curve"/>
      <point x="692" y="69" type="line"/>
      <point x="762" y="69" type="line"/>
      <point x="756" y="19" type="line"/>
      <point x="732" y="0" type="line"/>
      <point x="600" y="0" type="line"/>
      <point x="632" y="261" type="line" smooth="yes"/>
      <point x="643" y="352"/>
      <point x="615" y="387"/>
      <point x="557" y="387" type="curve" smooth="yes"/>
      <point x="488" y="387"/>
      <point x="455" y="336"/>
      <point x="444" y="276" type="curve"/>
      <point x="444" y="272" type="line"/>
      <point x="411" y="0" type="line"/>
      <point x="328" y="0" type="line"/>
      <point x="359" y="261" type="line" smooth="yes"/>
      <point x="370" y="353"/>
      <point x="342" y="387"/>
      <point x="285" y="387" type="curve" smooth="yes"/>
      <point x="210" y="387"/>
      <point x="178" y="327"/>
      <point x="169" y="259" type="curve"/>
      <point x="138" y="0" type="line"/>
      <point x="54" y="0" type="line"/>
      <point x="99" y="378" type="line"/>
      <point x="26" y="378" type="line"/>
      <point x="32" y="425" type="line"/>
    </contour>
    <contour>
      <point x="243" y="566" type="move" name="top"/>
    </contour>
  </outline>
</glyph>
<glyph name="o" format="1">
  <advance width="481"/>
  <unicode hex="006F"/>
  <outline>
    <contour>
      <point x="26" y="191" type="curve" smooth="yes"/>
      <point x="26" y="330"/>
      <point x="104" y="456"/>
      <point x="260" y="456" type="curve" smooth="yes"/>
      <point x="391" y="456"/>
      <point x="443" y="366"/>
      <point x="443" y="252" type="curve" smooth="yes"/>
      <point x="443" y="102"/>
      <point x="354" y="-10"/>
      <point x="209" y="-10" type="curve" smooth="yes"/>
      <point x="87" y="-10"/>
      <point x="26" y="69"/>
    </contour>
    <contour>
      <point x="118" y="197" type="curve" smooth="yes"/>
      <point x="118" y="115"/>
      <point x="140" y="59"/>
      <point x="217" y="59" type="curve" smooth="yes"/>
      <point x="313" y="59"/>
      <point x="352" y="146"/>
      <point x="352" y="249" type="curve" smooth="yes"/>
      <point x="352" y="335"/>
      <point x="326" y="387"/>
      <point x="250" y="387" type="curve" smooth="yes"/>
      <point x="162" y="387"/>
      <point x="118" y="313"/>
    </contour>
  </outline>
</glyph>
<glyph name="q" format="1">
  <advance width="504"/>
  <unicode hex="0071"/>
  <outline>
    <contour>
      <point x="439" y="-192" type="line"/>
      <point x="414" y="-213" type="line"/>
      <point x="199" y="-213" type="line"/>
      <point x="205" y="-166" type="line"/>
      <point x="229" y="-144" type="line"/>
      <point x="300" y="-144" type="line"/>
      <point x="329" y="87" type="line"/>
      <point x="297" y="34"/>
      <point x="248" y="-10"/>
      <point x="174" y="-10" type="curve" smooth="yes"/>
      <point x="76" y="-10"/>
      <point x="26" y="68"/>
      <point x="26" y="177" type="curve" smooth="yes"/>
      <point x="26" y="297"/>
      <point x="87" y="456"/>
      <point x="238" y="456" type="curve" smooth="yes"/>
      <point x="305" y="456"/>
      <point x="351" y="424"/>
      <point x="370" y="371" type="curve"/>
      <point x="375" y="396"/>
      <point x="382" y="422"/>
      <point x="390" y="447" type="curve"/>
      <point x="473" y="447" type="line"/>
      <point x="458" y="398"/>
      <point x="446" y="351"/>
      <point x="440" y="302" type="curve" smooth="yes"/>
      <point x="384" y="-144" type="line"/>
      <point x="445" y="-144" type="line"/>
    </contour>
    <contour>
      <point x="249" y="387" type="curve" smooth="yes"/>
      <point x="152" y="387"/>
      <point x="117" y="280"/>
      <point x="117" y="188" type="curve" smooth="yes"/>
      <point x="117" y="107"/>
      <point x="144" y="59"/>
      <point x="204" y="59" type="curve" smooth="yes"/>
      <point x="273" y="59"/>
      <point x="327" y="132"/>
      <point x="342" y="193" type="curve"/>
      <point x="351" y="272" type="line"/>
      <point x="352" y="340"/>
      <point x="307" y="387"/>
    </contour>
  </outline>
</glyph>
<glyph name="v" format="1">
  <advance width="473"/>
  <unicode hex="0076"/>
  <outline>
    <contour>
      <point x="231" y="398" type="line"/>
      <point x="207" y="378" type="line"/>
      <point x="154" y="378" type="line"/>
      <point x="238" y="101" type="line"/>
      <point x="244" y="101" type="line"/>
      <point x="322" y="194"/>
      <point x="361" y="270"/>
      <point x="361" y="354" type="curve" smooth="yes"/>
      <point x="361" y="383"/>
      <point x="356" y="414"/>
      <point x="343" y="447" type="curve"/>
      <point x="439" y="447" type="line"/>
      <point x="457" y="365"/>
      <point x="446" y="278"/>
      <point x="385" y="186" type="curve" smooth="yes"/>
      <point x="351" y="134"/>
      <point x="285" y="58"/>
      <point x="225" y="0" type="curve"/>
      <point x="183" y="0" type="line"/>
      <point x="64" y="378" type="line"/>
      <point x="11" y="378" type="line"/>
      <point x="17" y="425" type="line"/>
      <point x="41" y="447" type="line"/>
      <point x="237" y="447" type="line"/>
    </contour>
  </outline>
</glyph>
<glyph name="x" format="1">
  <advance width="486"/>
  <unicode hex="0078"/>
  <outline>
    <contour>
      <point x="460" y="21" type="line"/>
      <point x="436" y="0" type="line"/>
      <point x="236" y="0" type="line"/>
      <point x="241" y="47" type="line"/>
      <point x="265" y="69" type="line"/>
      <point x="306" y="69" type="line"/>
      <point x="221" y="192" type="line"/>
      <point x="130" y="133"/>
      <point x="100" y="71"/>
      <point x="119" y="0" type="curve"/>
      <point x="23" y="0" type="line"/>
      <point x="-4" y="94"/>
      <point x="91" y="162"/>
      <point x="190" y="227" type="curve"/>
      <point x="79" y="378" type="line"/>
      <point x="19" y="378" type="line"/>
      <point x="26" y="425" type="line"/>
      <point x="49" y="447" type="line"/>
      <point x="248" y="447" type="line"/>
      <point x="241" y="398" type="line"/>
      <point x="217" y="378" type="line"/>
      <point x="174" y="378" type="line"/>
      <point x="251" y="266" type="line"/>
      <point x="334" y="328"/>
      <point x="363" y="389"/>
      <point x="347" y="447" type="curve"/>
      <point x="442" y="447" type="line"/>
      <point x="473" y="363"/>
      <point x="364" y="289"/>
      <point x="283" y="232" type="curve"/>
      <point x="401" y="69" type="line"/>
      <point x="465" y="69" type="line"/>
    </contour>
  </outline>
</glyph>
<glyph name="z" format="1">
  <advance width="448"/>
  <unicode hex="007A"/>
  <outline>
    <contour>
      <point x="377" y="0" type="line"/>
      <point x="416" y="144" type="line"/>
      <point x="349" y="153" type="line"/>
      <point x="317" y="69" type="line"/>
      <point x="118" y="69" type="line"/>
      <point x="420" y="397" type="line"/>
      <point x="406" y="447" type="line"/>
      <point x="69" y="447" type="line"/>
      <point x="40" y="302" type="line"/>
      <point x="106" y="294" type="line"/>
      <point x="129" y="378" type="line"/>
      <point x="309" y="378" type="line"/>
      <point x="4" y="50" type="line"/>
      <point x="13" y="0" type="line"/>
    </contour>
    <contour>
      <point x="151" y="505" type="move" name="top"/>
    </contour>
  </outline>
</glyph>
<glyph name="bar" format="1">
  <advance width="232"/>
  <unicode hex="007C"/>
  <outline>
    <contour>
      <point x="201" y="730" type="line"/>
      <point x="116" y="-80" type="line"/>
      <point x="41" y="-80" type="line"/>
      <point x="126" y="730" type="line"/>
    </contour>
  </outline>
</glyph>
<glyph name="braceright" format="1">
  <advance width="282"/>
  <unicode hex="007D"/>
  <outline>
    <contour>
      <point x="171" y="271" type="curve"/>
      <point x="88" y="259"/>
      <point x="58" y="218"/>
      <point x="58" y="177" type="curve" smooth="yes"/>
      <point x="58" y="115"/>
      <point x="115" y="0"/>
      <point x="115" y="-82" type="curve" smooth="yes"/>
      <point x="115" y="-136"/>
      <point x="91" y="-160"/>
      <point x="45" y="-160" type="curve" smooth="yes"/>
      <point x="-18" y="-160" type="line"/>
      <point x="-24" y="-222" type="line"/>
      <point x="39" y="-222" type="line" smooth="yes"/>
      <point x="139" y="-222"/>
      <point x="186" y="-163"/>
      <point x="186" y="-79" type="curve" smooth="yes"/>
      <point x="186" y="14"/>
      <point x="132" y="127"/>
      <point x="132" y="183" type="curve" smooth="yes"/>
      <point x="132" y="239"/>
      <point x="204" y="249"/>
      <point x="235" y="249" type="curve" smooth="yes"/>
      <point x="253" y="249" type="line"/>
      <point x="258" y="293" type="line"/>
      <point x="240" y="293" type="line" smooth="yes"/>
      <point x="210" y="293"/>
      <point x="150" y="302"/>
      <point x="150" y="349" type="curve" smooth="yes"/>
      <point x="150" y="410"/>
      <point x="264" y="542"/>
      <point x="264" y="651" type="curve" smooth="yes"/>
      <point x="264" y="713"/>
      <point x="227" y="761"/>
      <point x="142" y="761" type="curve" smooth="yes"/>
      <point x="79" y="761" type="line"/>
      <point x="72" y="698" type="line"/>
      <point x="135" y="698" type="line" smooth="yes"/>
      <point x="172" y="698"/>
      <point x="191" y="681"/>
      <point x="191" y="644" type="curve" smooth="yes"/>
      <point x="191" y="552"/>
      <point x="77" y="420"/>
      <point x="77" y="352" type="curve" smooth="yes"/>
      <point x="77" y="316"/>
      <point x="102" y="282"/>
    </contour>
  </outline>
</glyph>
<glyph name="exclamdown" format="1">
  <advance width="226"/>
  <unicode hex="00A1"/>
  <outline>
    <contour>
      <point x="12" y="-200" type="line"/>
      <point x="78" y="247" type="line"/>
      <point x="142" y="247" type="line"/>
      <point x="114" y="-200" type="line"/>
    </contour>
    <contour>
      <point x="180" y="450" type="line"/>
      <point x="75" y="450" type="line"/>
      <point x="64" y="339" type="line"/>
      <point x="168" y="339" type="line"/>
    </contour>
  </outline>
</glyph>
<glyph name="yen" format="1">
  <advance width="579"/>
  <unicode hex="00A5"/>
  <outline>
    <contour>
      <point x="140" y="68" type="line"/>
      <point x="227" y="68" type="line"/>
      <point x="232" y="114" type="line"/>
      <point x="100" y="114" type="line"/>
      <point x="106" y="163" type="line"/>
      <point x="237" y="163" type="line"/>
      <point x="241" y="202" type="line"/>
      <point x="237" y="210" type="line"/>
      <point x="110" y="210" type="line"/>
      <point x="116" y="260" type="line"/>
      <point x="208" y="260" type="line"/>
      <point x="99" y="453" type="line"/>
      <point x="50" y="453" type="line"/>
      <point x="58" y="521" type="line"/>
      <point x="266" y="521" type="line"/>
      <point x="259" y="453" type="line"/>
      <point x="196" y="453" type="line"/>
      <point x="294" y="272" type="line"/>
      <point x="299" y="272" type="line"/>
      <point x="429" y="453" type="line"/>
      <point x="364" y="453" type="line"/>
      <point x="371" y="521" type="line"/>
      <point x="571" y="521" type="line"/>
      <point x="564" y="453" type="line"/>
      <point x="517" y="453" type="line"/>
      <point x="372" y="260" type="line"/>
      <point x="464" y="260" type="line"/>
      <point x="459" y="210" type="line"/>
      <point x="334" y="210" type="line"/>
      <point x="327" y="200" type="line"/>
      <point x="323" y="163" type="line"/>
      <point x="454" y="163" type="line"/>
      <point x="449" y="114" type="line"/>
      <point x="318" y="114" type="line"/>
      <point x="313" y="68" type="line"/>
      <point x="404" y="68" type="line"/>
      <point x="397" y="0" type="line"/>
      <point x="133" y="0" type="line"/>
    </contour>
  </outline>
</glyph>
<glyph name="brokenbar" format="1">
  <advance width="218"/>
  <unicode hex="00A6"/>
  <outline>
    <contour>
      <point x="194" y="730" type="line"/>
      <point x="162" y="426" type="line"/>
      <point x="87" y="426" type="line"/>
      <point x="119" y="730" type="line"/>
    </contour>
    <contour>
      <point x="141" y="224" type="line"/>
      <point x="109" y="-80" type="line"/>
      <point x="34" y="-80" type="line"/>
      <point x="66" y="224" type="line"/>
    </contour>
  </outline>
</glyph>
<glyph name="logicalnot" format="1">
  <advance width="581"/>
  <unicode hex="00AC"/>
  <outline>
    <contour>
      <point x="444" y="92" type="line"/>
      <point x="505" y="92" type="line"/>
      <point x="528" y="313" type="line"/>
      <point x="57" y="313" type="line"/>
      <point x="51" y="250" type="line"/>
      <point x="460" y="250" type="line"/>
    </contour>
  </outline>
</glyph>
<glyph name="macron" format="1">
  <advance width="328"/>
  <unicode hex="00AF"/>
  <outline>
    <contour>
      <point x="106" y="625" type="line"/>
      <point x="353" y="625" type="line"/>
      <point x="346" y="556" type="line"/>
      <point x="99" y="556" type="line"/>
    </contour>
  </outline>
</glyph>
<glyph name="plusminus" format="1">
  <advance width="434"/>
  <unicode hex="00B1"/>
  <outline>
    <contour>
      <point x="46" y="256" type="line"/>
      <point x="188" y="256" type="line"/>
      <point x="174" y="115" type="line"/>
      <point x="236" y="115" type="line"/>
      <point x="251" y="256" type="line"/>
      <point x="386" y="256" type="line"/>
      <point x="393" y="320" type="line"/>
      <point x="258" y="320" type="line"/>
      <point x="273" y="462" type="line"/>
      <point x="210" y="462" type="line"/>
      <point x="195" y="320" type="line"/>
      <point x="53" y="320" type="line"/>
    </contour>
    <contour>
      <point x="20" y="0" type="line"/>
      <point x="360" y="0" type="line"/>
      <point x="366" y="63" type="line"/>
      <point x="26" y="63" type="line"/>
    </contour>
  </outline>
</glyph>
<glyph name="twosuperior" format="1">
  <advance width="346"/>
  <unicode hex="00B2"/>
  <outline>
    <contour>
      <point x="132" y="663" type="line"/>
      <point x="150" y="716" type="line"/>
      <point x="168" y="727"/>
      <point x="185" y="731"/>
      <point x="204" y="731" type="curve" smooth="yes"/>
      <point x="246" y="731"/>
      <point x="262" y="712"/>
      <point x="262" y="686" type="curve" smooth="yes"/>
      <point x="262" y="616"/>
      <point x="142" y="534"/>
      <point x="50" y="464" type="curve"/>
      <point x="51" y="415" type="line"/>
      <point x="329" y="415" type="line"/>
      <point x="346" y="514" type="line"/>
      <point x="288" y="521" type="line"/>
      <point x="277" y="469" type="line"/>
      <point x="138" y="469" type="line"/>
      <point x="194" y="510"/>
      <point x="340" y="601"/>
      <point x="340" y="695" type="curve" smooth="yes"/>
      <point x="340" y="741"/>
      <point x="304" y="785"/>
      <point x="220" y="785" type="curve" smooth="yes"/>
      <point x="177" y="785"/>
      <point x="133" y="773"/>
      <point x="100" y="751" type="curve"/>
      <point x="79" y="668" type="line"/>
    </contour>
  </outline>
</glyph>
<glyph name="acute" format="1">
  <advance width="431"/>
  <unicode hex="00B4"/>
  <outline>
    <contour>
      <point x="436" y="617" type="line"/>
      <point x="393" y="688" type="line"/>
      <point x="226" y="553" type="line"/>
      <point x="247" y="516" type="line"/>
    </contour>
  </outline>
</glyph>
<glyph name="mu" format="1">
  <advance width="564"/>
  <unicode hex="00B5"/>
  <outline>
    <contour>
      <point x="520" y="0" type="line"/>
      <point x="360" y="0" type="line"/>
      <point x="368" y="77" type="line"/>
      <point x="334" y="24"/>
      <point x="277" y="-10"/>
      <point x="210" y="-10" type="curve" smooth="yes"/>
      <point x="184" y="-10"/>
      <point x="163" y="-4"/>
      <point x="145" y="8" type="curve"/>
      <point x="122" y="-213" type="line"/>
      <point x="36" y="-213" type="line"/>
      <point x="98" y="378" type="line"/>
      <point x="28" y="378" type="line"/>
      <point x="35" y="447" type="line"/>
      <point x="192" y="447" type="line"/>
      <point x="164" y="183" type="line"/>
      <point x="156" y="93"/>
      <point x="189" y="59"/>
      <point x="247" y="59" type="curve" smooth="yes"/>
      <point x="315" y="59"/>
      <point x="366" y="113"/>
      <point x="378" y="173" type="curve"/>
      <point x="399" y="378" type="line"/>
      <point x="315" y="378" type="line"/>
      <point x="322" y="447" type="line"/>
      <point x="493" y="447" type="line"/>
      <point x="453" y="69" type="line"/>
      <point x="528" y="69" type="line"/>
    </contour>
  </outline>
</glyph>
<glyph name="periodcentered" format="1">
  <advance width="219"/>
  <unicode hex="00B7"/>
  <outline>
    <contour>
      <point x="52" y="255" type="line"/>
      <point x="162" y="255" type="line"/>
      <point x="174" y="374" type="line"/>
      <point x="64" y="374" type="line"/>
    </contour>
  </outline>
</glyph>
<glyph name="guillemotright" format="1">
  <advance width="448"/>
  <unicode hex="00BB"/>
  <outline>
    <contour>
      <point x="250" y="25" type="line"/>
      <point x="412" y="271" type="line"/>
      <point x="301" y="511" type="line"/>
      <point x="229" y="511" type="line"/>
      <point x="327" y="271" type="line"/>
      <point x="178" y="25" type="line"/>
    </contour>
    <contour>
      <point x="88" y="25" type="line"/>
      <point x="249" y="271" type="line"/>
      <point x="139" y="511" type="line"/>
      <point x="66" y="511" type="line"/>
      <point x="164" y="271" type="line"/>
      <point x="15" y="25" type="line"/>
    </contour>
  </outline>
</glyph>
<glyph name="threequarters" format="1">
  <advance width="730"/>
  <unicode hex="00BE"/>
  <outline>
    <contour>
      <point x="545" y="0" type="line"/>
      <point x="613" y="0" type="line"/>
      <point x="622" y="93" type="line"/>
      <point x="678" y="93" type="line"/>
      <point x="689" y="143" type="line"/>
      <point x="628" y="143" type="line"/>
      <point x="651" y="364" type="line"/>
      <point x="525" y="364" type="line"/>
      <point x="381" y="145" type="line"/>
      <point x="382" y="93" type="line"/>
      <point x="555" y="93" type="line"/>
    </contour>
    <contour>
      <point x="128" y="545" type="line"/>
      <point x="144" y="592" type="line"/>
      <point x="162" y="602"/>
      <point x="179" y="606"/>
      <point x="197" y="606" type="curve" smooth="yes"/>
      <point x="232" y="606"/>
      <point x="249" y="591"/>
      <point x="249" y="564" type="curve" smooth="yes"/>
      <point x="249" y="526"/>
      <point x="219" y="504"/>
      <point x="161" y="501" type="curve"/>
      <point x="157" y="459" type="line"/>
      <point x="219" y="456"/>
      <point x="246" y="441"/>
      <point x="246" y="403" type="curve" smooth="yes"/>
      <point x="246" y="367"/>
      <point x="221" y="338"/>
      <point x="174" y="338" type="curve" smooth="yes"/>
      <point x="127" y="338"/>
      <point x="105" y="366"/>
      <point x="101" y="397" type="curve"/>
      <point x="48" y="382" type="line"/>
      <point x="52" y="316"/>
      <point x="105" y="284"/>
      <point x="175" y="284" type="curve" smooth="yes"/>
      <point x="257" y="284"/>
      <point x="321" y="327"/>
      <point x="321" y="399" type="curve" smooth="yes"/>
      <point x="321" y="439"/>
      <point x="301" y="473"/>
      <point x="247" y="483" type="curve"/>
      <point x="247" y="485" type="line"/>
      <point x="302" y="504"/>
      <point x="325" y="539"/>
      <point x="325" y="576" type="curve" smooth="yes"/>
      <point x="325" y="627"/>
      <point x="281" y="660"/>
      <point x="213" y="660" type="curve" smooth="yes"/>
      <point x="175" y="660"/>
      <point x="127" y="649"/>
      <point x="94" y="627" type="curve"/>
      <point x="76" y="550" type="line"/>
    </contour>
    <contour>
      <point x="627" y="650" type="line"/>
      <point x="408" y="325" type="line"/>
      <point x="195" y="0" type="line"/>
      <point x="133" y="0" type="line"/>
      <point x="361" y="337" type="line"/>
      <point x="566" y="650" type="line"/>
    </contour>
    <contour>
      <point x="550" y="310" type="line"/>
      <point x="578" y="310" type="line"/>
      <point x="560" y="143" type="line"/>
      <point x="441" y="143" type="line"/>
    </contour>
  </outline>
</glyph>
<glyph name="Aring" format="1">
  <advance width="641"/>
  <unicode hex="00C5"/>
  <outline>
    <contour>
      <point x="-14" y="79" type="line"/>
      <point x="46" y="79" type="line"/>
      <point x="296" y="571" type="line"/>
      <point x="199" y="571" type="line"/>
      <point x="207" y="650" type="line"/>
      <point x="396" y="650" type="line"/>
      <point x="564" y="79" type="line"/>
      <point x="625" y="79" type="line"/>
      <point x="617" y="0" type="line"/>
      <point x="386" y="0" type="line"/>
      <point x="394" y="79" type="line"/>
      <point x="468" y="79" type="line"/>
      <point x="440" y="187" type="line"/>
      <point x="188" y="187" type="line"/>
      <point x="135" y="79" type="line"/>
      <point x="216" y="79" type="line"/>
      <point x="208" y="0" type="line"/>
      <point x="-21" y="0" type="line"/>
    </contour>
    <contour>
      <point x="365" y="690" type="curve" smooth="yes"/>
      <point x="437" y="690"/>
      <point x="475" y="736"/>
      <point x="475" y="793" type="curve" smooth="yes"/>
      <point x="475" y="842"/>
      <point x="447" y="874"/>
      <point x="386" y="874" type="curve" smooth="yes"/>
      <point x="316" y="874"/>
      <point x="275" y="831"/>
      <point x="275" y="772" type="curve" smooth="yes"/>
      <point x="275" y="720"/>
      <point x="305" y="690"/>
    </contour>
    <contour>
      <point x="349" y="519" type="line"/>
      <point x="221" y="255" type="line"/>
      <point x="422" y="255" type="line"/>
      <point x="354" y="519" type="line"/>
    </contour>
    <contour>
      <point x="369" y="736" type="curve" smooth="yes"/>
      <point x="342" y="736"/>
      <point x="333" y="751"/>
      <point x="333" y="774" type="curve" smooth="yes"/>
      <point x="333" y="807"/>
      <point x="349" y="828"/>
      <point x="380" y="828" type="curve" smooth="yes"/>
      <point x="408" y="828"/>
      <point x="417" y="811"/>
      <point x="417" y="789" type="curve" smooth="yes"/>
      <point x="417" y="758"/>
      <point x="402" y="736"/>
    </contour>
  </outline>
</glyph>
<glyph name="AE" format="1">
  <advance width="908"/>
  <unicode hex="00C6"/>
  <outline>
    <contour>
      <point x="820" y="0" type="line"/>
      <point x="859" y="186" type="line"/>
      <point x="785" y="193" type="line"/>
      <point x="753" y="79" type="line"/>
      <point x="514" y="79" type="line"/>
      <point x="537" y="290" type="line"/>
      <point x="827" y="290" type="line"/>
      <point x="835" y="368" type="line"/>
      <point x="545" y="368" type="line"/>
      <point x="566" y="571" type="line"/>
      <point x="797" y="571" type="line"/>
      <point x="804" y="457" type="line"/>
      <point x="880" y="465" type="line"/>
      <point x="881" y="650" type="line"/>
      <point x="251" y="650" type="line"/>
      <point x="243" y="571" type="line"/>
      <point x="333" y="571" type="line"/>
      <point x="41" y="79" type="line"/>
      <point x="-23" y="79" type="line"/>
      <point x="-31" y="0" type="line"/>
      <point x="202" y="0" type="line"/>
      <point x="210" y="79" type="line"/>
      <point x="131" y="79" type="line"/>
      <point x="194" y="187" type="line"/>
      <point x="436" y="187" type="line"/>
      <point x="425" y="79" type="line"/>
      <point x="349" y="79" type="line"/>
      <point x="341" y="0" type="line"/>
    </contour>
    <contour>
      <point x="444" y="255" type="line"/>
      <point x="233" y="255" type="line"/>
      <point x="417" y="571" type="line"/>
      <point x="477" y="571" type="line"/>
    </contour>
  </outline>
</glyph>
<glyph name="Egrave" format="1">
  <advance width="572"/>
  <unicode hex="00C8"/>
  <outline>
    <contour>
      <point x="438" y="699" type="line"/>
      <point x="448" y="742" type="line"/>
      <point x="248" y="819" type="line"/>
      <point x="229" y="737" type="line"/>
    </contour>
    <contour>
      <point x="486" y="0" type="line"/>
      <point x="11" y="0" type="line"/>
      <point x="19" y="79" type="line"/>
      <point x="96" y="79" type="line"/>
      <point x="148" y="571" type="line"/>
      <point x="71" y="571" type="line"/>
      <point x="79" y="650" type="line"/>
      <point x="549" y="650" type="line"/>
      <point x="549" y="464" type="line"/>
      <point x="473" y="457" type="line"/>
      <point x="465" y="571" type="line"/>
      <point x="235" y="571" type="line"/>
      <point x="213" y="368" type="line"/>
      <point x="506" y="368" type="line"/>
      <point x="498" y="290" type="line"/>
      <point x="205" y="290" type="line"/>
      <point x="183" y="79" type="line"/>
      <point x="418" y="79" type="line"/>
      <point x="450" y="193" type="line"/>
      <point x="524" y="186" type="line"/>
    </contour>
  </outline>
</glyph>
<glyph name="Ecircumflex" format="1">
  <advance width="572"/>
  <unicode hex="00CA"/>
  <outline>
    <contour>
      <point x="486" y="0" type="line"/>
      <point x="11" y="0" type="line"/>
      <point x="19" y="79" type="line"/>
      <point x="96" y="79" type="line"/>
      <point x="148" y="571" type="line"/>
      <point x="71" y="571" type="line"/>
      <point x="79" y="650" type="line"/>
      <point x="549" y="650" type="line"/>
      <point x="549" y="464" type="line"/>
      <point x="473" y="457" type="line"/>
      <point x="465" y="571" type="line"/>
      <point x="235" y="571" type="line"/>
      <point x="213" y="368" type="line"/>
      <point x="506" y="368" type="line"/>
      <point x="498" y="290" type="line"/>
      <point x="205" y="290" type="line"/>
      <point x="183" y="79" type="line"/>
      <point x="418" y="79" type="line"/>
      <point x="450" y="193" type="line"/>
      <point x="524" y="186" type="line"/>
    </contour>
    <contour>
      <point x="389" y="831" type="line"/>
      <point x="361" y="831" type="line"/>
      <point x="223" y="734" type="line"/>
      <point x="243" y="696" type="line"/>
      <point x="365" y="758" type="line"/>
      <point x="480" y="697" type="line"/>
      <point x="505" y="736" type="line"/>
    </contour>
  </outline>
</glyph>
<glyph name="Iacute" format="1">
  <advance width="319"/>
  <unicode hex="00CD"/>
  <outline>
    <contour>
      <point x="19" y="79" type="line"/>
      <point x="95" y="79" type="line"/>
      <point x="147" y="571" type="line"/>
      <point x="71" y="571" type="line"/>
      <point x="79" y="650" type="line"/>
      <point x="318" y="650" type="line"/>
      <point x="310" y="571" type="line"/>
      <point x="234" y="571" type="line"/>
      <point x="182" y="79" type="line"/>
      <point x="259" y="79" type="line"/>
      <point x="250" y="0" type="line"/>
      <point x="11" y="0" type="line"/>
    </contour>
    <contour>
      <point x="350" y="737" type="line"/>
      <point x="331" y="819" type="line"/>
      <point x="132" y="742" type="line"/>
      <point x="142" y="699" type="line"/>
    </contour>
  </outline>
</glyph>
<glyph name="Ntilde" format="1">
  <advance width="720"/>
  <unicode hex="00D1"/>
  <outline>
    <contour>
      <point x="24" y="79" type="line"/>
      <point x="97" y="79" type="line"/>
      <point x="149" y="571" type="line"/>
      <point x="67" y="571" type="line"/>
      <point x="75" y="650" type="line"/>
      <point x="219" y="650" type="line"/>
      <point x="518" y="182" type="line"/>
      <point x="521" y="182" type="line"/>
      <point x="561" y="571" type="line"/>
      <point x="468" y="571" type="line"/>
      <point x="477" y="650" type="line"/>
      <point x="729" y="650" type="line"/>
      <point x="721" y="571" type="line"/>
      <point x="644" y="571" type="line"/>
      <point x="585" y="0" type="line"/>
      <point x="532" y="0" type="line"/>
      <point x="224" y="483" type="line"/>
      <point x="221" y="483" type="line"/>
      <point x="178" y="79" type="line"/>
      <point x="276" y="79" type="line"/>
      <point x="268" y="0" type="line"/>
      <point x="16" y="0" type="line"/>
    </contour>
    <contour>
      <point x="287" y="703" type="line"/>
      <point x="300" y="733"/>
      <point x="320" y="741"/>
      <point x="339" y="741" type="curve" smooth="yes"/>
      <point x="379" y="741"/>
      <point x="408" y="707"/>
      <point x="457" y="707" type="curve" smooth="yes"/>
      <point x="509" y="707"/>
      <point x="533" y="749"/>
      <point x="545" y="804" type="curve"/>
      <point x="505" y="814" type="line"/>
      <point x="492" y="780"/>
      <point x="473" y="773"/>
      <point x="455" y="773" type="curve" smooth="yes"/>
      <point x="412" y="773"/>
      <point x="387" y="807"/>
      <point x="343" y="807" type="curve" smooth="yes"/>
      <point x="288" y="807"/>
      <point x="258" y="752"/>
      <point x="252" y="717" type="curve"/>
    </contour>
  </outline>
</glyph>
<glyph name="multiply" format="1">
  <advance width="376"/>
  <unicode hex="00D7"/>
  <outline>
    <contour>
      <point x="73" y="128" type="line"/>
      <point x="184" y="231" type="line"/>
      <point x="272" y="130" type="line"/>
      <point x="320" y="175" type="line"/>
      <point x="232" y="275" type="line"/>
      <point x="339" y="374" type="line"/>
      <point x="301" y="418" type="line"/>
      <point x="194" y="319" type="line"/>
      <point x="106" y="420" type="line"/>
      <point x="58" y="376" type="line"/>
      <point x="146" y="275" type="line"/>
      <point x="34" y="172" type="line"/>
    </contour>
  </outline>
</glyph>
<glyph name="Oslash" format="1">
  <advance width="699"/>
  <unicode hex="00D8"/>
  <outline>
    <contour>
      <point x="388" y="660" type="curve" smooth="yes"/>
      <point x="189" y="660"/>
      <point x="36" y="495"/>
      <point x="36" y="291" type="curve" smooth="yes"/>
      <point x="36" y="210"/>
      <point x="60" y="137"/>
      <point x="106" y="83" type="curve"/>
      <point x="36" y="0" type="line"/>
      <point x="116" y="0" type="line"/>
      <point x="151" y="41" type="line"/>
      <point x="196" y="9"/>
      <point x="253" y="-10"/>
      <point x="320" y="-10" type="curve" smooth="yes"/>
      <point x="525" y="-10"/>
      <point x="675" y="159"/>
      <point x="675" y="359" type="curve" smooth="yes"/>
      <point x="675" y="439"/>
      <point x="649" y="512"/>
      <point x="603" y="566" type="curve"/>
      <point x="676" y="650" type="line"/>
      <point x="588" y="650" type="line"/>
      <point x="554" y="610" type="line"/>
      <point x="509" y="642"/>
      <point x="453" y="660"/>
    </contour>
    <contour>
      <point x="333" y="71" type="curve" smooth="yes"/>
      <point x="281" y="71"/>
      <point x="241" y="85"/>
      <point x="210" y="109" type="curve"/>
      <point x="543" y="495" type="line"/>
      <point x="567" y="458"/>
      <point x="580" y="409"/>
      <point x="580" y="353" type="curve" smooth="yes"/>
      <point x="580" y="205"/>
      <point x="489" y="71"/>
    </contour>
    <contour>
      <point x="131" y="299" type="curve" smooth="yes"/>
      <point x="131" y="451"/>
      <point x="230" y="579"/>
      <point x="379" y="579" type="curve" smooth="yes"/>
      <point x="426" y="579"/>
      <point x="466" y="566"/>
      <point x="497" y="543" type="curve"/>
      <point x="168" y="155" type="line"/>
      <point x="143" y="195"/>
      <point x="131" y="246"/>
    </contour>
  </outline>
</glyph>
<glyph name="Ucircumflex" format="1">
  <advance width="694"/>
  <unicode hex="00DB"/>
  <outline>
    <contour>
      <point x="474" y="650" type="line"/>
      <point x="700" y="650" type="line"/>
      <point x="692" y="571" type="line"/>
      <point x="631" y="571" type="line"/>
      <point x="600" y="267" type="line"/>
      <point x="585" y="129"/>
      <point x="519" y="-10"/>
      <point x="323" y="-10" type="curve" smooth="yes"/>
      <point x="134" y="-10"/>
      <point x="77" y="116"/>
      <point x="92" y="256" type="curve" smooth="yes"/>
      <point x="125" y="571" type="line"/>
      <point x="63" y="571" type="line"/>
      <point x="71" y="650" type="line"/>
      <point x="305" y="650" type="line"/>
      <point x="296" y="571" type="line"/>
      <point x="213" y="571" type="line"/>
      <point x="180" y="259" type="line"/>
      <point x="169" y="143"/>
      <point x="213" y="71"/>
      <point x="331" y="71" type="curve" smooth="yes"/>
      <point x="442" y="71"/>
      <point x="504" y="141"/>
      <point x="518" y="267" type="curve"/>
      <point x="549" y="571" type="line"/>
      <point x="466" y="571" type="line"/>
    </contour>
    <contour>
      <point x="420" y="831" type="line"/>
      <point x="392" y="831" type="line"/>
      <point x="254" y="734" type="line"/>
      <point x="274" y="696" type="line"/>
      <point x="396" y="758" type="line"/>
      <point x="511" y="697" type="line"/>
      <point x="536" y="736" type="line"/>
    </contour>
  </outline>
</glyph>
<glyph name="Udieresis" format="1">
  <advance width="694"/>
  <unicode hex="00DC"/>
  <outline>
    <contour>
      <point x="474" y="650" type="line"/>
      <point x="700" y="650" type="line"/>
      <point x="692" y="571" type="line"/>
      <point x="631" y="571" type="line"/>
      <point x="600" y="267" type="line"/>
      <point x="585" y="129"/>
      <point x="519" y="-10"/>
      <point x="323" y="-10" type="curve" smooth="yes"/>
      <point x="134" y="-10"/>
      <point x="77" y="116"/>
      <point x="92" y="256" type="curve" smooth="yes"/>
      <point x="125" y="571" type="line"/>
      <point x="63" y="571" type="line"/>
      <point x="71" y="650" type="line"/>
      <point x="305" y="650" type="line"/>
      <point x="296" y="571" type="line"/>
      <point x="213" y="571" type="line"/>
      <point x="180" y="259" type="line"/>
      <point x="169" y="143"/>
      <point x="213" y="71"/>
      <point x="331" y="71" type="curve" smooth="yes"/>
      <point x="442" y="71"/>
      <point x="504" y="141"/>
      <point x="518" y="267" type="curve"/>
      <point x="549" y="571" type="line"/>
      <point x="466" y="571" type="line"/>
    </contour>
    <contour>
      <point x="438" y="715" type="line"/>
      <point x="532" y="715" type="line"/>
      <point x="542" y="813" type="line"/>
      <point x="449" y="813" type="line"/>
    </contour>
    <contour>
      <point x="267" y="715" type="line"/>
      <point x="360" y="715" type="line"/>
      <point x="370" y="813" type="line"/>
      <point x="277" y="813" type="line"/>
    </contour>
  </outline>
</glyph>
<glyph name="germandbls" format="1">
  <advance width="614"/>
  <unicode hex="00DF"/>
  <outline>
    <contour>
      <point x="19" y="378" type="line"/>
      <point x="102" y="378" type="line"/>
      <point x="49" y="-47" type="line" smooth="yes"/>
      <point x="41" y="-108"/>
      <point x="22" y="-154"/>
      <point x="-24" y="-154" type="curve" smooth="yes"/>
      <point x="-51" y="-154"/>
      <point x="-83" y="-140"/>
      <point x="-81" y="-70" type="curve"/>
      <point x="-148" y="-90" type="line"/>
      <point x="-149" y="-185"/>
      <point x="-94" y="-223"/>
      <point x="-21" y="-223" type="curve" smooth="yes"/>
      <point x="83" y="-223"/>
      <point x="121" y="-145"/>
      <point x="133" y="-48" type="curve" smooth="yes"/>
      <point x="201" y="501" type="line" smooth="yes"/>
      <point x="211" y="581"/>
      <point x="259" y="630"/>
      <point x="352" y="630" type="curve" smooth="yes"/>
      <point x="428" y="630"/>
      <point x="472" y="599"/>
      <point x="472" y="550" type="curve" smooth="yes"/>
      <point x="472" y="441"/>
      <point x="260" y="463"/>
      <point x="260" y="318" type="curve" smooth="yes"/>
      <point x="260" y="231"/>
      <point x="335" y="213"/>
      <point x="399" y="197" type="curve" smooth="yes"/>
      <point x="455" y="183"/>
      <point x="493" y="172"/>
      <point x="493" y="127" type="curve" smooth="yes"/>
      <point x="493" y="83"/>
      <point x="457" y="59"/>
      <point x="398" y="59" type="curve" smooth="yes"/>
      <point x="372" y="59"/>
      <point x="335" y="63"/>
      <point x="309" y="76" type="curve"/>
      <point x="317" y="135" type="line"/>
      <point x="250" y="142" type="line"/>
      <point x="224" y="34" type="line"/>
      <point x="265" y="7"/>
      <point x="340" y="-10"/>
      <point x="408" y="-10" type="curve" smooth="yes"/>
      <point x="509" y="-10"/>
      <point x="581" y="41"/>
      <point x="581" y="133" type="curve" smooth="yes"/>
      <point x="581" y="233"/>
      <point x="493" y="249"/>
      <point x="427" y="265" type="curve"/>
      <point x="381" y="278"/>
      <point x="348" y="289"/>
      <point x="348" y="328" type="curve" smooth="yes"/>
      <point x="348" y="425"/>
      <point x="559" y="406"/>
      <point x="559" y="556" type="curve" smooth="yes"/>
      <point x="559" y="643"/>
      <point x="487" y="698"/>
      <point x="360" y="698" type="curve" smooth="yes"/>
      <point x="236" y="698"/>
      <point x="135" y="641"/>
      <point x="118" y="508" type="curve" smooth="yes"/>
      <point x="110" y="447" type="line"/>
      <point x="49" y="447" type="line"/>
      <point x="23" y="423" type="line"/>
    </contour>
  </outline>
</glyph>
<glyph name="atilde" format="1">
  <advance width="509"/>
  <unicode hex="00E3"/>
  <outline>
    <contour>
      <point x="467" y="447" type="line"/>
      <point x="453" y="398"/>
      <point x="440" y="351"/>
      <point x="434" y="302" type="curve" smooth="yes"/>
      <point x="405" y="69" type="line"/>
      <point x="469" y="69" type="line"/>
      <point x="464" y="19" type="line"/>
      <point x="440" y="0" type="line"/>
      <point x="326" y="0" type="line"/>
      <point x="327" y="91" type="line"/>
      <point x="298" y="37"/>
      <point x="252" y="-10"/>
      <point x="176" y="-10" type="curve" smooth="yes"/>
      <point x="78" y="-10"/>
      <point x="27" y="67"/>
      <point x="27" y="180" type="curve" smooth="yes"/>
      <point x="27" y="296"/>
      <point x="82" y="456"/>
      <point x="234" y="456" type="curve" smooth="yes"/>
      <point x="300" y="456"/>
      <point x="346" y="425"/>
      <point x="365" y="372" type="curve"/>
      <point x="370" y="397"/>
      <point x="377" y="422"/>
      <point x="385" y="447" type="curve"/>
    </contour>
    <contour>
      <point x="245" y="387" type="curve" smooth="yes"/>
      <point x="148" y="387"/>
      <point x="118" y="278"/>
      <point x="118" y="191" type="curve" smooth="yes"/>
      <point x="118" y="105"/>
      <point x="148" y="59"/>
      <point x="205" y="59" type="curve" smooth="yes"/>
      <point x="273" y="59"/>
      <point x="321" y="130"/>
      <point x="335" y="190" type="curve"/>
      <point x="346" y="271" type="line"/>
      <point x="347" y="340"/>
      <point x="303" y="387"/>
    </contour>
    <contour>
      <point x="190" y="539" type="line"/>
      <point x="203" y="570"/>
      <point x="223" y="582"/>
      <point x="243" y="582" type="curve" smooth="yes"/>
      <point x="280" y="582"/>
      <point x="309" y="543"/>
      <point x="360" y="543" type="curve" smooth="yes"/>
      <point x="411" y="543"/>
      <point x="435" y="591"/>
      <point x="447" y="646" type="curve"/>
      <point x="407" y="656" type="line"/>
      <point x="395" y="622"/>
      <point x="376" y="614"/>
      <point x="358" y="614" type="curve" smooth="yes"/>
      <point x="315" y="614"/>
      <point x="289" y="651"/>
      <point x="246" y="651" type="curve" smooth="yes"/>
      <point x="192" y="651"/>
      <point x="160" y="588"/>
      <point x="154" y="552" type="curve"/>
    </contour>
  </outline>
</glyph>
<glyph name="aring" format="1">
  <advance width="509"/>
  <unicode hex="00E5"/>
  <outline>
    <contour>
      <point x="467" y="447" type="line"/>
      <point x="453" y="398"/>
      <point x="440" y="351"/>
      <point x="434" y="302" type="curve" smooth="yes"/>
      <point x="405" y="69" type="line"/>
      <point x="469" y="69" type="line"/>
      <point x="464" y="19" type="line"/>
      <point x="440" y="0" type="line"/>
      <point x="326" y="0" type="line"/>
      <point x="327" y="91" type="line"/>
      <point x="298" y="37"/>
      <point x="252" y="-10"/>
      <point x="176" y="-10" type="curve" smooth="yes"/>
      <point x="78" y="-10"/>
      <point x="27" y="67"/>
      <point x="27" y="180" type="curve" smooth="yes"/>
      <point x="27" y="296"/>
      <point x="82" y="456"/>
      <point x="234" y="456" type="curve" smooth="yes"/>
      <point x="300" y="456"/>
      <point x="346" y="425"/>
      <point x="365" y="372" type="curve"/>
      <point x="370" y="397"/>
      <point x="377" y="422"/>
      <point x="385" y="447" type="curve"/>
    </contour>
    <contour>
      <point x="245" y="387" type="curve" smooth="yes"/>
      <point x="148" y="387"/>
      <point x="118" y="278"/>
      <point x="118" y="191" type="curve" smooth="yes"/>
      <point x="118" y="105"/>
      <point x="148" y="59"/>
      <point x="205" y="59" type="curve" smooth="yes"/>
      <point x="273" y="59"/>
      <point x="321" y="130"/>
      <point x="335" y="190" type="curve"/>
      <point x="346" y="271" type="line"/>
      <point x="347" y="340"/>
      <point x="303" y="387"/>
    </contour>
    <contour>
      <point x="291" y="514" type="curve" smooth="yes"/>
      <point x="364" y="514"/>
      <point x="402" y="562"/>
      <point x="402" y="617" type="curve" smooth="yes"/>
      <point x="402" y="665"/>
      <point x="372" y="698"/>
      <point x="313" y="698" type="curve" smooth="yes"/>
      <point x="243" y="698"/>
      <point x="203" y="656"/>
      <point x="203" y="595" type="curve" smooth="yes"/>
      <point x="203" y="546"/>
      <point x="232" y="514"/>
    </contour>
    <contour>
      <point x="297" y="560" type="curve" smooth="yes"/>
      <point x="270" y="560"/>
      <point x="261" y="574"/>
      <point x="261" y="598" type="curve" smooth="yes"/>
      <point x="261" y="632"/>
      <point x="277" y="652"/>
      <point x="308" y="652" type="curve" smooth="yes"/>
      <point x="336" y="652"/>
      <point x="345" y="635"/>
      <point x="345" y="614" type="curve" smooth="yes"/>
      <point x="345" y="580"/>
      <point x="327" y="560"/>
    </contour>
  </outline>
</glyph>
<glyph name="ccedilla" format="1">
  <advance width="440"/>
  <unicode hex="00E7"/>
  <outline>
    <contour>
      <point x="248" y="387" type="curve" smooth="yes"/>
      <point x="157" y="387"/>
      <point x="117" y="295"/>
      <point x="117" y="193" type="curve" smooth="yes"/>
      <point x="117" y="111"/>
      <point x="143" y="59"/>
      <point x="213" y="59" type="curve" smooth="yes"/>
      <point x="272" y="59"/>
      <point x="306" y="97"/>
      <point x="328" y="170" type="curve"/>
      <point x="396" y="155" type="line"/>
      <point x="378" y="79"/>
      <point x="326" y="-1"/>
      <point x="219" y="-9" type="curve"/>
      <point x="214" y="-45" type="line"/>
      <point x="222" y="-45" type="line" smooth="yes"/>
      <point x="279" y="-45"/>
      <point x="301" y="-76"/>
      <point x="301" y="-117" type="curve" smooth="yes"/>
      <point x="301" y="-182"/>
      <point x="241" y="-209"/>
      <point x="179" y="-209" type="curve" smooth="yes"/>
      <point x="140" y="-209"/>
      <point x="103" y="-199"/>
      <point x="83" y="-179" type="curve"/>
      <point x="106" y="-130" type="line"/>
      <point x="121" y="-141"/>
      <point x="147" y="-153"/>
      <point x="178" y="-153" type="curve" smooth="yes"/>
      <point x="209" y="-153"/>
      <point x="227" y="-141"/>
      <point x="227" y="-115" type="curve" smooth="yes"/>
      <point x="227" y="-89"/>
      <point x="211" y="-82"/>
      <point x="180" y="-82" type="curve" smooth="yes"/>
      <point x="149" y="-82" type="line"/>
      <point x="158" y="-6" type="line"/>
      <point x="74" y="11"/>
      <point x="26" y="81"/>
      <point x="26" y="188" type="curve" smooth="yes"/>
      <point x="26" y="310"/>
      <point x="88" y="456"/>
      <point x="249" y="456" type="curve" smooth="yes"/>
      <point x="303" y="456"/>
      <point x="353" y="443"/>
      <point x="396" y="412" type="curve"/>
      <point x="401" y="297" type="line"/>
      <point x="330" y="289" type="line"/>
      <point x="322" y="366" type="line"/>
      <point x="297" y="382"/>
      <point x="274" y="387"/>
    </contour>
  </outline>
</glyph>
<glyph name="ecircumflex" format="1">
  <advance width="439"/>
  <unicode hex="00EA"/>
  <outline>
    <contour>
      <point x="217" y="59" type="curve" smooth="yes"/>
      <point x="280" y="59"/>
      <point x="311" y="99"/>
      <point x="328" y="144" type="curve"/>
      <point x="396" y="129" type="line"/>
      <point x="379" y="54"/>
      <point x="311" y="-10"/>
      <point x="204" y="-10" type="curve" smooth="yes"/>
      <point x="96" y="-10"/>
      <point x="26" y="56"/>
      <point x="26" y="186" type="curve" smooth="yes"/>
      <point x="26" y="335"/>
      <point x="115" y="456"/>
      <point x="256" y="456" type="curve" smooth="yes"/>
      <point x="341" y="456"/>
      <point x="406" y="411"/>
      <point x="406" y="341" type="curve" smooth="yes"/>
      <point x="406" y="275"/>
      <point x="362" y="228"/>
      <point x="246" y="203" type="curve" smooth="yes"/>
      <point x="208" y="195"/>
      <point x="164" y="187"/>
      <point x="117" y="181" type="curve"/>
      <point x="119" y="105"/>
      <point x="146" y="59"/>
    </contour>
    <contour>
      <point x="207" y="252" type="curve"/>
      <point x="302" y="273"/>
      <point x="316" y="304"/>
      <point x="316" y="335" type="curve" smooth="yes"/>
      <point x="316" y="376"/>
      <point x="287" y="391"/>
      <point x="247" y="391" type="curve" smooth="yes"/>
      <point x="164" y="391"/>
      <point x="129" y="315"/>
      <point x="119" y="238" type="curve"/>
      <point x="156" y="243"/>
      <point x="184" y="248"/>
    </contour>
    <contour>
      <point x="300" y="674" type="line"/>
      <point x="272" y="674" type="line"/>
      <point x="136" y="552" type="line"/>
      <point x="161" y="515" type="line"/>
      <point x="275" y="597" type="line"/>
      <point x="379" y="516" type="line"/>
      <point x="411" y="552" type="line"/>
    </contour>
  </outline>
</glyph>
<glyph name="idieresis" format="1">
  <advance width="261"/>
  <unicode hex="00EF"/>
  <outline>
    <contour>
      <point x="35" y="425" type="line"/>
      <point x="59" y="447" type="line"/>
      <point x="195" y="447" type="line"/>
      <point x="148" y="69" type="line"/>
      <point x="218" y="69" type="line"/>
      <point x="212" y="19" type="line"/>
      <point x="188" y="0" type="line"/>
      <point x="56" y="0" type="line"/>
      <point x="101" y="378" type="line"/>
      <point x="29" y="378" type="line"/>
    </contour>
    <contour>
      <point x="199" y="548" type="line"/>
      <point x="292" y="548" type="line"/>
      <point x="302" y="647" type="line"/>
      <point x="209" y="647" type="line"/>
    </contour>
    <contour>
      <point x="27" y="548" type="line"/>
      <point x="119" y="548" type="line"/>
      <point x="130" y="647" type="line"/>
      <point x="37" y="647" type="line"/>
    </contour>
  </outline>
</glyph>
<glyph name="eth" format="1">
  <advance width="491"/>
  <unicode hex="00F0"/>
  <outline>
    <contour>
      <point x="143" y="521" type="line"/>
      <point x="203" y="591" type="line"/>
      <point x="182" y="605"/>
      <point x="159" y="620"/>
      <point x="134" y="634" type="curve"/>
      <point x="178" y="698" type="line"/>
      <point x="204" y="683"/>
      <point x="230" y="668"/>
      <point x="254" y="650" type="curve"/>
      <point x="302" y="706" type="line"/>
      <point x="347" y="675" type="line"/>
      <point x="297" y="617" type="line"/>
      <point x="386" y="540"/>
      <point x="448" y="437"/>
      <point x="448" y="297" type="curve" smooth="yes"/>
      <point x="448" y="150"/>
      <point x="385" y="-10"/>
      <point x="212" y="-10" type="curve" smooth="yes"/>
      <point x="91" y="-10"/>
      <point x="27" y="70"/>
      <point x="27" y="195" type="curve" smooth="yes"/>
      <point x="27" y="342"/>
      <point x="116" y="456"/>
      <point x="245" y="456" type="curve" smooth="yes"/>
      <point x="288" y="456"/>
      <point x="318" y="443"/>
      <point x="340" y="421" type="curve"/>
      <point x="323" y="476"/>
      <point x="291" y="520"/>
      <point x="246" y="558" type="curve"/>
      <point x="186" y="489" type="line"/>
    </contour>
    <contour>
      <point x="247" y="387" type="curve" smooth="yes"/>
      <point x="158" y="387"/>
      <point x="120" y="306"/>
      <point x="120" y="200" type="curve" smooth="yes"/>
      <point x="120" y="123"/>
      <point x="141" y="59"/>
      <point x="219" y="59" type="curve" smooth="yes"/>
      <point x="326" y="59"/>
      <point x="349" y="178"/>
      <point x="354" y="259" type="curve" smooth="yes"/>
      <point x="354" y="265"/>
      <point x="355" y="271"/>
      <point x="355" y="277" type="curve" smooth="yes"/>
      <point x="352" y="329"/>
      <point x="322" y="387"/>
    </contour>
  </outline>
</glyph>
<glyph name="oacute" format="1">
  <advance width="482"/>
  <unicode hex="00F3"/>
  <outline>
    <contour>
      <point x="428" y="617" type="line"/>
      <point x="385" y="688" type="line"/>
      <point x="218" y="553" type="line"/>
      <point x="239" y="516" type="line"/>
    </contour>
    <contour>
      <point x="26" y="191" type="curve" smooth="yes"/>
      <point x="26" y="330"/>
      <point x="104" y="456"/>
      <point x="260" y="456" type="curve" smooth="yes"/>
      <point x="391" y="456"/>
      <point x="443" y="366"/>
      <point x="443" y="252" type="curve" smooth="yes"/>
      <point x="443" y="102"/>
      <point x="354" y="-10"/>
      <point x="209" y="-10" type="curve" smooth="yes"/>
      <point x="87" y="-10"/>
      <point x="26" y="69"/>
    </contour>
    <contour>
      <point x="118" y="197" type="curve" smooth="yes"/>
      <point x="118" y="115"/>
      <point x="140" y="59"/>
      <point x="217" y="59" type="curve" smooth="yes"/>
      <point x="313" y="59"/>
      <point x="352" y="146"/>
      <point x="352" y="249" type="curve" smooth="yes"/>
      <point x="352" y="335"/>
      <point x="326" y="387"/>
      <point x="250" y="387" type="curve" smooth="yes"/>
      <point x="162" y="387"/>
      <point x="118" y="313"/>
    </contour>
  </outline>
</glyph>
<glyph name="ocircumflex" format="1">
  <advance width="482"/>
  <unicode hex="00F4"/>
  <outline>
    <contour>
      <point x="298" y="674" type="line"/>
      <point x="270" y="674" type="line"/>
      <point x="134" y="552" type="line"/>
      <point x="159" y="515" type="line"/>
      <point x="273" y="597" type="line"/>
      <point x="377" y="516" type="line"/>
      <point x="409" y="552" type="line"/>
    </contour>
    <contour>
      <point x="26" y="191" type="curve" smooth="yes"/>
      <point x="26" y="330"/>
      <point x="104" y="456"/>
      <point x="260" y="456" type="curve" smooth="yes"/>
      <point x="391" y="456"/>
      <point x="443" y="366"/>
      <point x="443" y="252" type="curve" smooth="yes"/>
      <point x="443" y="102"/>
      <point x="354" y="-10"/>
      <point x="209" y="-10" type="curve" smooth="yes"/>
      <point x="87" y="-10"/>
      <point x="26" y="69"/>
    </contour>
    <contour>
      <point x="118" y="197" type="curve" smooth="yes"/>
      <point x="118" y="115"/>
      <point x="140" y="59"/>
      <point x="217" y="59" type="curve" smooth="yes"/>
      <point x="313" y="59"/>
      <point x="352" y="146"/>
      <point x="352" y="249" type="curve" smooth="yes"/>
      <point x="352" y="335"/>
      <point x="326" y="387"/>
      <point x="250" y="387" type="curve" smooth="yes"/>
      <point x="162" y="387"/>
      <point x="118" y="313"/>
    </contour>
  </outline>
</glyph>
<glyph name="odieresis" format="1">
  <advance width="482"/>
  <unicode hex="00F6"/>
  <outline>
    <contour>
      <point x="146" y="548" type="line"/>
      <point x="238" y="548" type="line"/>
      <point x="249" y="647" type="line"/>
      <point x="156" y="647" type="line"/>
    </contour>
    <contour>
      <point x="318" y="548" type="line"/>
      <point x="411" y="548" type="line"/>
      <point x="421" y="647" type="line"/>
      <point x="328" y="647" type="line"/>
    </contour>
    <contour>
      <point x="26" y="191" type="curve" smooth="yes"/>
      <point x="26" y="330"/>
      <point x="104" y="456"/>
      <point x="260" y="456" type="curve" smooth="yes"/>
      <point x="391" y="456"/>
      <point x="443" y="366"/>
      <point x="443" y="252" type="curve" smooth="yes"/>
      <point x="443" y="102"/>
      <point x="354" y="-10"/>
      <point x="209" y="-10" type="curve" smooth="yes"/>
      <point x="87" y="-10"/>
      <point x="26" y="69"/>
    </contour>
    <contour>
      <point x="118" y="197" type="curve" smooth="yes"/>
      <point x="118" y="115"/>
      <point x="140" y="59"/>
      <point x="217" y="59" type="curve" smooth="yes"/>
      <point x="313" y="59"/>
      <point x="352" y="146"/>
      <point x="352" y="249" type="curve" smooth="yes"/>
      <point x="352" y="335"/>
      <point x="326" y="387"/>
      <point x="250" y="387" type="curve" smooth="yes"/>
      <point x="162" y="387"/>
      <point x="118" y="313"/>
    </contour>
  </outline>
</glyph>
<glyph name="divide" format="1">
  <advance width="425"/>
  <unicode hex="00F7"/>
  <outline>
    <contour>
      <point x="40" y="249" type="line"/>
      <point x="380" y="249" type="line"/>
      <point x="387" y="313" type="line"/>
      <point x="47" y="313" type="line"/>
    </contour>
    <contour>
      <point x="137" y="76" type="line"/>
      <point x="247" y="76" type="line"/>
      <point x="259" y="195" type="line"/>
      <point x="149" y="195" type="line"/>
    </contour>
    <contour>
      <point x="168" y="371" type="line"/>
      <point x="278" y="371" type="line"/>
      <point x="290" y="490" type="line"/>
      <point x="180" y="490" type="line"/>
    </contour>
  </outline>
</glyph>
<glyph name="oslash" format="1">
  <advance width="479"/>
  <unicode hex="00F8"/>
  <outline>
    <contour>
      <point x="25" y="191" type="curve" smooth="yes"/>
      <point x="25" y="330"/>
      <point x="103" y="456"/>
      <point x="259" y="456" type="curve" smooth="yes"/>
      <point x="301" y="456"/>
      <point x="335" y="446"/>
      <point x="362" y="430" type="curve"/>
      <point x="376" y="447" type="line"/>
      <point x="442" y="447" type="line"/>
      <point x="401" y="395" type="line"/>
      <point x="429" y="358"/>
      <point x="442" y="308"/>
      <point x="442" y="252" type="curve" smooth="yes"/>
      <point x="442" y="102"/>
      <point x="353" y="-10"/>
      <point x="208" y="-10" type="curve" smooth="yes"/>
      <point x="165" y="-10"/>
      <point x="130" y="0"/>
      <point x="102" y="17" type="curve"/>
      <point x="89" y="0" type="line"/>
      <point x="23" y="0" type="line"/>
      <point x="64" y="52" type="line"/>
      <point x="38" y="87"/>
      <point x="25" y="134"/>
    </contour>
    <contour>
      <point x="216" y="59" type="curve" smooth="yes"/>
      <point x="312" y="59"/>
      <point x="351" y="146"/>
      <point x="351" y="249" type="curve" smooth="yes"/>
      <point x="351" y="276"/>
      <point x="348" y="300"/>
      <point x="342" y="320" type="curve"/>
      <point x="152" y="80" type="line"/>
      <point x="167" y="66"/>
      <point x="188" y="59"/>
    </contour>
    <contour>
      <point x="117" y="197" type="curve" smooth="yes"/>
      <point x="117" y="171"/>
      <point x="119" y="148"/>
      <point x="124" y="128" type="curve"/>
      <point x="313" y="367" type="line"/>
      <point x="297" y="380"/>
      <point x="276" y="387"/>
      <point x="249" y="387" type="curve" smooth="yes"/>
      <point x="161" y="387"/>
      <point x="117" y="313"/>
    </contour>
  </outline>
</glyph>
<glyph name="ucircumflex" format="1">
  <advance width="528"/>
  <unicode hex="00FB"/>
  <outline>
    <contour>
      <point x="491" y="69" type="line"/>
      <point x="485" y="21" type="line"/>
      <point x="460" y="0" type="line"/>
      <point x="339" y="0" type="line"/>
      <point x="338" y="85" type="line"/>
      <point x="307" y="28"/>
      <point x="260" y="-9"/>
      <point x="191" y="-9" type="curve" smooth="yes"/>
      <point x="108" y="-9"/>
      <point x="49" y="41"/>
      <point x="62" y="156" type="curve"/>
      <point x="89" y="378" type="line"/>
      <point x="19" y="378" type="line"/>
      <point x="25" y="427" type="line"/>
      <point x="49" y="447" type="line"/>
      <point x="181" y="447" type="line"/>
      <point x="150" y="185" type="line"/>
      <point x="138" y="95"/>
      <point x="166" y="60"/>
      <point x="228" y="60" type="curve" smooth="yes"/>
      <point x="295" y="60"/>
      <point x="333" y="112"/>
      <point x="345" y="172" type="curve"/>
      <point x="379" y="447" type="line"/>
      <point x="464" y="447" type="line"/>
      <point x="417" y="69" type="line"/>
    </contour>
    <contour>
      <point x="318" y="674" type="line"/>
      <point x="290" y="674" type="line"/>
      <point x="154" y="552" type="line"/>
      <point x="179" y="515" type="line"/>
      <point x="293" y="597" type="line"/>
      <point x="397" y="516" type="line"/>
      <point x="429" y="552" type="line"/>
    </contour>
  </outline>
</glyph>
<glyph name="ydieresis" format="1">
  <advance width="472"/>
  <unicode hex="00FF"/>
  <outline>
    <contour>
      <point x="238" y="101" type="line"/>
      <point x="244" y="101" type="line"/>
      <point x="322" y="193"/>
      <point x="360" y="270"/>
      <point x="360" y="354" type="curve" smooth="yes"/>
      <point x="360" y="383"/>
      <point x="355" y="414"/>
      <point x="341" y="447" type="curve"/>
      <point x="438" y="447" type="line"/>
      <point x="457" y="365"/>
      <point x="446" y="278"/>
      <point x="384" y="186" type="curve" smooth="yes"/>
      <point x="356" y="143"/>
      <point x="306" y="82"/>
      <point x="255" y="30" type="curve"/>
      <point x="231" y="-144" type="line"/>
      <point x="304" y="-144" type="line"/>
      <point x="299" y="-192" type="line"/>
      <point x="274" y="-213" type="line"/>
      <point x="64" y="-213" type="line"/>
      <point x="70" y="-166" type="line"/>
      <point x="94" y="-144" type="line"/>
      <point x="147" y="-144" type="line"/>
      <point x="172" y="33" type="line"/>
      <point x="65" y="378" type="line"/>
      <point x="11" y="378" type="line"/>
      <point x="17" y="425" type="line"/>
      <point x="41" y="447" type="line"/>
      <point x="237" y="447" type="line"/>
      <point x="231" y="398" type="line"/>
      <point x="207" y="378" type="line"/>
      <point x="154" y="378" type="line"/>
    </contour>
    <contour>
      <point x="309" y="548" type="line"/>
      <point x="402" y="548" type="line"/>
      <point x="412" y="647" type="line"/>
      <point x="319" y="647" type="line"/>
    </contour>
    <contour>
      <point x="137" y="548" type="line"/>
      <point x="229" y="548" type="line"/>
      <point x="240" y="647" type="line"/>
      <point x="147" y="647" type="line"/>
    </contour>
  </outline>
</glyph>
<glyph name="amacron" format="1">
  <advance width="509"/>
  <unicode hex="0101"/>
  <outline>
    <contour>
      <point x="467" y="447" type="line"/>
      <point x="453" y="398"/>
      <point x="440" y="351"/>
      <point x="434" y="302" type="curve" smooth="yes"/>
      <point x="405" y="69" type="line"/>
      <point x="469" y="69" type="line"/>
      <point x="464" y="19" type="line"/>
      <point x="440" y="0" type="line"/>
      <point x="326" y="0" type="line"/>
      <point x="327" y="91" type="line"/>
      <point x="298" y="37"/>
      <point x="252" y="-10"/>
      <point x="176" y="-10" type="curve" smooth="yes"/>
      <point x="78" y="-10"/>
      <point x="27" y="67"/>
      <point x="27" y="180" type="curve" smooth="yes"/>
      <point x="27" y="296"/>
      <point x="82" y="456"/>
      <point x="234" y="456" type="curve" smooth="yes"/>
      <point x="300" y="456"/>
      <point x="346" y="425"/>
      <point x="365" y="372" type="curve"/>
      <point x="370" y="397"/>
      <point x="377" y="422"/>
      <point x="385" y="447" type="curve"/>
    </contour>
    <contour>
      <point x="245" y="387" type="curve" smooth="yes"/>
      <point x="148" y="387"/>
      <point x="118" y="278"/>
      <point x="118" y="191" type="curve" smooth="yes"/>
      <point x="118" y="105"/>
      <point x="148" y="59"/>
      <point x="205" y="59" type="curve" smooth="yes"/>
      <point x="273" y="59"/>
      <point x="321" y="130"/>
      <point x="335" y="190" type="curve"/>
      <point x="346" y="271" type="line"/>
      <point x="347" y="340"/>
      <point x="303" y="387"/>
    </contour>
    <contour>
      <point x="176" y="625" type="line"/>
      <point x="423" y="625" type="line"/>
      <point x="416" y="556" type="line"/>
      <point x="169" y="556" type="line"/>
    </contour>
  </outline>
</glyph>
<glyph name="aogonek" format="1">
  <advance width="509"/>
  <unicode hex="0105"/>
  <outline>
    <contour>
      <point x="452" y="-189" type="line"/>
      <point x="429" y="-200"/>
      <point x="401" y="-209"/>
      <point x="369" y="-209" type="curve" smooth="yes"/>
      <point x="311" y="-209"/>
      <point x="272" y="-181"/>
      <point x="272" y="-126" type="curve" smooth="yes"/>
      <point x="272" y="-73"/>
      <point x="309" y="-27"/>
      <point x="356" y="0" type="curve"/>
      <point x="326" y="0" type="line"/>
      <point x="327" y="91" type="line"/>
      <point x="298" y="37"/>
      <point x="252" y="-10"/>
      <point x="176" y="-10" type="curve" smooth="yes"/>
      <point x="78" y="-10"/>
      <point x="27" y="67"/>
      <point x="27" y="180" type="curve" smooth="yes"/>
      <point x="27" y="296"/>
      <point x="82" y="456"/>
      <point x="234" y="456" type="curve" smooth="yes"/>
      <point x="300" y="456"/>
      <point x="346" y="425"/>
      <point x="365" y="372" type="curve"/>
      <point x="370" y="397"/>
      <point x="377" y="422"/>
      <point x="385" y="447" type="curve"/>
      <point x="467" y="447" type="line"/>
      <point x="453" y="398"/>
      <point x="440" y="351"/>
      <point x="434" y="302" type="curve" smooth="yes"/>
      <point x="405" y="69" type="line"/>
      <point x="469" y="69" type="line"/>
      <point x="464" y="19" type="line"/>
      <point x="440" y="0" type="line"/>
      <point x="417" y="0" type="line"/>
      <point x="363" y="-32"/>
      <point x="350" y="-69"/>
      <point x="350" y="-98" type="curve" smooth="yes"/>
      <point x="350" y="-134"/>
      <point x="368" y="-144"/>
      <point x="398" y="-144" type="curve" smooth="yes"/>
      <point x="414" y="-144"/>
      <point x="432" y="-140"/>
      <point x="450" y="-130" type="curve"/>
    </contour>
    <contour>
      <point x="245" y="387" type="curve" smooth="yes"/>
      <point x="148" y="387"/>
      <point x="118" y="278"/>
      <point x="118" y="191" type="curve" smooth="yes"/>
      <point x="118" y="105"/>
      <point x="148" y="59"/>
      <point x="205" y="59" type="curve" smooth="yes"/>
      <point x="273" y="59"/>
      <point x="321" y="130"/>
      <point x="335" y="190" type="curve"/>
      <point x="346" y="271" type="line"/>
      <point x="347" y="340"/>
      <point x="303" y="387"/>
    </contour>
  </outline>
</glyph>
<glyph name="Dcaron" format="1">
  <advance width="682"/>
  <unicode hex="010E"/>
  <outline>
    <contour>
      <point x="11" y="0" type="line"/>
      <point x="20" y="78" type="line"/>
      <point x="96" y="78" type="line"/>
      <point x="148" y="572" type="line"/>
      <point x="71" y="572" type="line"/>
      <point x="79" y="650" type="line"/>
      <point x="362" y="650" type="line" smooth="yes"/>
      <point x="555" y="650"/>
      <point x="654" y="534"/>
      <point x="654" y="361" type="curve" smooth="yes"/>
      <point x="654" y="154"/>
      <point x="515" y="0"/>
      <point x="299" y="0" type="curve" smooth="yes"/>
    </contour>
    <contour>
      <point x="302" y="78" type="line" smooth="yes"/>
      <point x="463" y="78"/>
      <point x="561" y="187"/>
      <point x="561" y="353" type="curve" smooth="yes"/>
      <point x="561" y="491"/>
      <point x="491" y="572"/>
      <point x="353" y="572" type="curve" smooth="yes"/>
      <point x="234" y="572" type="line"/>
      <point x="182" y="78" type="line"/>
    </contour>
    <contour>
      <point x="350" y="696" type="line"/>
      <point x="378" y="696" type="line"/>
      <point x="515" y="792" type="line"/>
      <point x="496" y="831" type="line"/>
      <point x="373" y="767" type="line"/>
      <point x="258" y="829" type="line"/>
      <point x="234" y="790" type="line"/>
    </contour>
  </outline>
</glyph>
<glyph name="Ebreve" format="1">
  <advance width="572"/>
  <unicode hex="0114"/>
  <outline>
    <contour>
      <point x="427" y="821" type="curve"/>
      <point x="497" y="821" type="line"/>
      <point x="488" y="735"/>
      <point x="437" y="698"/>
      <point x="359" y="698" type="curve" smooth="yes"/>
      <point x="280" y="698"/>
      <point x="239" y="737"/>
      <point x="248" y="821" type="curve"/>
      <point x="317" y="821" type="line"/>
      <point x="312" y="773"/>
      <point x="329" y="754"/>
      <point x="365" y="754" type="curve" smooth="yes"/>
      <point x="404" y="754"/>
      <point x="422" y="777"/>
    </contour>
    <contour>
      <point x="486" y="0" type="line"/>
      <point x="11" y="0" type="line"/>
      <point x="19" y="79" type="line"/>
      <point x="96" y="79" type="line"/>
      <point x="148" y="571" type="line"/>
      <point x="71" y="571" type="line"/>
      <point x="79" y="650" type="line"/>
      <point x="549" y="650" type="line"/>
      <point x="549" y="464" type="line"/>
      <point x="473" y="457" type="line"/>
      <point x="465" y="571" type="line"/>
      <point x="235" y="571" type="line"/>
      <point x="213" y="368" type="line"/>
      <point x="506" y="368" type="line"/>
      <point x="498" y="290" type="line"/>
      <point x="205" y="290" type="line"/>
      <point x="183" y="79" type="line"/>
      <point x="418" y="79" type="line"/>
      <point x="450" y="193" type="line"/>
      <point x="524" y="186" type="line"/>
    </contour>
  </outline>
</glyph>
<glyph name="Edotaccent" format="1">
  <advance width="572"/>
  <unicode hex="0116"/>
  <outline>
    <contour>
      <point x="312" y="715" type="line"/>
      <point x="405" y="715" type="line"/>
      <point x="415" y="813" type="line"/>
      <point x="322" y="813" type="line"/>
    </contour>
    <contour>
      <point x="486" y="0" type="line"/>
      <point x="11" y="0" type="line"/>
      <point x="19" y="79" type="line"/>
      <point x="96" y="79" type="line"/>
      <point x="148" y="571" type="line"/>
      <point x="71" y="571" type="line"/>
      <point x="79" y="650" type="line"/>
      <point x="549" y="650" type="line"/>
      <point x="549" y="464" type="line"/>
      <point x="473" y="457" type="line"/>
      <point x="465" y="571" type="line"/>
      <point x="235" y="571" type="line"/>
      <point x="213" y="368" type="line"/>
      <point x="506" y="368" type="line"/>
      <point x="498" y="290" type="line"/>
      <point x="205" y="290" type="line"/>
      <point x="183" y="79" type="line"/>
      <point x="418" y="79" type="line"/>
      <point x="450" y="193" type="line"/>
      <point x="524" y="186" type="line"/>
    </contour>
  </outline>
</glyph>
<glyph name="Eogonek" format="1">
  <advance width="571"/>
  <unicode hex="0118"/>
  <outline>
    <contour>
      <point x="485" y="0" type="line"/>
      <point x="444" y="0" type="line"/>
      <point x="390" y="-32"/>
      <point x="377" y="-69"/>
      <point x="377" y="-98" type="curve" smooth="yes"/>
      <point x="377" y="-134"/>
      <point x="395" y="-144"/>
      <point x="425" y="-144" type="curve" smooth="yes"/>
      <point x="441" y="-144"/>
      <point x="459" y="-140"/>
      <point x="477" y="-130" type="curve"/>
      <point x="479" y="-189" type="line"/>
      <point x="456" y="-200"/>
      <point x="428" y="-209"/>
      <point x="396" y="-209" type="curve" smooth="yes"/>
      <point x="338" y="-209"/>
      <point x="299" y="-181"/>
      <point x="299" y="-126" type="curve" smooth="yes"/>
      <point x="299" y="-73"/>
      <point x="336" y="-27"/>
      <point x="383" y="0" type="curve"/>
      <point x="10" y="0" type="line"/>
      <point x="18" y="79" type="line"/>
      <point x="95" y="79" type="line"/>
      <point x="147" y="571" type="line"/>
      <point x="70" y="571" type="line"/>
      <point x="78" y="650" type="line"/>
      <point x="548" y="650" type="line"/>
      <point x="548" y="464" type="line"/>
      <point x="472" y="457" type="line"/>
      <point x="464" y="571" type="line"/>
      <point x="234" y="571" type="line"/>
      <point x="212" y="368" type="line"/>
      <point x="505" y="368" type="line"/>
      <point x="497" y="290" type="line"/>
      <point x="204" y="290" type="line"/>
      <point x="182" y="79" type="line"/>
      <point x="417" y="79" type="line"/>
      <point x="449" y="193" type="line"/>
      <point x="523" y="186" type="line"/>
    </contour>
  </outline>
</glyph>
<glyph name="Ecaron" format="1">
  <advance width="572"/>
  <unicode hex="011A"/>
  <outline>
    <contour>
      <point x="339" y="696" type="line"/>
      <point x="367" y="696" type="line"/>
      <point x="504" y="792" type="line"/>
      <point x="485" y="831" type="line"/>
      <point x="362" y="767" type="line"/>
      <point x="247" y="829" type="line"/>
      <point x="223" y="790" type="line"/>
    </contour>
    <contour>
      <point x="486" y="0" type="line"/>
      <point x="11" y="0" type="line"/>
      <point x="19" y="79" type="line"/>
      <point x="96" y="79" type="line"/>
      <point x="148" y="571" type="line"/>
      <point x="71" y="571" type="line"/>
      <point x="79" y="650" type="line"/>
      <point x="549" y="650" type="line"/>
      <point x="549" y="464" type="line"/>
      <point x="473" y="457" type="line"/>
      <point x="465" y="571" type="line"/>
      <point x="235" y="571" type="line"/>
      <point x="213" y="368" type="line"/>
      <point x="506" y="368" type="line"/>
      <point x="498" y="290" type="line"/>
      <point x="205" y="290" type="line"/>
      <point x="183" y="79" type="line"/>
      <point x="418" y="79" type="line"/>
      <point x="450" y="193" type="line"/>
      <point x="524" y="186" type="line"/>
    </contour>
  </outline>
</glyph>
<glyph name="gbreve" format="1">
  <advance width="517"/>
  <unicode hex="011F"/>
  <outline>
    <contour>
      <point x="387" y="447" type="line"/>
      <point x="525" y="447" type="line"/>
      <point x="519" y="398" type="line"/>
      <point x="495" y="378" type="line"/>
      <point x="449" y="378" type="line"/>
      <point x="404" y="11" type="line" smooth="yes"/>
      <point x="388" y="-121"/>
      <point x="324" y="-223"/>
      <point x="180" y="-223" type="curve" smooth="yes"/>
      <point x="92" y="-223"/>
      <point x="15" y="-180"/>
      <point x="-1" y="-87" type="curve"/>
      <point x="62" y="-55" type="line"/>
      <point x="78" y="-121"/>
      <point x="130" y="-148"/>
      <point x="186" y="-148" type="curve" smooth="yes"/>
      <point x="264" y="-148"/>
      <point x="307" y="-93"/>
      <point x="320" y="13" type="curve" smooth="yes"/>
      <point x="329" y="88" type="line"/>
      <point x="298" y="35"/>
      <point x="249" y="-10"/>
      <point x="174" y="-10" type="curve" smooth="yes"/>
      <point x="76" y="-10"/>
      <point x="26" y="68"/>
      <point x="26" y="177" type="curve" smooth="yes"/>
      <point x="26" y="297"/>
      <point x="87" y="456"/>
      <point x="238" y="456" type="curve" smooth="yes"/>
      <point x="303" y="456"/>
      <point x="349" y="426"/>
      <point x="369" y="376" type="curve"/>
    </contour>
    <contour>
      <point x="248" y="387" type="curve" smooth="yes"/>
      <point x="154" y="387"/>
      <point x="117" y="280"/>
      <point x="117" y="187" type="curve" smooth="yes"/>
      <point x="117" y="107"/>
      <point x="145" y="59"/>
      <point x="203" y="59" type="curve" smooth="yes"/>
      <point x="274" y="59"/>
      <point x="327" y="132"/>
      <point x="342" y="193" type="curve"/>
      <point x="351" y="267" type="line"/>
      <point x="354" y="337"/>
      <point x="311" y="387"/>
    </contour>
    <contour>
      <point x="360" y="654" type="curve"/>
      <point x="430" y="654" type="line"/>
      <point x="421" y="568"/>
      <point x="369" y="527"/>
      <point x="291" y="527" type="curve" smooth="yes"/>
      <point x="212" y="527"/>
      <point x="172" y="570"/>
      <point x="181" y="654" type="curve"/>
      <point x="251" y="654" type="line"/>
      <point x="245" y="606"/>
      <point x="262" y="584"/>
      <point x="298" y="584" type="curve" smooth="yes"/>
      <point x="336" y="584"/>
      <point x="355" y="609"/>
    </contour>
  </outline>
</glyph>
<glyph name="Gdotaccent" format="1">
  <advance width="669"/>
  <unicode hex="0120"/>
  <outline>
    <contour>
      <point x="337" y="715" type="line"/>
      <point x="430" y="715" type="line"/>
      <point x="440" y="813" type="line"/>
      <point x="347" y="813" type="line"/>
    </contour>
    <contour>
      <point x="642" y="263" type="line"/>
      <point x="651" y="342" type="line"/>
      <point x="373" y="342" type="line"/>
      <point x="364" y="263" type="line"/>
      <point x="509" y="263" type="line"/>
      <point x="505" y="220" type="line" smooth="yes"/>
      <point x="494" y="140"/>
      <point x="431" y="71"/>
      <point x="321" y="71" type="curve" smooth="yes"/>
      <point x="205" y="71"/>
      <point x="131" y="149"/>
      <point x="131" y="296" type="curve" smooth="yes"/>
      <point x="131" y="470"/>
      <point x="235" y="579"/>
      <point x="383" y="579" type="curve" smooth="yes"/>
      <point x="447" y="579"/>
      <point x="499" y="559"/>
      <point x="529" y="536" type="curve"/>
      <point x="539" y="448" type="line"/>
      <point x="614" y="456" type="line"/>
      <point x="610" y="583" type="line"/>
      <point x="568" y="628"/>
      <point x="484" y="660"/>
      <point x="390" y="660" type="curve" smooth="yes"/>
      <point x="174" y="660"/>
      <point x="38" y="493"/>
      <point x="38" y="290" type="curve" smooth="yes"/>
      <point x="38" y="116"/>
      <point x="137" y="-10"/>
      <point x="299" y="-10" type="curve" smooth="yes"/>
      <point x="388" y="-10"/>
      <point x="458" y="29"/>
      <point x="501" y="82" type="curve"/>
      <point x="502" y="0" type="line"/>
      <point x="570" y="0" type="line"/>
      <point x="598" y="263" type="line"/>
    </contour>
  </outline>
</glyph>
<glyph name="gdotaccent" format="1">
  <advance width="517"/>
  <unicode hex="0121"/>
  <outline>
    <contour>
      <point x="387" y="447" type="line"/>
      <point x="525" y="447" type="line"/>
      <point x="519" y="398" type="line"/>
      <point x="495" y="378" type="line"/>
      <point x="449" y="378" type="line"/>
      <point x="404" y="11" type="line" smooth="yes"/>
      <point x="388" y="-121"/>
      <point x="324" y="-223"/>
      <point x="180" y="-223" type="curve" smooth="yes"/>
      <point x="92" y="-223"/>
      <point x="15" y="-180"/>
      <point x="-1" y="-87" type="curve"/>
      <point x="62" y="-55" type="line"/>
      <point x="78" y="-121"/>
      <point x="130" y="-148"/>
      <point x="186" y="-148" type="curve" smooth="yes"/>
      <point x="264" y="-148"/>
      <point x="307" y="-93"/>
      <point x="320" y="13" type="curve" smooth="yes"/>
      <point x="329" y="88" type="line"/>
      <point x="298" y="35"/>
      <point x="249" y="-10"/>
      <point x="174" y="-10" type="curve" smooth="yes"/>
      <point x="76" y="-10"/>
      <point x="26" y="68"/>
      <point x="26" y="177" type="curve" smooth="yes"/>
      <point x="26" y="297"/>
      <point x="87" y="456"/>
      <point x="238" y="456" type="curve" smooth="yes"/>
      <point x="303" y="456"/>
      <point x="349" y="426"/>
      <point x="369" y="376" type="curve"/>
    </contour>
    <contour>
      <point x="248" y="387" type="curve" smooth="yes"/>
      <point x="154" y="387"/>
      <point x="117" y="280"/>
      <point x="117" y="187" type="curve" smooth="yes"/>
      <point x="117" y="107"/>
      <point x="145" y="59"/>
      <point x="203" y="59" type="curve" smooth="yes"/>
      <point x="274" y="59"/>
      <point x="327" y="132"/>
      <point x="342" y="193" type="curve"/>
      <point x="351" y="267" type="line"/>
      <point x="354" y="337"/>
      <point x="311" y="387"/>
    </contour>
    <contour>
      <point x="246" y="547" type="line"/>
      <point x="336" y="547" type="line"/>
      <point x="346" y="650" type="line"/>
      <point x="257" y="650" type="line"/>
    </contour>
  </outline>
</glyph>
<glyph name="Hcircumflex" format="1">
  <advance width="732"/>
  <unicode hex="0124"/>
  <outline>
    <contour>
      <point x="20" y="79" type="line"/>
      <point x="95" y="79" type="line"/>
      <point x="147" y="571" type="line"/>
      <point x="71" y="571" type="line"/>
      <point x="80" y="650" type="line"/>
      <point x="319" y="650" type="line"/>
      <point x="310" y="571" type="line"/>
      <point x="233" y="571" type="line"/>
      <point x="212" y="369" type="line"/>
      <point x="538" y="369" type="line"/>
      <point x="559" y="571" type="line"/>
      <point x="484" y="571" type="line"/>
      <point x="493" y="650" type="line"/>
      <point x="731" y="650" type="line"/>
      <point x="723" y="571" type="line"/>
      <point x="647" y="571" type="line"/>
      <point x="595" y="79" type="line"/>
      <point x="672" y="79" type="line"/>
      <point x="663" y="0" type="line"/>
      <point x="425" y="0" type="line"/>
      <point x="433" y="79" type="line"/>
      <point x="508" y="79" type="line"/>
      <point x="530" y="292" type="line"/>
      <point x="204" y="292" type="line"/>
      <point x="182" y="79" type="line"/>
      <point x="259" y="79" type="line"/>
      <point x="251" y="0" type="line"/>
      <point x="12" y="0" type="line"/>
    </contour>
    <contour>
      <point x="441" y="831" type="line"/>
      <point x="413" y="831" type="line"/>
      <point x="275" y="734" type="line"/>
      <point x="295" y="696" type="line"/>
      <point x="417" y="758" type="line"/>
      <point x="532" y="697" type="line"/>
      <point x="557" y="736" type="line"/>
    </contour>
  </outline>
</glyph>
<glyph name="Hbar" format="1">
  <advance width="733"/>
  <unicode hex="0126"/>
  <outline>
    <contour>
      <point x="434" y="79" type="line"/>
      <point x="509" y="79" type="line"/>
      <point x="531" y="292" type="line"/>
      <point x="205" y="292" type="line"/>
      <point x="183" y="79" type="line"/>
      <point x="260" y="79" type="line"/>
      <point x="252" y="0" type="line"/>
      <point x="13" y="0" type="line"/>
      <point x="21" y="79" type="line"/>
      <point x="96" y="79" type="line"/>
      <point x="135" y="451" type="line"/>
      <point x="61" y="451" type="line"/>
      <point x="67" y="507" type="line"/>
      <point x="141" y="507" type="line"/>
      <point x="148" y="571" type="line"/>
      <point x="72" y="571" type="line"/>
      <point x="81" y="650" type="line"/>
      <point x="320" y="650" type="line"/>
      <point x="311" y="571" type="line"/>
      <point x="234" y="571" type="line"/>
      <point x="228" y="507" type="line"/>
      <point x="554" y="507" type="line"/>
      <point x="560" y="571" type="line"/>
      <point x="485" y="571" type="line"/>
      <point x="494" y="650" type="line"/>
      <point x="732" y="650" type="line"/>
      <point x="724" y="571" type="line"/>
      <point x="648" y="571" type="line"/>
      <point x="641" y="507" type="line"/>
      <point x="717" y="507" type="line"/>
      <point x="711" y="451" type="line"/>
      <point x="635" y="451" type="line"/>
      <point x="596" y="79" type="line"/>
      <point x="673" y="79" type="line"/>
      <point x="664" y="0" type="line"/>
      <point x="426" y="0" type="line"/>
    </contour>
    <contour>
      <point x="213" y="369" type="line"/>
      <point x="539" y="369" type="line"/>
      <point x="548" y="451" type="line"/>
      <point x="222" y="451" type="line"/>
    </contour>
  </outline>
</glyph>
<glyph name="itilde" format="1">
  <advance width="261"/>
  <unicode hex="0129"/>
  <outline>
    <contour>
      <point x="35" y="425" type="line"/>
      <point x="59" y="447" type="line"/>
      <point x="195" y="447" type="line"/>
      <point x="148" y="69" type="line"/>
      <point x="218" y="69" type="line"/>
      <point x="212" y="19" type="line"/>
      <point x="188" y="0" type="line"/>
      <point x="56" y="0" type="line"/>
      <point x="101" y="378" type="line"/>
      <point x="29" y="378" type="line"/>
    </contour>
    <contour>
      <point x="48" y="539" type="line"/>
      <point x="61" y="570"/>
      <point x="81" y="582"/>
      <point x="101" y="582" type="curve" smooth="yes"/>
      <point x="138" y="582"/>
      <point x="167" y="543"/>
      <point x="218" y="543" type="curve" smooth="yes"/>
      <point x="269" y="543"/>
      <point x="293" y="591"/>
      <point x="305" y="646" type="curve"/>
      <point x="265" y="656" type="line"/>
      <point x="253" y="622"/>
      <point x="234" y="614"/>
      <point x="216" y="614" type="curve" smooth="yes"/>
      <point x="173" y="614"/>
      <point x="147" y="651"/>
      <point x="104" y="651" type="curve" smooth="yes"/>
      <point x="50" y="651"/>
      <point x="18" y="588"/>
      <point x="12" y="552" type="curve"/>
    </contour>
  </outline>
</glyph>
<glyph name="Imacron" format="1">
  <advance width="319"/>
  <unicode hex="012A"/>
  <outline>
    <contour>
      <point x="19" y="79" type="line"/>
      <point x="95" y="79" type="line"/>
      <point x="147" y="571" type="line"/>
      <point x="71" y="571" type="line"/>
      <point x="79" y="650" type="line"/>
      <point x="318" y="650" type="line"/>
      <point x="310" y="571" type="line"/>
      <point x="234" y="571" type="line"/>
      <point x="182" y="79" type="line"/>
      <point x="259" y="79" type="line"/>
      <point x="250" y="0" type="line"/>
      <point x="11" y="0" type="line"/>
    </contour>
    <contour>
      <point x="75" y="798" type="line"/>
      <point x="357" y="798" type="line"/>
      <point x="349" y="729" type="line"/>
      <point x="68" y="729" type="line"/>
    </contour>
  </outline>
</glyph>
<glyph name="imacron" format="1">
  <advance width="261"/>
  <unicode hex="012B"/>
  <outline>
    <contour>
      <point x="35" y="425" type="line"/>
      <point x="59" y="447" type="line"/>
      <point x="195" y="447" type="line"/>
      <point x="148" y="69" type="line"/>
      <point x="218" y="69" type="line"/>
      <point x="212" y="19" type="line"/>
      <point x="188" y="0" type="line"/>
      <point x="56" y="0" type="line"/>
      <point x="101" y="378" type="line"/>
      <point x="29" y="378" type="line"/>
    </contour>
    <contour>
      <point x="32" y="625" type="line"/>
      <point x="279" y="625" type="line"/>
      <point x="272" y="556" type="line"/>
      <point x="25" y="556" type="line"/>
    </contour>
  </outline>
</glyph>
<glyph name="Ibreve" format="1">
  <advance width="319"/>
  <unicode hex="012C"/>
  <outline>
    <contour>
      <point x="19" y="79" type="line"/>
      <point x="95" y="79" type="line"/>
      <point x="147" y="571" type="line"/>
      <point x="71" y="571" type="line"/>
      <point x="79" y="650" type="line"/>
      <point x="318" y="650" type="line"/>
      <point x="310" y="571" type="line"/>
      <point x="234" y="571" type="line"/>
      <point x="182" y="79" type="line"/>
      <point x="259" y="79" type="line"/>
      <point x="250" y="0" type="line"/>
      <point x="11" y="0" type="line"/>
    </contour>
    <contour>
      <point x="267" y="821" type="curve"/>
      <point x="337" y="821" type="line"/>
      <point x="328" y="735"/>
      <point x="277" y="698"/>
      <point x="199" y="698" type="curve" smooth="yes"/>
      <point x="120" y="698"/>
      <point x="79" y="737"/>
      <point x="88" y="821" type="curve"/>
      <point x="157" y="821" type="line"/>
      <point x="152" y="773"/>
      <point x="169" y="754"/>
      <point x="205" y="754" type="curve" smooth="yes"/>
      <point x="244" y="754"/>
      <point x="262" y="777"/>
    </contour>
  </outline>
</glyph>
<glyph name="Iogonek" format="1">
  <advance width="319"/>
  <unicode hex="012E"/>
  <outline>
    <contour>
      <point x="199" y="-189" type="line"/>
      <point x="176" y="-200"/>
      <point x="148" y="-209"/>
      <point x="116" y="-209" type="curve" smooth="yes"/>
      <point x="58" y="-209"/>
      <point x="19" y="-181"/>
      <point x="19" y="-126" type="curve" smooth="yes"/>
      <point x="19" y="-73"/>
      <point x="56" y="-27"/>
      <point x="103" y="0" type="curve"/>
      <point x="11" y="0" type="line"/>
      <point x="19" y="79" type="line"/>
      <point x="95" y="79" type="line"/>
      <point x="147" y="571" type="line"/>
      <point x="71" y="571" type="line"/>
      <point x="79" y="650" type="line"/>
      <point x="318" y="650" type="line"/>
      <point x="310" y="571" type="line"/>
      <point x="234" y="571" type="line"/>
      <point x="182" y="79" type="line"/>
      <point x="259" y="79" type="line"/>
      <point x="250" y="0" type="line"/>
      <point x="164" y="0" type="line"/>
      <point x="110" y="-32"/>
      <point x="97" y="-69"/>
      <point x="97" y="-98" type="curve" smooth="yes"/>
      <point x="97" y="-134"/>
      <point x="115" y="-144"/>
      <point x="145" y="-144" type="curve" smooth="yes"/>
      <point x="161" y="-144"/>
      <point x="179" y="-140"/>
      <point x="197" y="-130" type="curve"/>
    </contour>
  </outline>
</glyph>
<glyph name="Kcommaaccent" format="1">
  <advance width="630"/>
  <unicode hex="0136"/>
  <outline>
    <contour>
      <point x="362" y="79" type="line"/>
      <point x="430" y="79" type="line"/>
      <point x="301" y="292" type="line"/>
      <point x="204" y="292" type="line"/>
      <point x="182" y="79" type="line"/>
      <point x="249" y="79" type="line"/>
      <point x="241" y="0" type="line"/>
      <point x="11" y="0" type="line"/>
      <point x="19" y="79" type="line"/>
      <point x="95" y="79" type="line"/>
      <point x="147" y="571" type="line"/>
      <point x="71" y="571" type="line"/>
      <point x="79" y="650" type="line"/>
      <point x="311" y="650" type="line"/>
      <point x="303" y="571" type="line"/>
      <point x="233" y="571" type="line"/>
      <point x="212" y="368" type="line"/>
      <point x="307" y="368" type="line"/>
      <point x="475" y="572" type="line"/>
      <point x="409" y="572" type="line"/>
      <point x="418" y="651" type="line"/>
      <point x="650" y="651" type="line"/>
      <point x="642" y="572" type="line"/>
      <point x="572" y="572" type="line"/>
      <point x="373" y="338" type="line"/>
      <point x="533" y="79" type="line"/>
      <point x="602" y="79" type="line"/>
      <point x="594" y="0" type="line"/>
      <point x="353" y="0" type="line"/>
    </contour>
    <contour>
      <point x="333" y="-62" type="line"/>
      <point x="251" y="-62" type="line"/>
      <point x="229" y="-216" type="line"/>
      <point x="296" y="-216" type="line"/>
    </contour>
  </outline>
</glyph>
<glyph name="Lacute" format="1">
  <advance width="530"/>
  <unicode hex="0139"/>
  <outline>
    <contour>
      <point x="346" y="737" type="line"/>
      <point x="327" y="819" type="line"/>
      <point x="128" y="742" type="line"/>
      <point x="138" y="699" type="line"/>
    </contour>
    <contour>
      <point x="472" y="0" type="line"/>
      <point x="514" y="214" type="line"/>
      <point x="438" y="221" type="line"/>
      <point x="404" y="79" type="line"/>
      <point x="183" y="79" type="line"/>
      <point x="235" y="571" type="line"/>
      <point x="337" y="571" type="line"/>
      <point x="345" y="650" type="line"/>
      <point x="78" y="650" type="line"/>
      <point x="70" y="571" type="line"/>
      <point x="147" y="571" type="line"/>
      <point x="95" y="79" type="line"/>
      <point x="18" y="79" type="line"/>
      <point x="10" y="0" type="line"/>
    </contour>
  </outline>
</glyph>
<glyph name="Lcommaaccent" format="1">
  <advance width="530"/>
  <unicode hex="013B"/>
  <outline>
    <contour>
      <point x="292" y="-62" type="line"/>
      <point x="210" y="-62" type="line"/>
      <point x="188" y="-216" type="line"/>
      <point x="255" y="-216" type="line"/>
    </contour>
    <contour>
      <point x="472" y="0" type="line"/>
      <point x="514" y="214" type="line"/>
      <point x="438" y="221" type="line"/>
      <point x="404" y="79" type="line"/>
      <point x="183" y="79" type="line"/>
      <point x="235" y="571" type="line"/>
      <point x="337" y="571" type="line"/>
      <point x="345" y="650" type="line"/>
      <point x="78" y="650" type="line"/>
      <point x="70" y="571" type="line"/>
      <point x="147" y="571" type="line"/>
      <point x="95" y="79" type="line"/>
      <point x="18" y="79" type="line"/>
      <point x="10" y="0" type="line"/>
    </contour>
  </outline>
</glyph>
<glyph name="Lcaron" format="1">
  <advance width="530"/>
  <unicode hex="013D"/>
  <outline>
    <contour>
      <point x="484" y="681" type="line"/>
      <point x="403" y="681" type="line"/>
      <point x="367" y="457" type="line"/>
      <point x="434" y="457" type="line"/>
    </contour>
    <contour>
      <point x="472" y="0" type="line"/>
      <point x="514" y="214" type="line"/>
      <point x="438" y="221" type="line"/>
      <point x="404" y="79" type="line"/>
      <point x="183" y="79" type="line"/>
      <point x="235" y="571" type="line"/>
      <point x="337" y="571" type="line"/>
      <point x="345" y="650" type="line"/>
      <point x="78" y="650" type="line"/>
      <point x="70" y="571" type="line"/>
      <point x="147" y="571" type="line"/>
      <point x="95" y="79" type="line"/>
      <point x="18" y="79" type="line"/>
      <point x="10" y="0" type="line"/>
    </contour>
  </outline>
</glyph>
<glyph name="Ldot" format="1">
  <advance width="530"/>
  <unicode hex="013F"/>
  <outline>
    <contour>
      <point x="472" y="0" type="line"/>
      <point x="514" y="214" type="line"/>
      <point x="438" y="221" type="line"/>
      <point x="404" y="79" type="line"/>
      <point x="183" y="79" type="line"/>
      <point x="235" y="571" type="line"/>
      <point x="337" y="571" type="line"/>
      <point x="345" y="650" type="line"/>
      <point x="78" y="650" type="line"/>
      <point x="70" y="571" type="line"/>
      <point x="147" y="571" type="line"/>
      <point x="95" y="79" type="line"/>
      <point x="18" y="79" type="line"/>
      <point x="10" y="0" type="line"/>
    </contour>
    <contour>
      <point x="312" y="287" type="line"/>
      <point x="402" y="287" type="line"/>
      <point x="412" y="390" type="line"/>
      <point x="323" y="390" type="line"/>
    </contour>
  </outline>
</glyph>
<glyph name="lslash" format="1">
  <advance width="268"/>
  <unicode hex="0142"/>
  <outline>
    <contour>
      <point x="23" y="317" type="line"/>
      <point x="103" y="353" type="line"/>
      <point x="135" y="619" type="line"/>
      <point x="63" y="619" type="line"/>
      <point x="69" y="667" type="line"/>
      <point x="93" y="688" type="line"/>
      <point x="229" y="688" type="line"/>
      <point x="193" y="393" type="line"/>
      <point x="273" y="429" type="line"/>
      <point x="266" y="358" type="line"/>
      <point x="184" y="321" type="line"/>
      <point x="153" y="69" type="line"/>
      <point x="223" y="69" type="line"/>
      <point x="216" y="19" type="line"/>
      <point x="193" y="0" type="line"/>
      <point x="60" y="0" type="line"/>
      <point x="94" y="281" type="line"/>
      <point x="15" y="246" type="line"/>
    </contour>
  </outline>
</glyph>
<glyph name="Ncaron" format="1">
  <advance width="720"/>
  <unicode hex="0147"/>
  <outline>
    <contour>
      <point x="477" y="650" type="line"/>
      <point x="729" y="650" type="line"/>
      <point x="721" y="571" type="line"/>
      <point x="644" y="571" type="line"/>
      <point x="585" y="0" type="line"/>
      <point x="532" y="0" type="line"/>
      <point x="224" y="483" type="line"/>
      <point x="221" y="483" type="line"/>
      <point x="178" y="79" type="line"/>
      <point x="276" y="79" type="line"/>
      <point x="268" y="0" type="line"/>
      <point x="16" y="0" type="line"/>
      <point x="24" y="79" type="line"/>
      <point x="97" y="79" type="line"/>
      <point x="149" y="571" type="line"/>
      <point x="67" y="571" type="line"/>
      <point x="75" y="650" type="line"/>
      <point x="219" y="650" type="line"/>
      <point x="518" y="182" type="line"/>
      <point x="521" y="182" type="line"/>
      <point x="561" y="571" type="line"/>
      <point x="468" y="571" type="line"/>
    </contour>
    <contour>
      <point x="385" y="696" type="line"/>
      <point x="413" y="696" type="line"/>
      <point x="550" y="792" type="line"/>
      <point x="531" y="831" type="line"/>
      <point x="408" y="767" type="line"/>
      <point x="293" y="829" type="line"/>
      <point x="269" y="790" type="line"/>
    </contour>
  </outline>
</glyph>
<glyph name="ncaron" format="1">
  <advance width="528"/>
  <unicode hex="0148"/>
  <outline>
    <contour>
      <point x="57" y="447" type="line"/>
      <point x="178" y="447" type="line"/>
      <point x="179" y="361" type="line"/>
      <point x="211" y="418"/>
      <point x="259" y="456"/>
      <point x="328" y="456" type="curve" smooth="yes"/>
      <point x="411" y="456"/>
      <point x="470" y="405"/>
      <point x="456" y="291" type="curve" smooth="yes"/>
      <point x="429" y="69" type="line"/>
      <point x="499" y="69" type="line"/>
      <point x="493" y="19" type="line"/>
      <point x="469" y="0" type="line"/>
      <point x="338" y="0" type="line"/>
      <point x="369" y="261" type="line" smooth="yes"/>
      <point x="380" y="352"/>
      <point x="351" y="387"/>
      <point x="291" y="387" type="curve" smooth="yes"/>
      <point x="222" y="387"/>
      <point x="181" y="331"/>
      <point x="170" y="268" type="curve"/>
      <point x="138" y="0" type="line"/>
      <point x="54" y="0" type="line"/>
      <point x="99" y="378" type="line"/>
      <point x="26" y="378" type="line"/>
      <point x="32" y="425" type="line"/>
    </contour>
    <contour>
      <point x="285" y="515" type="line"/>
      <point x="313" y="515" type="line"/>
      <point x="449" y="636" type="line"/>
      <point x="424" y="674" type="line"/>
      <point x="309" y="593" type="line"/>
      <point x="207" y="672" type="line"/>
      <point x="175" y="636" type="line"/>
    </contour>
  </outline>
</glyph>
<glyph name="napostrophe" format="1">
  <advance width="528"/>
  <unicode hex="0149"/>
  <outline>
    <contour>
      <point x="57" y="447" type="line"/>
      <point x="178" y="447" type="line"/>
      <point x="179" y="361" type="line"/>
      <point x="211" y="418"/>
      <point x="259" y="456"/>
      <point x="328" y="456" type="curve" smooth="yes"/>
      <point x="411" y="456"/>
      <point x="470" y="405"/>
      <point x="456" y="291" type="curve" smooth="yes"/>
      <point x="429" y="69" type="line"/>
      <point x="499" y="69" type="line"/>
      <point x="493" y="19" type="line"/>
      <point x="469" y="0" type="line"/>
      <point x="338" y="0" type="line"/>
      <point x="369" y="261" type="line" smooth="yes"/>
      <point x="380" y="352"/>
      <point x="351" y="387"/>
      <point x="291" y="387" type="curve" smooth="yes"/>
      <point x="222" y="387"/>
      <point x="181" y="331"/>
      <point x="170" y="268" type="curve"/>
      <point x="138" y="0" type="line"/>
      <point x="54" y="0" type="line"/>
      <point x="99" y="378" type="line"/>
      <point x="26" y="378" type="line"/>
      <point x="32" y="425" type="line"/>
    </contour>
    <contour>
      <point x="37" y="507" type="line"/>
      <point x="114" y="507" type="line"/>
      <point x="184" y="709" type="line"/>
      <point x="108" y="709" type="line"/>
    </contour>
  </outline>
</glyph>
<glyph name="eng" format="1">
  <advance width="514"/>
  <unicode hex="014B"/>
  <outline>
    <contour>
      <point x="32" y="425" type="line"/>
      <point x="57" y="447" type="line"/>
      <point x="178" y="447" type="line"/>
      <point x="179" y="361" type="line"/>
      <point x="211" y="418"/>
      <point x="259" y="456"/>
      <point x="328" y="456" type="curve" smooth="yes"/>
      <point x="411" y="456"/>
      <point x="470" y="405"/>
      <point x="456" y="291" type="curve" smooth="yes"/>
      <point x="419" y="-19" type="line" smooth="yes"/>
      <point x="403" y="-153"/>
      <point x="354" y="-222"/>
      <point x="273" y="-223" type="curve" smooth="yes"/>
      <point x="242" y="-223"/>
      <point x="215" y="-214"/>
      <point x="192" y="-201" type="curve"/>
      <point x="196" y="-141" type="line"/>
      <point x="263" y="-169"/>
      <point x="316" y="-163"/>
      <point x="334" y="-19" type="curve" smooth="yes"/>
      <point x="369" y="261" type="line" smooth="yes"/>
      <point x="380" y="352"/>
      <point x="351" y="387"/>
      <point x="291" y="387" type="curve" smooth="yes"/>
      <point x="222" y="387"/>
      <point x="181" y="330"/>
      <point x="170" y="268" type="curve"/>
      <point x="138" y="0" type="line"/>
      <point x="54" y="0" type="line"/>
      <point x="99" y="378" type="line"/>
      <point x="26" y="378" type="line"/>
    </contour>
  </outline>
</glyph>
<glyph name="ohungarumlaut" format="1">
  <advance width="481"/>
  <unicode hex="0151"/>
  <outline>
    <contour>
      <point x="502" y="617" type="line"/>
      <point x="462" y="688" type="line"/>
      <point x="294" y="553" type="line"/>
      <point x="315" y="516" type="line"/>
    </contour>
    <contour>
      <point x="352" y="673" type="line"/>
      <point x="289" y="722" type="line"/>
      <point x="172" y="541" type="line"/>
      <point x="205" y="516" type="line"/>
    </contour>
    <contour>
      <point x="26" y="191" type="curve" smooth="yes"/>
      <point x="26" y="330"/>
      <point x="104" y="456"/>
      <point x="260" y="456" type="curve" smooth="yes"/>
      <point x="391" y="456"/>
      <point x="443" y="366"/>
      <point x="443" y="252" type="curve" smooth="yes"/>
      <point x="443" y="102"/>
      <point x="354" y="-10"/>
      <point x="209" y="-10" type="curve" smooth="yes"/>
      <point x="87" y="-10"/>
      <point x="26" y="69"/>
    </contour>
    <contour>
      <point x="118" y="197" type="curve" smooth="yes"/>
      <point x="118" y="115"/>
      <point x="140" y="59"/>
      <point x="217" y="59" type="curve" smooth="yes"/>
      <point x="313" y="59"/>
      <point x="352" y="146"/>
      <point x="352" y="249" type="curve" smooth="yes"/>
      <point x="352" y="335"/>
      <point x="326" y="387"/>
      <point x="250" y="387" type="curve" smooth="yes"/>
      <point x="162" y="387"/>
      <point x="118" y="313"/>
    </contour>
  </outline>
</glyph>
<glyph name="Rcommaaccent" format="1">
  <advance width="603"/>
  <unicode hex="0156"/>
  <outline>
    <contour>
      <point x="20" y="79" type="line"/>
      <point x="95" y="79" type="line"/>
      <point x="147" y="571" type="line"/>
      <point x="71" y="571" type="line"/>
      <point x="80" y="650" type="line"/>
      <point x="350" y="650" type="line" smooth="yes"/>
      <point x="493" y="650"/>
      <point x="562" y="582"/>
      <point x="562" y="481" type="curve" smooth="yes"/>
      <point x="562" y="380"/>
      <point x="506" y="315"/>
      <point x="409" y="287" type="curve"/>
      <point x="494" y="79" type="line"/>
      <point x="573" y="79" type="line"/>
      <point x="564" y="0" type="line"/>
      <point x="428" y="0" type="line"/>
      <point x="324" y="265" type="line"/>
      <point x="203" y="265" type="line"/>
      <point x="183" y="79" type="line"/>
      <point x="263" y="79" type="line"/>
      <point x="255" y="0" type="line"/>
      <point x="12" y="0" type="line"/>
    </contour>
    <contour>
      <point x="310" y="339" type="line" smooth="yes"/>
      <point x="426" y="339"/>
      <point x="468" y="396"/>
      <point x="468" y="473" type="curve" smooth="yes"/>
      <point x="468" y="542"/>
      <point x="426" y="571"/>
      <point x="328" y="571" type="curve" smooth="yes"/>
      <point x="235" y="571" type="line"/>
      <point x="210" y="339" type="line"/>
    </contour>
    <contour>
      <point x="342" y="-62" type="line"/>
      <point x="260" y="-62" type="line"/>
      <point x="238" y="-216" type="line"/>
      <point x="305" y="-216" type="line"/>
    </contour>
  </outline>
</glyph>
<glyph name="rcommaaccent" format="1">
  <advance width="347"/>
  <unicode hex="0157"/>
  <outline>
    <contour>
      <point x="67" y="447" type="line"/>
      <point x="183" y="447" type="line"/>
      <point x="184" y="340" type="line"/>
      <point x="207" y="401"/>
      <point x="245" y="457"/>
      <point x="299" y="457" type="curve" smooth="yes"/>
      <point x="319" y="457"/>
      <point x="335" y="451"/>
      <point x="352" y="439" type="curve"/>
      <point x="337" y="350" type="line"/>
      <point x="316" y="361"/>
      <point x="300" y="365"/>
      <point x="284" y="365" type="curve" smooth="yes"/>
      <point x="234" y="365"/>
      <point x="195" y="316"/>
      <point x="181" y="257" type="curve"/>
      <point x="157" y="69" type="line"/>
      <point x="247" y="69" type="line"/>
      <point x="241" y="21" type="line"/>
      <point x="217" y="0" type="line"/>
      <point x="-3" y="0" type="line"/>
      <point x="4" y="47" type="line"/>
      <point x="27" y="69" type="line"/>
      <point x="71" y="69" type="line"/>
      <point x="109" y="378" type="line"/>
      <point x="37" y="378" type="line"/>
      <point x="43" y="425" type="line"/>
    </contour>
    <contour>
      <point x="135" y="-62" type="line"/>
      <point x="53" y="-62" type="line"/>
      <point x="31" y="-216" type="line"/>
      <point x="98" y="-216" type="line"/>
    </contour>
  </outline>
</glyph>
<glyph name="Rcaron" format="1">
  <advance width="603"/>
  <unicode hex="0158"/>
  <outline>
    <contour>
      <point x="20" y="79" type="line"/>
      <point x="95" y="79" type="line"/>
      <point x="147" y="571" type="line"/>
      <point x="71" y="571" type="line"/>
      <point x="80" y="650" type="line"/>
      <point x="350" y="650" type="line" smooth="yes"/>
      <point x="493" y="650"/>
      <point x="562" y="582"/>
      <point x="562" y="481" type="curve" smooth="yes"/>
      <point x="562" y="380"/>
      <point x="506" y="315"/>
      <point x="409" y="287" type="curve"/>
      <point x="494" y="79" type="line"/>
      <point x="573" y="79" type="line"/>
      <point x="564" y="0" type="line"/>
      <point x="428" y="0" type="line"/>
      <point x="324" y="265" type="line"/>
      <point x="203" y="265" type="line"/>
      <point x="183" y="79" type="line"/>
      <point x="263" y="79" type="line"/>
      <point x="255" y="0" type="line"/>
      <point x="12" y="0" type="line"/>
    </contour>
    <contour>
      <point x="310" y="339" type="line" smooth="yes"/>
      <point x="426" y="339"/>
      <point x="468" y="396"/>
      <point x="468" y="473" type="curve" smooth="yes"/>
      <point x="468" y="542"/>
      <point x="426" y="571"/>
      <point x="328" y="571" type="curve" smooth="yes"/>
      <point x="235" y="571" type="line"/>
      <point x="210" y="339" type="line"/>
    </contour>
    <contour>
      <point x="317" y="696" type="line"/>
      <point x="345" y="696" type="line"/>
      <point x="482" y="792" type="line"/>
      <point x="463" y="831" type="line"/>
      <point x="340" y="767" type="line"/>
      <point x="225" y="829" type="line"/>
      <point x="201" y="790" type="line"/>
    </contour>
  </outline>
</glyph>
<glyph name="scircumflex" format="1">
  <advance width="425"/>
  <unicode hex="015D"/>
  <outline>
    <contour>
      <point x="263" y="674" type="line"/>
      <point x="235" y="674" type="line"/>
      <point x="99" y="552" type="line"/>
      <point x="124" y="515" type="line"/>
      <point x="238" y="597" type="line"/>
      <point x="342" y="516" type="line"/>
      <point x="374" y="552" type="line"/>
    </contour>
    <contour>
      <point x="186" y="59" type="curve" smooth="yes"/>
      <point x="250" y="59"/>
      <point x="283" y="83"/>
      <point x="283" y="126" type="curve" smooth="yes"/>
      <point x="283" y="176"/>
      <point x="234" y="185"/>
      <point x="167" y="203" type="curve" smooth="yes"/>
      <point x="109" y="218"/>
      <point x="50" y="241"/>
      <point x="50" y="319" type="curve" smooth="yes"/>
      <point x="50" y="412"/>
      <point x="132" y="456"/>
      <point x="220" y="456" type="curve"/>
      <point x="276" y="456"/>
      <point x="338" y="440"/>
      <point x="379" y="415" type="curve"/>
      <point x="378" y="307" type="line"/>
      <point x="310" y="299" type="line"/>
      <point x="307" y="366" type="line"/>
      <point x="282" y="378"/>
      <point x="256" y="387"/>
      <point x="224" y="387" type="curve"/>
      <point x="174" y="387"/>
      <point x="138" y="364"/>
      <point x="138" y="326" type="curve" smooth="yes"/>
      <point x="138" y="290"/>
      <point x="170" y="278"/>
      <point x="233" y="262" type="curve" smooth="yes"/>
      <point x="294" y="246"/>
      <point x="372" y="226"/>
      <point x="372" y="133" type="curve" smooth="yes"/>
      <point x="372" y="41"/>
      <point x="297" y="-10"/>
      <point x="194" y="-10" type="curve"/>
      <point x="135" y="-10"/>
      <point x="56" y="7"/>
      <point x="14" y="34" type="curve"/>
      <point x="40" y="142" type="line"/>
      <point x="108" y="135" type="line"/>
      <point x="99" y="76" type="line"/>
      <point x="125" y="63"/>
      <point x="159" y="59"/>
    </contour>
  </outline>
</glyph>
<glyph name="Scedilla" format="1">
  <advance width="527"/>
  <unicode hex="015E"/>
  <outline>
    <contour>
      <point x="478" y="197" type="curve" smooth="yes"/>
      <point x="478" y="74"/>
      <point x="401" y="1"/>
      <point x="267" y="-9" type="curve"/>
      <point x="262" y="-45" type="line"/>
      <point x="270" y="-45" type="line" smooth="yes"/>
      <point x="327" y="-45"/>
      <point x="349" y="-76"/>
      <point x="349" y="-117" type="curve" smooth="yes"/>
      <point x="349" y="-182"/>
      <point x="289" y="-209"/>
      <point x="227" y="-209" type="curve" smooth="yes"/>
      <point x="188" y="-209"/>
      <point x="151" y="-199"/>
      <point x="131" y="-179" type="curve"/>
      <point x="154" y="-130" type="line"/>
      <point x="169" y="-141"/>
      <point x="195" y="-153"/>
      <point x="226" y="-153" type="curve" smooth="yes"/>
      <point x="257" y="-153"/>
      <point x="275" y="-141"/>
      <point x="275" y="-115" type="curve" smooth="yes"/>
      <point x="275" y="-89"/>
      <point x="259" y="-82"/>
      <point x="228" y="-82" type="curve" smooth="yes"/>
      <point x="197" y="-82" type="line"/>
      <point x="206" y="-9" type="line"/>
      <point x="131" y="-5"/>
      <point x="57" y="15"/>
      <point x="21" y="47" type="curve"/>
      <point x="50" y="185" type="line"/>
      <point x="121" y="178" type="line"/>
      <point x="111" y="97" type="line"/>
      <point x="150" y="75"/>
      <point x="197" y="69"/>
      <point x="230" y="69" type="curve" smooth="yes"/>
      <point x="320" y="69"/>
      <point x="382" y="101"/>
      <point x="382" y="188" type="curve" smooth="yes"/>
      <point x="382" y="274"/>
      <point x="322" y="284"/>
      <point x="247" y="300" type="curve" smooth="yes"/>
      <point x="163" y="319"/>
      <point x="72" y="349"/>
      <point x="72" y="469" type="curve" smooth="yes"/>
      <point x="72" y="605"/>
      <point x="189" y="660"/>
      <point x="301" y="660" type="curve" smooth="yes"/>
      <point x="376" y="660"/>
      <point x="454" y="636"/>
      <point x="490" y="601" type="curve"/>
      <point x="482" y="468" type="line"/>
      <point x="410" y="461" type="line"/>
      <point x="409" y="552" type="line"/>
      <point x="373" y="574"/>
      <point x="333" y="580"/>
      <point x="301" y="580" type="curve" smooth="yes"/>
      <point x="220" y="580"/>
      <point x="166" y="544"/>
      <point x="166" y="478" type="curve" smooth="yes"/>
      <point x="166" y="410"/>
      <point x="221" y="395"/>
      <point x="288" y="379" type="curve" smooth="yes"/>
      <point x="383" y="357"/>
      <point x="478" y="333"/>
    </contour>
  </outline>
</glyph>
<glyph name="scedilla" format="1">
  <advance width="425"/>
  <unicode hex="015F"/>
  <outline>
    <contour>
      <point x="186" y="59" type="curve" smooth="yes"/>
      <point x="250" y="59"/>
      <point x="283" y="83"/>
      <point x="283" y="126" type="curve" smooth="yes"/>
      <point x="283" y="176"/>
      <point x="234" y="185"/>
      <point x="167" y="203" type="curve" smooth="yes"/>
      <point x="109" y="218"/>
      <point x="50" y="241"/>
      <point x="50" y="319" type="curve" smooth="yes"/>
      <point x="50" y="412"/>
      <point x="132" y="456"/>
      <point x="220" y="456" type="curve" smooth="yes"/>
      <point x="276" y="456"/>
      <point x="338" y="440"/>
      <point x="379" y="415" type="curve"/>
      <point x="378" y="307" type="line"/>
      <point x="310" y="299" type="line"/>
      <point x="307" y="366" type="line"/>
      <point x="282" y="378"/>
      <point x="256" y="387"/>
      <point x="224" y="387" type="curve" smooth="yes"/>
      <point x="174" y="387"/>
      <point x="138" y="364"/>
      <point x="138" y="326" type="curve" smooth="yes"/>
      <point x="138" y="290"/>
      <point x="170" y="278"/>
      <point x="233" y="262" type="curve" smooth="yes"/>
      <point x="294" y="246"/>
      <point x="372" y="226"/>
      <point x="372" y="133" type="curve" smooth="yes"/>
      <point x="372" y="46"/>
      <point x="305" y="-4"/>
      <point x="212" y="-9" type="curve"/>
      <point x="207" y="-45" type="line"/>
      <point x="215" y="-45" type="line" smooth="yes"/>
      <point x="272" y="-45"/>
      <point x="294" y="-76"/>
      <point x="294" y="-117" type="curve" smooth="yes"/>
      <point x="294" y="-182"/>
      <point x="234" y="-209"/>
      <point x="172" y="-209" type="curve" smooth="yes"/>
      <point x="133" y="-209"/>
      <point x="96" y="-199"/>
      <point x="76" y="-179" type="curve"/>
      <point x="99" y="-130" type="line"/>
      <point x="114" y="-141"/>
      <point x="140" y="-153"/>
      <point x="171" y="-153" type="curve" smooth="yes"/>
      <point x="202" y="-153"/>
      <point x="220" y="-141"/>
      <point x="220" y="-115" type="curve" smooth="yes"/>
      <point x="220" y="-89"/>
      <point x="204" y="-82"/>
      <point x="173" y="-82" type="curve" smooth="yes"/>
      <point x="142" y="-82" type="line"/>
      <point x="151" y="-7" type="line"/>
      <point x="101" y="-2"/>
      <point x="46" y="13"/>
      <point x="14" y="34" type="curve"/>
      <point x="40" y="142" type="line"/>
      <point x="108" y="135" type="line"/>
      <point x="99" y="76" type="line"/>
      <point x="125" y="63"/>
      <point x="159" y="59"/>
    </contour>
  </outline>
</glyph>
<glyph name="Tcommaaccent" format="1">
  <advance width="612"/>
  <unicode hex="0162"/>
  <outline>
    <contour>
      <point x="310" y="-62" type="line"/>
      <point x="228" y="-62" type="line"/>
      <point x="206" y="-216" type="line"/>
      <point x="273" y="-216" type="line"/>
    </contour>
    <contour>
      <point x="607" y="446" type="line"/>
      <point x="609" y="650" type="line"/>
      <point x="79" y="650" type="line"/>
      <point x="40" y="446" type="line"/>
      <point x="116" y="439" type="line"/>
      <point x="149" y="571" type="line"/>
      <point x="293" y="571" type="line"/>
      <point x="242" y="79" type="line"/>
      <point x="135" y="79" type="line"/>
      <point x="127" y="0" type="line"/>
      <point x="430" y="0" type="line"/>
      <point x="438" y="79" type="line"/>
      <point x="329" y="79" type="line"/>
      <point x="380" y="571" type="line"/>
      <point x="523" y="571" type="line"/>
      <point x="529" y="439" type="line"/>
    </contour>
  </outline>
</glyph>
<glyph name="Tbar" format="1">
  <advance width="613"/>
  <unicode hex="0166"/>
  <outline>
    <contour>
      <point x="607" y="446" type="line"/>
      <point x="609" y="650" type="line"/>
      <point x="79" y="650" type="line"/>
      <point x="40" y="446" type="line"/>
      <point x="116" y="439" type="line"/>
      <point x="149" y="571" type="line"/>
      <point x="293" y="571" type="line"/>
      <point x="268" y="331" type="line"/>
      <point x="125" y="331" type="line"/>
      <point x="120" y="275" type="line"/>
      <point x="262" y="275" type="line"/>
      <point x="242" y="79" type="line"/>
      <point x="135" y="79" type="line"/>
      <point x="127" y="0" type="line"/>
      <point x="430" y="0" type="line"/>
      <point x="438" y="79" type="line"/>
      <point x="329" y="79" type="line"/>
      <point x="349" y="275" type="line"/>
      <point x="488" y="275" type="line"/>
      <point x="494" y="331" type="line"/>
      <point x="355" y="331" type="line"/>
      <point x="380" y="571" type="line"/>
      <point x="523" y="571" type="line"/>
      <point x="529" y="439" type="line"/>
    </contour>
  </outline>
</glyph>
<glyph name="tbar" format="1">
  <advance width="351"/>
  <unicode hex="0167"/>
  <outline>
    <contour>
      <point x="29" y="423" type="line"/>
      <point x="55" y="447" type="line"/>
      <point x="102" y="447" type="line"/>
      <point x="116" y="560" type="line"/>
      <point x="144" y="588" type="line"/>
      <point x="204" y="588" type="line"/>
      <point x="187" y="447" type="line"/>
      <point x="333" y="447" type="line"/>
      <point x="327" y="402" type="line"/>
      <point x="301" y="378" type="line"/>
      <point x="178" y="378" type="line"/>
      <point x="166" y="282" type="line"/>
      <point x="316" y="282" type="line"/>
      <point x="311" y="252" type="line"/>
      <point x="285" y="229" type="line"/>
      <point x="160" y="229" type="line"/>
      <point x="149" y="140" type="line" smooth="yes"/>
      <point x="142" y="84"/>
      <point x="157" y="59"/>
      <point x="196" y="59" type="curve" smooth="yes"/>
      <point x="224" y="59"/>
      <point x="247" y="70"/>
      <point x="268" y="143" type="curve"/>
      <point x="328" y="122" type="line"/>
      <point x="304" y="31"/>
      <point x="265" y="-10"/>
      <point x="187" y="-10" type="curve" smooth="yes"/>
      <point x="100" y="-10"/>
      <point x="53" y="44"/>
      <point x="64" y="132" type="curve" smooth="yes"/>
      <point x="76" y="229" type="line"/>
      <point x="11" y="229" type="line"/>
      <point x="15" y="259" type="line"/>
      <point x="42" y="282" type="line"/>
      <point x="82" y="282" type="line"/>
      <point x="94" y="378" type="line"/>
      <point x="23" y="378" type="line"/>
    </contour>
  </outline>
</glyph>
<glyph name="Uring" format="1">
  <advance width="694"/>
  <unicode hex="016E"/>
  <outline>
    <contour>
      <point x="474" y="650" type="line"/>
      <point x="700" y="650" type="line"/>
      <point x="692" y="571" type="line"/>
      <point x="631" y="571" type="line"/>
      <point x="600" y="267" type="line"/>
      <point x="585" y="129"/>
      <point x="519" y="-10"/>
      <point x="323" y="-10" type="curve" smooth="yes"/>
      <point x="134" y="-10"/>
      <point x="77" y="116"/>
      <point x="92" y="256" type="curve" smooth="yes"/>
      <point x="125" y="571" type="line"/>
      <point x="63" y="571" type="line"/>
      <point x="71" y="650" type="line"/>
      <point x="305" y="650" type="line"/>
      <point x="296" y="571" type="line"/>
      <point x="213" y="571" type="line"/>
      <point x="180" y="259" type="line"/>
      <point x="169" y="143"/>
      <point x="213" y="71"/>
      <point x="331" y="71" type="curve" smooth="yes"/>
      <point x="442" y="71"/>
      <point x="504" y="141"/>
      <point x="518" y="267" type="curve"/>
      <point x="549" y="571" type="line"/>
      <point x="466" y="571" type="line"/>
    </contour>
    <contour>
      <point x="394" y="690" type="curve" smooth="yes"/>
      <point x="466" y="690"/>
      <point x="504" y="736"/>
      <point x="504" y="793" type="curve" smooth="yes"/>
      <point x="504" y="842"/>
      <point x="476" y="874"/>
      <point x="415" y="874" type="curve" smooth="yes"/>
      <point x="345" y="874"/>
      <point x="304" y="831"/>
      <point x="304" y="772" type="curve" smooth="yes"/>
      <point x="304" y="720"/>
      <point x="334" y="690"/>
    </contour>
    <contour>
      <point x="398" y="736" type="curve" smooth="yes"/>
      <point x="371" y="736"/>
      <point x="362" y="751"/>
      <point x="362" y="774" type="curve" smooth="yes"/>
      <point x="362" y="807"/>
      <point x="378" y="828"/>
      <point x="409" y="828" type="curve" smooth="yes"/>
      <point x="437" y="828"/>
      <point x="446" y="811"/>
      <point x="446" y="789" type="curve" smooth="yes"/>
      <point x="446" y="758"/>
      <point x="431" y="736"/>
    </contour>
  </outline>
</glyph>
<glyph name="Uhungarumlaut" format="1">
  <advance width="694"/>
  <unicode hex="0170"/>
  <outline>
    <contour>
      <point x="474" y="650" type="line"/>
      <point x="700" y="650" type="line"/>
      <point x="692" y="571" type="line"/>
      <point x="631" y="571" type="line"/>
      <point x="600" y="267" type="line"/>
      <point x="585" y="129"/>
      <point x="519" y="-10"/>
      <point x="323" y="-10" type="curve" smooth="yes"/>
      <point x="134" y="-10"/>
      <point x="77" y="116"/>
      <point x="92" y="256" type="curve" smooth="yes"/>
      <point x="125" y="571" type="line"/>
      <point x="63" y="571" type="line"/>
      <point x="71" y="650" type="line"/>
      <point x="305" y="650" type="line"/>
      <point x="296" y="571" type="line"/>
      <point x="213" y="571" type="line"/>
      <point x="180" y="259" type="line"/>
      <point x="169" y="143"/>
      <point x="213" y="71"/>
      <point x="331" y="71" type="curve" smooth="yes"/>
      <point x="442" y="71"/>
      <point x="504" y="141"/>
      <point x="518" y="267" type="curve"/>
      <point x="549" y="571" type="line"/>
      <point x="466" y="571" type="line"/>
    </contour>
    <contour>
      <point x="478" y="830" type="line"/>
      <point x="427" y="889" type="line"/>
      <point x="279" y="729" type="line"/>
      <point x="307" y="699" type="line"/>
    </contour>
    <contour>
      <point x="617" y="737" type="line"/>
      <point x="598" y="817" type="line"/>
      <point x="407" y="741" type="line"/>
      <point x="417" y="699" type="line"/>
    </contour>
  </outline>
</glyph>
<glyph name="uogonek" format="1">
  <advance width="530"/>
  <unicode hex="0173"/>
  <outline>
    <contour>
      <point x="340" y="0" type="line"/>
      <point x="339" y="85" type="line"/>
      <point x="308" y="28"/>
      <point x="261" y="-9"/>
      <point x="192" y="-9" type="curve" smooth="yes"/>
      <point x="109" y="-9"/>
      <point x="50" y="41"/>
      <point x="63" y="156" type="curve"/>
      <point x="90" y="378" type="line"/>
      <point x="20" y="378" type="line"/>
      <point x="26" y="427" type="line"/>
      <point x="50" y="447" type="line"/>
      <point x="182" y="447" type="line"/>
      <point x="151" y="185" type="line"/>
      <point x="139" y="95"/>
      <point x="167" y="60"/>
      <point x="229" y="60" type="curve" smooth="yes"/>
      <point x="296" y="60"/>
      <point x="334" y="112"/>
      <point x="346" y="172" type="curve"/>
      <point x="380" y="447" type="line"/>
      <point x="465" y="447" type="line"/>
      <point x="418" y="69" type="line"/>
      <point x="492" y="69" type="line"/>
      <point x="486" y="21" type="line"/>
      <point x="461" y="0" type="line"/>
      <point x="430" y="0" type="line"/>
      <point x="376" y="-32"/>
      <point x="363" y="-69"/>
      <point x="363" y="-98" type="curve" smooth="yes"/>
      <point x="363" y="-134"/>
      <point x="381" y="-144"/>
      <point x="411" y="-144" type="curve" smooth="yes"/>
      <point x="427" y="-144"/>
      <point x="445" y="-140"/>
      <point x="463" y="-130" type="curve"/>
      <point x="465" y="-189" type="line"/>
      <point x="442" y="-200"/>
      <point x="414" y="-209"/>
      <point x="382" y="-209" type="curve" smooth="yes"/>
      <point x="324" y="-209"/>
      <point x="285" y="-181"/>
      <point x="285" y="-126" type="curve" smooth="yes"/>
      <point x="285" y="-73"/>
      <point x="322" y="-27"/>
      <point x="369" y="0" type="curve"/>
    </contour>
  </outline>
</glyph>
<glyph name="Wcircumflex" format="1">
  <advance width="921"/>
  <unicode hex="0174"/>
  <outline>
    <contour>
      <point x="945" y="571" type="line"/>
      <point x="891" y="571" type="line"/>
      <point x="662" y="0" type="line"/>
      <point x="595" y="0" type="line"/>
      <point x="487" y="491" type="line"/>
      <point x="483" y="491" type="line"/>
      <point x="276" y="0" type="line"/>
      <point x="207" y="0" type="line"/>
      <point x="87" y="571" type="line"/>
      <point x="33" y="571" type="line"/>
      <point x="41" y="650" type="line"/>
      <point x="268" y="650" type="line"/>
      <point x="259" y="571" type="line"/>
      <point x="179" y="571" type="line"/>
      <point x="257" y="150" type="line"/>
      <point x="262" y="150" type="line"/>
      <point x="443" y="571" type="line"/>
      <point x="382" y="571" type="line"/>
      <point x="391" y="650" type="line"/>
      <point x="618" y="650" type="line"/>
      <point x="609" y="571" type="line"/>
      <point x="551" y="571" type="line"/>
      <point x="643" y="146" type="line"/>
      <point x="648" y="146" type="line"/>
      <point x="803" y="571" type="line"/>
      <point x="719" y="571" type="line"/>
      <point x="728" y="650" type="line"/>
      <point x="953" y="650" type="line"/>
    </contour>
    <contour>
      <point x="537" y="831" type="line"/>
      <point x="509" y="831" type="line"/>
      <point x="371" y="734" type="line"/>
      <point x="391" y="696" type="line"/>
      <point x="513" y="758" type="line"/>
      <point x="628" y="697" type="line"/>
      <point x="653" y="736" type="line"/>
    </contour>
  </outline>
</glyph>
<glyph name="Ycircumflex" format="1">
  <advance width="604"/>
  <unicode hex="0176"/>
  <outline>
    <contour>
      <point x="630" y="571" type="line"/>
      <point x="570" y="571" type="line"/>
      <point x="344" y="251" type="line"/>
      <point x="326" y="79" type="line"/>
      <point x="435" y="79" type="line"/>
      <point x="426" y="0" type="line"/>
      <point x="126" y="0" type="line"/>
      <point x="134" y="79" type="line"/>
      <point x="239" y="79" type="line"/>
      <point x="257" y="251" type="line"/>
      <point x="91" y="571" type="line"/>
      <point x="30" y="571" type="line"/>
      <point x="39" y="650" type="line"/>
      <point x="276" y="650" type="line"/>
      <point x="268" y="571" type="line"/>
      <point x="191" y="571" type="line"/>
      <point x="311" y="332" type="line"/>
      <point x="316" y="332" type="line"/>
      <point x="480" y="571" type="line"/>
      <point x="402" y="571" type="line"/>
      <point x="410" y="650" type="line"/>
      <point x="638" y="650" type="line"/>
    </contour>
    <contour>
      <point x="379" y="831" type="line"/>
      <point x="351" y="831" type="line"/>
      <point x="213" y="734" type="line"/>
      <point x="233" y="696" type="line"/>
      <point x="355" y="758" type="line"/>
      <point x="470" y="697" type="line"/>
      <point x="495" y="736" type="line"/>
    </contour>
  </outline>
</glyph>
<glyph name="ycircumflex" format="1">
  <advance width="472"/>
  <unicode hex="0177"/>
  <outline>
    <contour>
      <point x="238" y="101" type="line"/>
      <point x="244" y="101" type="line"/>
      <point x="322" y="193"/>
      <point x="360" y="270"/>
      <point x="360" y="354" type="curve" smooth="yes"/>
      <point x="360" y="383"/>
      <point x="355" y="414"/>
      <point x="341" y="447" type="curve"/>
      <point x="438" y="447" type="line"/>
      <point x="457" y="365"/>
      <point x="446" y="278"/>
      <point x="384" y="186" type="curve" smooth="yes"/>
      <point x="356" y="143"/>
      <point x="306" y="82"/>
      <point x="255" y="30" type="curve"/>
      <point x="231" y="-144" type="line"/>
      <point x="304" y="-144" type="line"/>
      <point x="299" y="-192" type="line"/>
      <point x="274" y="-213" type="line"/>
      <point x="64" y="-213" type="line"/>
      <point x="70" y="-166" type="line"/>
      <point x="94" y="-144" type="line"/>
      <point x="147" y="-144" type="line"/>
      <point x="172" y="33" type="line"/>
      <point x="65" y="378" type="line"/>
      <point x="11" y="378" type="line"/>
      <point x="17" y="425" type="line"/>
      <point x="41" y="447" type="line"/>
      <point x="237" y="447" type="line"/>
      <point x="231" y="398" type="line"/>
      <point x="207" y="378" type="line"/>
      <point x="154" y="378" type="line"/>
    </contour>
    <contour>
      <point x="300" y="674" type="line"/>
      <point x="272" y="674" type="line"/>
      <point x="136" y="552" type="line"/>
      <point x="161" y="515" type="line"/>
      <point x="275" y="597" type="line"/>
      <point x="379" y="516" type="line"/>
      <point x="411" y="552" type="line"/>
    </contour>
  </outline>
</glyph>
<glyph name="Zacute" format="1">
  <advance width="564"/>
  <unicode hex="0179"/>
  <outline>
    <contour>
      <point x="487" y="0" type="line"/>
      <point x="532" y="202" type="line"/>
      <point x="456" y="212" type="line"/>
      <point x="417" y="79" type="line"/>
      <point x="133" y="79" type="line"/>
      <point x="134" y="81" type="line"/>
      <point x="548" y="604" type="line"/>
      <point x="544" y="650" type="line"/>
      <point x="102" y="650" type="line"/>
      <point x="58" y="457" type="line"/>
      <point x="133" y="448" type="line"/>
      <point x="170" y="571" type="line"/>
      <point x="416" y="571" type="line"/>
      <point x="416" y="569" type="line"/>
      <point x="4" y="51" type="line"/>
      <point x="4" y="0" type="line"/>
    </contour>
    <contour>
      <point x="485" y="737" type="line"/>
      <point x="466" y="819" type="line"/>
      <point x="267" y="742" type="line"/>
      <point x="277" y="699" type="line"/>
    </contour>
  </outline>
</glyph>
<glyph name="zacute" format="1">
  <advance width="449"/>
  <unicode hex="017A"/>
  <outline>
    <contour>
      <point x="409" y="617" type="line"/>
      <point x="366" y="688" type="line"/>
      <point x="199" y="553" type="line"/>
      <point x="220" y="516" type="line"/>
    </contour>
    <contour>
      <point x="377" y="0" type="line"/>
      <point x="416" y="144" type="line"/>
      <point x="349" y="153" type="line"/>
      <point x="317" y="69" type="line"/>
      <point x="118" y="69" type="line"/>
      <point x="420" y="397" type="line"/>
      <point x="406" y="447" type="line"/>
      <point x="69" y="447" type="line"/>
      <point x="40" y="302" type="line"/>
      <point x="106" y="294" type="line"/>
      <point x="129" y="378" type="line"/>
      <point x="309" y="378" type="line"/>
      <point x="4" y="50" type="line"/>
      <point x="13" y="0" type="line"/>
    </contour>
  </outline>
</glyph>
<glyph name="Zcaron" format="1">
  <advance width="564"/>
  <unicode hex="017D"/>
  <outline>
    <contour>
      <point x="305" y="696" type="line"/>
      <point x="333" y="696" type="line"/>
      <point x="470" y="792" type="line"/>
      <point x="451" y="831" type="line"/>
      <point x="328" y="767" type="line"/>
      <point x="213" y="829" type="line"/>
      <point x="189" y="790" type="line"/>
    </contour>
    <contour>
      <point x="487" y="0" type="line"/>
      <point x="532" y="202" type="line"/>
      <point x="456" y="212" type="line"/>
      <point x="417" y="79" type="line"/>
      <point x="133" y="79" type="line"/>
      <point x="134" y="81" type="line"/>
      <point x="548" y="604" type="line"/>
      <point x="544" y="650" type="line"/>
      <point x="102" y="650" type="line"/>
      <point x="58" y="457" type="line"/>
      <point x="133" y="448" type="line"/>
      <point x="170" y="571" type="line"/>
      <point x="416" y="571" type="line"/>
      <point x="416" y="569" type="line"/>
      <point x="4" y="51" type="line"/>
      <point x="4" y="0" type="line"/>
    </contour>
  </outline>
</glyph>
<glyph name="zcaron" format="1">
  <advance width="449"/>
  <unicode hex="017E"/>
  <outline>
    <contour>
      <point x="239" y="515" type="line"/>
      <point x="267" y="515" type="line"/>
      <point x="403" y="636" type="line"/>
      <point x="378" y="674" type="line"/>
      <point x="263" y="593" type="line"/>
      <point x="161" y="672" type="line"/>
      <point x="129" y="636" type="line"/>
    </contour>
    <contour>
      <point x="377" y="0" type="line"/>
      <point x="416" y="144" type="line"/>
      <point x="349" y="153" type="line"/>
      <point x="317" y="69" type="line"/>
      <point x="118" y="69" type="line"/>
      <point x="420" y="397" type="line"/>
      <point x="406" y="447" type="line"/>
      <point x="69" y="447" type="line"/>
      <point x="40" y="302" type="line"/>
      <point x="106" y="294" type="line"/>
      <point x="129" y="378" type="line"/>
      <point x="309" y="378" type="line"/>
      <point x="4" y="50" type="line"/>
      <point x="13" y="0" type="line"/>
    </contour>
  </outline>
</glyph>
<glyph name="uni01C4" format="1">
  <advance width="1246"/>
  <unicode hex="01C4"/>
  <outline>
    <contour>
      <point x="362" y="650" type="line" smooth="yes"/>
      <point x="555" y="650"/>
      <point x="654" y="534"/>
      <point x="654" y="361" type="curve" smooth="yes"/>
      <point x="654" y="154"/>
      <point x="515" y="0"/>
      <point x="299" y="0" type="curve" smooth="yes"/>
      <point x="11" y="0" type="line"/>
      <point x="20" y="78" type="line"/>
      <point x="96" y="78" type="line"/>
      <point x="148" y="572" type="line"/>
      <point x="71" y="572" type="line"/>
      <point x="79" y="650" type="line"/>
    </contour>
    <contour>
      <point x="302" y="78" type="line" smooth="yes"/>
      <point x="463" y="78"/>
      <point x="561" y="187"/>
      <point x="561" y="353" type="curve" smooth="yes"/>
      <point x="561" y="491"/>
      <point x="491" y="572"/>
      <point x="353" y="572" type="curve" smooth="yes"/>
      <point x="234" y="572" type="line"/>
      <point x="182" y="78" type="line"/>
    </contour>
    <contour>
      <point x="1169" y="0" type="line"/>
      <point x="1214" y="202" type="line"/>
      <point x="1138" y="212" type="line"/>
      <point x="1099" y="79" type="line"/>
      <point x="815" y="79" type="line"/>
      <point x="816" y="81" type="line"/>
      <point x="1230" y="604" type="line"/>
      <point x="1226" y="650" type="line"/>
      <point x="784" y="650" type="line"/>
      <point x="740" y="457" type="line"/>
      <point x="815" y="448" type="line"/>
      <point x="852" y="571" type="line"/>
      <point x="1098" y="571" type="line"/>
      <point x="1098" y="569" type="line"/>
      <point x="686" y="51" type="line"/>
      <point x="686" y="0" type="line"/>
    </contour>
    <contour>
      <point x="987" y="696" type="line"/>
      <point x="1015" y="696" type="line"/>
      <point x="1152" y="792" type="line"/>
      <point x="1133" y="831" type="line"/>
      <point x="1010" y="767" type="line"/>
      <point x="895" y="829" type="line"/>
      <point x="871" y="790" type="line"/>
    </contour>
  </outline>
</glyph>
<glyph name="uni01C7" format="1">
  <advance width="978"/>
  <unicode hex="01C7"/>
  <outline>
    <contour>
      <point x="472" y="0" type="line"/>
      <point x="514" y="214" type="line"/>
      <point x="438" y="221" type="line"/>
      <point x="404" y="79" type="line"/>
      <point x="183" y="79" type="line"/>
      <point x="235" y="571" type="line"/>
      <point x="337" y="571" type="line"/>
      <point x="345" y="650" type="line"/>
      <point x="78" y="650" type="line"/>
      <point x="70" y="571" type="line"/>
      <point x="147" y="571" type="line"/>
      <point x="95" y="79" type="line"/>
      <point x="18" y="79" type="line"/>
      <point x="10" y="0" type="line"/>
    </contour>
    <contour>
      <point x="708" y="650" type="line"/>
      <point x="983" y="650" type="line"/>
      <point x="975" y="571" type="line"/>
      <point x="908" y="571" type="line"/>
      <point x="867" y="172" type="line" smooth="yes"/>
      <point x="854" y="50"/>
      <point x="782" y="-10"/>
      <point x="677" y="-10" type="curve" smooth="yes"/>
      <point x="587" y="-10"/>
      <point x="543" y="35"/>
      <point x="522" y="96" type="curve"/>
      <point x="590" y="145" type="line"/>
      <point x="610" y="90"/>
      <point x="639" y="75"/>
      <point x="678" y="75" type="curve" smooth="yes"/>
      <point x="742" y="75"/>
      <point x="772" y="114"/>
      <point x="779" y="171" type="curve"/>
      <point x="821" y="571" type="line"/>
      <point x="700" y="571" type="line"/>
    </contour>
  </outline>
</glyph>
<glyph name="uni01C9" format="1">
  <advance width="492"/>
  <unicode hex="01C9"/>
  <outline>
    <contour>
      <point x="50" y="667" type="line"/>
      <point x="74" y="688" type="line"/>
      <point x="210" y="688" type="line"/>
      <point x="134" y="69" type="line"/>
      <point x="204" y="69" type="line"/>
      <point x="197" y="19" type="line"/>
      <point x="174" y="0" type="line"/>
      <point x="41" y="0" type="line"/>
      <point x="116" y="619" type="line"/>
      <point x="44" y="619" type="line"/>
    </contour>
    <contour>
      <point x="268" y="425" type="line"/>
      <point x="292" y="447" type="line"/>
      <point x="446" y="447" type="line"/>
      <point x="390" y="-8" type="line"/>
      <point x="373" y="-140"/>
      <point x="326" y="-220"/>
      <point x="247" y="-223" type="curve"/>
      <point x="214" y="-223"/>
      <point x="186" y="-214"/>
      <point x="162" y="-201" type="curve"/>
      <point x="165" y="-141" type="line"/>
      <point x="234" y="-169"/>
      <point x="288" y="-152"/>
      <point x="306" y="-8" type="curve" smooth="yes"/>
      <point x="353" y="378" type="line"/>
      <point x="262" y="378" type="line"/>
    </contour>
    <contour>
      <point x="367" y="552" type="line"/>
      <point x="454" y="552" type="line"/>
      <point x="465" y="655" type="line"/>
      <point x="378" y="655" type="line"/>
    </contour>
  </outline>
</glyph>
<glyph name="uni01CA" format="1">
  <advance width="1160"/>
  <unicode hex="01CA"/>
  <outline>
    <contour>
      <point x="24" y="79" type="line"/>
      <point x="97" y="79" type="line"/>
      <point x="149" y="571" type="line"/>
      <point x="67" y="571" type="line"/>
      <point x="75" y="650" type="line"/>
      <point x="219" y="650" type="line"/>
      <point x="518" y="182" type="line"/>
      <point x="521" y="182" type="line"/>
      <point x="561" y="571" type="line"/>
      <point x="468" y="571" type="line"/>
      <point x="477" y="650" type="line"/>
      <point x="729" y="650" type="line"/>
      <point x="721" y="571" type="line"/>
      <point x="644" y="571" type="line"/>
      <point x="585" y="0" type="line"/>
      <point x="532" y="0" type="line"/>
      <point x="224" y="483" type="line"/>
      <point x="221" y="483" type="line"/>
      <point x="178" y="79" type="line"/>
      <point x="276" y="79" type="line"/>
      <point x="268" y="0" type="line"/>
      <point x="16" y="0" type="line"/>
    </contour>
    <contour>
      <point x="890" y="650" type="line"/>
      <point x="1165" y="650" type="line"/>
      <point x="1157" y="571" type="line"/>
      <point x="1090" y="571" type="line"/>
      <point x="1049" y="172" type="line" smooth="yes"/>
      <point x="1036" y="50"/>
      <point x="964" y="-10"/>
      <point x="859" y="-10" type="curve" smooth="yes"/>
      <point x="769" y="-10"/>
      <point x="725" y="35"/>
      <point x="704" y="96" type="curve"/>
      <point x="772" y="145" type="line"/>
      <point x="792" y="90"/>
      <point x="821" y="75"/>
      <point x="860" y="75" type="curve" smooth="yes"/>
      <point x="924" y="75"/>
      <point x="954" y="114"/>
      <point x="961" y="171" type="curve"/>
      <point x="1003" y="571" type="line"/>
      <point x="882" y="571" type="line"/>
    </contour>
  </outline>
</glyph>
<glyph name="uni01F1" format="1">
  <advance width="1240"/>
  <unicode hex="01F1"/>
  <outline>
    <contour>
      <point x="362" y="650" type="line" smooth="yes"/>
      <point x="555" y="650"/>
      <point x="654" y="534"/>
      <point x="654" y="361" type="curve" smooth="yes"/>
      <point x="654" y="154"/>
      <point x="515" y="0"/>
      <point x="299" y="0" type="curve" smooth="yes"/>
      <point x="11" y="0" type="line"/>
      <point x="20" y="78" type="line"/>
      <point x="96" y="78" type="line"/>
      <point x="148" y="572" type="line"/>
      <point x="71" y="572" type="line"/>
      <point x="79" y="650" type="line"/>
    </contour>
    <contour>
      <point x="302" y="78" type="line" smooth="yes"/>
      <point x="463" y="78"/>
      <point x="561" y="187"/>
      <point x="561" y="353" type="curve" smooth="yes"/>
      <point x="561" y="491"/>
      <point x="491" y="572"/>
      <point x="353" y="572" type="curve" smooth="yes"/>
      <point x="234" y="572" type="line"/>
      <point x="182" y="78" type="line"/>
    </contour>
    <contour>
      <point x="1164" y="0" type="line"/>
      <point x="1209" y="202" type="line"/>
      <point x="1133" y="212" type="line"/>
      <point x="1094" y="79" type="line"/>
      <point x="810" y="79" type="line"/>
      <point x="811" y="81" type="line"/>
      <point x="1225" y="604" type="line"/>
      <point x="1221" y="650" type="line"/>
      <point x="779" y="650" type="line"/>
      <point x="735" y="457" type="line"/>
      <point x="810" y="448" type="line"/>
      <point x="847" y="571" type="line"/>
      <point x="1093" y="571" type="line"/>
      <point x="1093" y="569" type="line"/>
      <point x="681" y="51" type="line"/>
      <point x="681" y="0" type="line"/>
    </contour>
  </outline>
</glyph>
<glyph name="uni021B" format="1">
  <advance width="347"/>
  <unicode hex="021B"/>
  <outline>
    <contour>
      <point x="27" y="423" type="line"/>
      <point x="53" y="447" type="line"/>
      <point x="100" y="447" type="line"/>
      <point x="114" y="560" type="line"/>
      <point x="142" y="588" type="line"/>
      <point x="202" y="588" type="line"/>
      <point x="184" y="447" type="line"/>
      <point x="331" y="447" type="line"/>
      <point x="325" y="402" type="line"/>
      <point x="299" y="378" type="line"/>
      <point x="176" y="378" type="line"/>
      <point x="147" y="140" type="line" smooth="yes"/>
      <point x="140" y="84"/>
      <point x="155" y="59"/>
      <point x="194" y="59" type="curve" smooth="yes"/>
      <point x="222" y="59"/>
      <point x="245" y="70"/>
      <point x="266" y="143" type="curve"/>
      <point x="326" y="122" type="line"/>
      <point x="302" y="31"/>
      <point x="263" y="-10"/>
      <point x="185" y="-10" type="curve" smooth="yes"/>
      <point x="98" y="-10"/>
      <point x="51" y="44"/>
      <point x="62" y="132" type="curve" smooth="yes"/>
      <point x="92" y="378" type="line"/>
      <point x="21" y="378" type="line"/>
    </contour>
    <contour>
      <point x="222" y="-62" type="line"/>
      <point x="140" y="-62" type="line"/>
      <point x="118" y="-216" type="line"/>
      <point x="185" y="-216" type="line"/>
    </contour>
  </outline>
</glyph>
<glyph name="Ymacron" format="1">
  <advance width="604"/>
  <unicode hex="0232"/>
  <outline>
    <contour>
      <point x="630" y="571" type="line"/>
      <point x="570" y="571" type="line"/>
      <point x="344" y="251" type="line"/>
      <point x="326" y="79" type="line"/>
      <point x="435" y="79" type="line"/>
      <point x="426" y="0" type="line"/>
      <point x="126" y="0" type="line"/>
      <point x="134" y="79" type="line"/>
      <point x="239" y="79" type="line"/>
      <point x="257" y="251" type="line"/>
      <point x="91" y="571" type="line"/>
      <point x="30" y="571" type="line"/>
      <point x="39" y="650" type="line"/>
      <point x="276" y="650" type="line"/>
      <point x="268" y="571" type="line"/>
      <point x="191" y="571" type="line"/>
      <point x="311" y="332" type="line"/>
      <point x="316" y="332" type="line"/>
      <point x="480" y="571" type="line"/>
      <point x="402" y="571" type="line"/>
      <point x="410" y="650" type="line"/>
      <point x="638" y="650" type="line"/>
    </contour>
    <contour>
      <point x="211" y="798" type="line"/>
      <point x="493" y="798" type="line"/>
      <point x="485" y="729" type="line"/>
      <point x="204" y="729" type="line"/>
    </contour>
  </outline>
</glyph>
<glyph name="dotaccent" format="1">
  <advance width="210"/>
  <unicode hex="02D9"/>
  <outline>
    <contour>
      <point x="114" y="547" type="line"/>
      <point x="204" y="547" type="line"/>
      <point x="214" y="650" type="line"/>
      <point x="125" y="650" type="line"/>
    </contour>
  </outline>
</glyph>
<glyph name="ogonek" format="1">
  <advance width="274"/>
  <unicode hex="02DB"/>
  <outline>
    <contour>
      <point x="206" y="-189" type="line"/>
      <point x="183" y="-200"/>
      <point x="155" y="-209"/>
      <point x="123" y="-209" type="curve" smooth="yes"/>
      <point x="65" y="-209"/>
      <point x="26" y="-181"/>
      <point x="26" y="-126" type="curve" smooth="yes"/>
      <point x="26" y="-64"/>
      <point x="77" y="-12"/>
      <point x="134" y="12" type="curve"/>
      <point x="186" y="8" type="line"/>
      <point x="119" y="-26"/>
      <point x="104" y="-67"/>
      <point x="104" y="-98" type="curve" smooth="yes"/>
      <point x="104" y="-134"/>
      <point x="122" y="-144"/>
      <point x="152" y="-144" type="curve" smooth="yes"/>
      <point x="168" y="-144"/>
      <point x="186" y="-140"/>
      <point x="204" y="-130" type="curve"/>
    </contour>
  </outline>
</glyph>
<glyph name="dotbelowcmb" format="1">
  <advance width="816"/>
  <unicode hex="0323"/>
  <outline>
    <contour>
      <point x="67" y="-181" type="line"/>
      <point x="157" y="-181" type="line"/>
      <point x="168" y="-78" type="line"/>
      <point x="78" y="-78" type="line"/>
    </contour>
  </outline>
</glyph>
<glyph name="uni0394" format="1">
  <advance width="476"/>
  <unicode hex="0394"/>
  <outline>
    <contour>
      <point x="-33" y="0" type="line"/>
      <point x="448" y="0" type="line"/>
      <point x="282" y="661" type="line"/>
    </contour>
    <contour>
      <point x="72" y="69" type="line"/>
      <point x="261" y="474" type="line"/>
      <point x="359" y="69" type="line"/>
    </contour>
  </outline>
</glyph>
<glyph name="Wdieresis" format="1">
  <advance width="921"/>
  <unicode hex="1E84"/>
  <outline>
    <contour>
      <point x="945" y="571" type="line"/>
      <point x="891" y="571" type="line"/>
      <point x="662" y="0" type="line"/>
      <point x="595" y="0" type="line"/>
      <point x="487" y="491" type="line"/>
      <point x="483" y="491" type="line"/>
      <point x="276" y="0" type="line"/>
      <point x="207" y="0" type="line"/>
      <point x="87" y="571" type="line"/>
      <point x="33" y="571" type="line"/>
      <point x="41" y="650" type="line"/>
      <point x="268" y="650" type="line"/>
      <point x="259" y="571" type="line"/>
      <point x="179" y="571" type="line"/>
      <point x="257" y="150" type="line"/>
      <point x="262" y="150" type="line"/>
      <point x="443" y="571" type="line"/>
      <point x="382" y="571" type="line"/>
      <point x="391" y="650" type="line"/>
      <point x="618" y="650" type="line"/>
      <point x="609" y="571" type="line"/>
      <point x="551" y="571" type="line"/>
      <point x="643" y="146" type="line"/>
      <point x="648" y="146" type="line"/>
      <point x="803" y="571" type="line"/>
      <point x="719" y="571" type="line"/>
      <point x="728" y="650" type="line"/>
      <point x="953" y="650" type="line"/>
    </contour>
    <contour>
      <point x="545" y="715" type="line"/>
      <point x="639" y="715" type="line"/>
      <point x="649" y="813" type="line"/>
      <point x="556" y="813" type="line"/>
    </contour>
    <contour>
      <point x="374" y="715" type="line"/>
      <point x="467" y="715" type="line"/>
      <point x="477" y="813" type="line"/>
      <point x="384" y="813" type="line"/>
    </contour>
  </outline>
</glyph>
<glyph name="uni1EBC" format="1">
  <advance width="572"/>
  <unicode hex="1EBC"/>
  <outline>
    <contour>
      <point x="248" y="703" type="line"/>
      <point x="261" y="733"/>
      <point x="281" y="741"/>
      <point x="300" y="741" type="curve" smooth="yes"/>
      <point x="340" y="741"/>
      <point x="369" y="707"/>
      <point x="418" y="707" type="curve" smooth="yes"/>
      <point x="470" y="707"/>
      <point x="494" y="749"/>
      <point x="506" y="804" type="curve"/>
      <point x="466" y="814" type="line"/>
      <point x="453" y="780"/>
      <point x="434" y="773"/>
      <point x="416" y="773" type="curve" smooth="yes"/>
      <point x="373" y="773"/>
      <point x="348" y="807"/>
      <point x="304" y="807" type="curve" smooth="yes"/>
      <point x="249" y="807"/>
      <point x="219" y="752"/>
      <point x="213" y="717" type="curve"/>
    </contour>
    <contour>
      <point x="486" y="0" type="line"/>
      <point x="11" y="0" type="line"/>
      <point x="19" y="79" type="line"/>
      <point x="96" y="79" type="line"/>
      <point x="148" y="571" type="line"/>
      <point x="71" y="571" type="line"/>
      <point x="79" y="650" type="line"/>
      <point x="549" y="650" type="line"/>
      <point x="549" y="464" type="line"/>
      <point x="473" y="457" type="line"/>
      <point x="465" y="571" type="line"/>
      <point x="235" y="571" type="line"/>
      <point x="213" y="368" type="line"/>
      <point x="506" y="368" type="line"/>
      <point x="498" y="290" type="line"/>
      <point x="205" y="290" type="line"/>
      <point x="183" y="79" type="line"/>
      <point x="418" y="79" type="line"/>
      <point x="450" y="193" type="line"/>
      <point x="524" y="186" type="line"/>
    </contour>
  </outline>
</glyph>
<glyph name="uni2012" format="1">
  <advance width="347"/>
  <unicode hex="2012"/>
  <outline>
    <contour>
      <point x="347" y="288" type="line"/>
      <point x="0" y="288" type="line"/>
      <point x="0" y="214" type="line"/>
      <point x="347" y="214" type="line"/>
    </contour>
  </outline>
</glyph>
<glyph name="quoteleft" format="1">
  <advance width="211"/>
  <unicode hex="2018"/>
  <outline>
    <contour>
      <point x="218" y="651" type="line"/>
      <point x="133" y="651" type="line"/>
      <point x="56" y="430" type="line"/>
      <point x="140" y="430" type="line"/>
    </contour>
  </outline>
</glyph>
<glyph name="quoteright" format="1">
  <advance width="206"/>
  <unicode hex="2019"/>
  <outline>
    <contour>
      <point x="59" y="484" type="line"/>
      <point x="144" y="484" type="line"/>
      <point x="221" y="705" type="line"/>
      <point x="137" y="705" type="line"/>
    </contour>
  </outline>
</glyph>
<glyph name="quotesinglbase" format="1">
  <advance width="206"/>
  <unicode hex="201A"/>
  <outline>
    <contour>
      <point x="-21" y="-97" type="line"/>
      <point x="64" y="-97" type="line"/>
      <point x="141" y="124" type="line"/>
      <point x="57" y="124" type="line"/>
    </contour>
  </outline>
</glyph>
<glyph name="quotedblleft" format="1">
  <advance width="371"/>
  <unicode hex="201C"/>
  <outline>
    <contour>
      <point x="221" y="668" type="line"/>
      <point x="136" y="668" type="line"/>
      <point x="59" y="447" type="line"/>
      <point x="143" y="447" type="line"/>
    </contour>
    <contour>
      <point x="385" y="668" type="line"/>
      <point x="300" y="668" type="line"/>
      <point x="223" y="447" type="line"/>
      <point x="307" y="447" type="line"/>
    </contour>
  </outline>
</glyph>
<glyph name="quotedblright" format="1">
  <advance width="367"/>
  <unicode hex="201D"/>
  <outline>
    <contour>
      <point x="49" y="449" type="line"/>
      <point x="134" y="449" type="line"/>
      <point x="211" y="670" type="line"/>
      <point x="127" y="670" type="line"/>
    </contour>
    <contour>
      <point x="213" y="449" type="line"/>
      <point x="298" y="449" type="line"/>
      <point x="375" y="670" type="line"/>
      <point x="291" y="670" type="line"/>
    </contour>
  </outline>
</glyph>
<glyph name="quotedblbase" format="1">
  <advance width="372"/>
  <unicode hex="201E"/>
  <outline>
    <contour>
      <point x="-21" y="-97" type="line"/>
      <point x="64" y="-97" type="line"/>
      <point x="141" y="124" type="line"/>
      <point x="57" y="124" type="line"/>
    </contour>
    <contour>
      <point x="146" y="-97" type="line"/>
      <point x="231" y="-97" type="line"/>
      <point x="308" y="124" type="line"/>
      <point x="224" y="124" type="line"/>
    </contour>
  </outline>
</glyph>
<glyph name="bullet" format="1">
  <advance width="348"/>
  <unicode hex="2022"/>
  <outline>
    <contour>
      <point x="58" y="233" type="curve" smooth="yes"/>
      <point x="58" y="175"/>
      <point x="99" y="129"/>
      <point x="158" y="129" type="curve" smooth="yes"/>
      <point x="224" y="129"/>
      <point x="283" y="185"/>
      <point x="283" y="254" type="curve" smooth="yes"/>
      <point x="283" y="313"/>
      <point x="241" y="359"/>
      <point x="181" y="359" type="curve" smooth="yes"/>
      <point x="116" y="359"/>
      <point x="58" y="302"/>
    </contour>
  </outline>
</glyph>
<glyph name="ellipsis" format="1">
  <advance width="595"/>
  <unicode hex="2026"/>
  <outline>
    <contour>
      <point x="24" y="0" type="line"/>
      <point x="134" y="0" type="line"/>
      <point x="146" y="119" type="line"/>
      <point x="36" y="119" type="line"/>
    </contour>
    <contour>
      <point x="215" y="0" type="line"/>
      <point x="325" y="0" type="line"/>
      <point x="337" y="119" type="line"/>
      <point x="227" y="119" type="line"/>
    </contour>
    <contour>
      <point x="406" y="0" type="line"/>
      <point x="516" y="0" type="line"/>
      <point x="528" y="119" type="line"/>
      <point x="418" y="119" type="line"/>
    </contour>
  </outline>
</glyph>
<glyph name="guilsinglleft" format="1">
  <advance width="284"/>
  <unicode hex="2039"/>
  <outline>
    <contour>
      <point x="217" y="25" type="line"/>
      <point x="119" y="271" type="line"/>
      <point x="268" y="511" type="line"/>
      <point x="195" y="511" type="line"/>
      <point x="35" y="271" type="line"/>
      <point x="144" y="25" type="line"/>
    </contour>
  </outline>
</glyph>
<glyph name="uni203D" format="1">
  <advance width="661"/>
  <unicode hex="203D"/>
  <outline>
    <contour>
      <point x="445" y="577" type="curve" smooth="yes"/>
      <point x="488" y="577"/>
      <point x="554" y="557"/>
      <point x="554" y="495" type="curve" smooth="yes"/>
      <point x="554" y="374"/>
      <point x="306" y="391"/>
      <point x="280" y="218" type="curve"/>
      <point x="336" y="199" type="line"/>
      <point x="374" y="352"/>
      <point x="654" y="329"/>
      <point x="654" y="504" type="curve" smooth="yes"/>
      <point x="654" y="604"/>
      <point x="561" y="650"/>
      <point x="459" y="650" type="curve" smooth="yes"/>
      <point x="401" y="650"/>
      <point x="349" y="631"/>
      <point x="314" y="608" type="curve"/>
      <point x="273" y="482" type="line"/>
      <point x="337" y="465" type="line"/>
      <point x="375" y="557" type="line"/>
      <point x="395" y="569"/>
      <point x="418" y="577"/>
    </contour>
    <contour>
      <point x="159" y="652" type="line"/>
      <point x="258" y="215" type="line"/>
      <point x="198" y="189" type="line"/>
      <point x="62" y="610" type="line"/>
    </contour>
    <contour>
      <point x="198" y="0" type="line"/>
      <point x="303" y="0" type="line"/>
      <point x="315" y="111" type="line"/>
      <point x="210" y="111" type="line"/>
    </contour>
  </outline>
</glyph>
<glyph name="fraction" format="1">
  <advance width="143"/>
  <unicode hex="2044"/>
  <outline>
    <contour>
      <point x="323" y="650" type="line"/>
      <point x="104" y="325" type="line"/>
      <point x="-109" y="0" type="line"/>
      <point x="-171" y="0" type="line"/>
      <point x="57" y="337" type="line"/>
      <point x="262" y="650" type="line"/>
    </contour>
  </outline>
</glyph>
<glyph name="fivesuperior" format="1">
  <advance width="330"/>
  <unicode hex="2075"/>
  <outline>
    <contour>
      <point x="328" y="533" type="curve" smooth="yes"/>
      <point x="328" y="618"/>
      <point x="258" y="641"/>
      <point x="178" y="641" type="curve" smooth="yes"/>
      <point x="154" y="641" type="line"/>
      <point x="163" y="725" type="line"/>
      <point x="267" y="725" type="line"/>
      <point x="268" y="678" type="line"/>
      <point x="324" y="684" type="line"/>
      <point x="329" y="779" type="line"/>
      <point x="328" y="778" type="line"/>
      <point x="328" y="779" type="line"/>
      <point x="104" y="779" type="line"/>
      <point x="87" y="607" type="line"/>
      <point x="107" y="588" type="line"/>
      <point x="125" y="589"/>
      <point x="143" y="591"/>
      <point x="160" y="591" type="curve" smooth="yes"/>
      <point x="213" y="591"/>
      <point x="253" y="579"/>
      <point x="253" y="527" type="curve" smooth="yes"/>
      <point x="253" y="486"/>
      <point x="227" y="462"/>
      <point x="183" y="462" type="curve" smooth="yes"/>
      <point x="135" y="462"/>
      <point x="109" y="489"/>
      <point x="105" y="521" type="curve"/>
      <point x="52" y="506" type="line"/>
      <point x="56" y="442"/>
      <point x="107" y="408"/>
      <point x="180" y="408" type="curve" smooth="yes"/>
      <point x="263" y="408"/>
      <point x="328" y="452"/>
    </contour>
  </outline>
</glyph>
<glyph name="sixsuperior" format="1">
  <advance width="342"/>
  <unicode hex="2076"/>
  <outline>
    <contour>
      <point x="240" y="731" type="curve" smooth="yes"/>
      <point x="261" y="731"/>
      <point x="282" y="726"/>
      <point x="304" y="696" type="curve"/>
      <point x="346" y="736" type="line"/>
      <point x="316" y="773"/>
      <point x="274" y="785"/>
      <point x="236" y="785" type="curve" smooth="yes"/>
      <point x="119" y="785"/>
      <point x="66" y="675"/>
      <point x="66" y="561" type="curve" smooth="yes"/>
      <point x="66" y="467"/>
      <point x="108" y="409"/>
      <point x="192" y="409" type="curve" smooth="yes"/>
      <point x="284" y="409"/>
      <point x="335" y="473"/>
      <point x="335" y="545" type="curve" smooth="yes"/>
      <point x="335" y="603"/>
      <point x="302" y="647"/>
      <point x="236" y="647" type="curve" smooth="yes"/>
      <point x="184" y="647"/>
      <point x="154" y="621"/>
      <point x="138" y="592" type="curve"/>
      <point x="143" y="677"/>
      <point x="171" y="731"/>
    </contour>
    <contour>
      <point x="212" y="595" type="curve" smooth="yes"/>
      <point x="247" y="595"/>
      <point x="264" y="574"/>
      <point x="264" y="539" type="curve" smooth="yes"/>
      <point x="264" y="497"/>
      <point x="247" y="465"/>
      <point x="198" y="465" type="curve" smooth="yes"/>
      <point x="154" y="465"/>
      <point x="140" y="490"/>
      <point x="137" y="536" type="curve"/>
      <point x="143" y="565"/>
      <point x="165" y="595"/>
    </contour>
  </outline>
</glyph>
<glyph name="sevensuperior" format="1">
  <advance width="306"/>
  <unicode hex="2077"/>
  <outline>
    <contour>
      <point x="78" y="779" type="line"/>
      <point x="66" y="664" type="line"/>
      <point x="126" y="664" type="line"/>
      <point x="132" y="726" type="line"/>
      <point x="264" y="726" type="line"/>
      <point x="100" y="415" type="line"/>
      <point x="168" y="415" type="line"/>
      <point x="341" y="748" type="line"/>
      <point x="336" y="779" type="line"/>
    </contour>
  </outline>
</glyph>
<glyph name="eightsuperior" format="1">
  <advance width="346"/>
  <unicode hex="2078"/>
  <outline>
    <contour>
      <point x="183" y="409" type="curve" smooth="yes"/>
      <point x="271" y="409"/>
      <point x="338" y="449"/>
      <point x="338" y="518" type="curve" smooth="yes"/>
      <point x="338" y="567"/>
      <point x="302" y="592"/>
      <point x="262" y="612" type="curve"/>
      <point x="306" y="630"/>
      <point x="344" y="653"/>
      <point x="344" y="701" type="curve" smooth="yes"/>
      <point x="344" y="753"/>
      <point x="297" y="785"/>
      <point x="227" y="785" type="curve" smooth="yes"/>
      <point x="144" y="785"/>
      <point x="86" y="742"/>
      <point x="86" y="681" type="curve" smooth="yes"/>
      <point x="86" y="640"/>
      <point x="115" y="617"/>
      <point x="150" y="598" type="curve"/>
      <point x="104" y="580"/>
      <point x="58" y="554"/>
      <point x="58" y="498" type="curve" smooth="yes"/>
      <point x="58" y="438"/>
      <point x="110" y="409"/>
    </contour>
    <contour>
      <point x="162" y="690" type="curve" smooth="yes"/>
      <point x="162" y="715"/>
      <point x="184" y="734"/>
      <point x="221" y="734" type="curve" smooth="yes"/>
      <point x="249" y="734"/>
      <point x="274" y="722"/>
      <point x="274" y="692" type="curve" smooth="yes"/>
      <point x="274" y="664"/>
      <point x="250" y="646"/>
      <point x="223" y="632" type="curve"/>
      <point x="189" y="648"/>
      <point x="162" y="663"/>
    </contour>
    <contour>
      <point x="191" y="460" type="curve" smooth="yes"/>
      <point x="152" y="460"/>
      <point x="129" y="480"/>
      <point x="129" y="511" type="curve" smooth="yes"/>
      <point x="129" y="544"/>
      <point x="155" y="563"/>
      <point x="186" y="579" type="curve"/>
      <point x="226" y="559"/>
      <point x="263" y="543"/>
      <point x="263" y="510" type="curve" smooth="yes"/>
      <point x="263" y="482"/>
      <point x="234" y="460"/>
    </contour>
  </outline>
</glyph>
<glyph name="minussuperior" format="1">
  <advance width="316"/>
  <unicode hex="207B"/>
  <outline>
    <contour>
      <point x="76" y="575" type="line"/>
      <point x="303" y="575" type="line"/>
      <point x="307" y="620" type="line"/>
      <point x="80" y="620" type="line"/>
    </contour>
  </outline>
</glyph>
<glyph name="equalsuperior" format="1">
  <advance width="376"/>
  <unicode hex="207C"/>
  <outline>
    <contour>
      <point x="82" y="640" type="line"/>
      <point x="369" y="640" type="line"/>
      <point x="375" y="687" type="line"/>
      <point x="87" y="687" type="line"/>
    </contour>
    <contour>
      <point x="68" y="508" type="line"/>
      <point x="356" y="508" type="line"/>
      <point x="360" y="554" type="line"/>
      <point x="72" y="554" type="line"/>
    </contour>
  </outline>
</glyph>
<glyph name="parenleftsuperior" format="1">
  <advance width="217"/>
  <unicode hex="207D"/>
  <outline>
    <contour>
      <point x="195" y="844" type="curve"/>
      <point x="255" y="844" type="line"/>
      <point x="168" y="749"/>
      <point x="122" y="651"/>
      <point x="122" y="544" type="curve" smooth="yes"/>
      <point x="122" y="463"/>
      <point x="147" y="376"/>
      <point x="198" y="306" type="curve"/>
      <point x="138" y="306" type="line"/>
      <point x="88" y="380"/>
      <point x="65" y="464"/>
      <point x="65" y="541" type="curve" smooth="yes"/>
      <point x="65" y="647"/>
      <point x="106" y="746"/>
    </contour>
  </outline>
</glyph>
<glyph name="parenrightsuperior" format="1">
  <advance width="216"/>
  <unicode hex="207E"/>
  <outline>
    <contour>
      <point x="83" y="305" type="curve"/>
      <point x="23" y="305" type="line"/>
      <point x="111" y="400"/>
      <point x="156" y="499"/>
      <point x="156" y="605" type="curve" smooth="yes"/>
      <point x="156" y="686"/>
      <point x="131" y="772"/>
      <point x="80" y="843" type="curve"/>
      <point x="141" y="843" type="line"/>
      <point x="191" y="769"/>
      <point x="213" y="685"/>
      <point x="213" y="608" type="curve" smooth="yes"/>
      <point x="213" y="502"/>
      <point x="171" y="403"/>
    </contour>
  </outline>
</glyph>
<glyph name="zeroinferior" format="1">
  <advance width="376"/>
  <unicode hex="2080"/>
  <outline>
    <contour>
      <point x="23" y="151" type="curve" smooth="yes"/>
      <point x="23" y="237"/>
      <point x="57" y="370"/>
      <point x="197" y="370" type="curve" smooth="yes"/>
      <point x="306" y="370"/>
      <point x="333" y="291"/>
      <point x="333" y="209" type="curve" smooth="yes"/>
      <point x="333" y="102"/>
      <point x="287" y="-6"/>
      <point x="158" y="-6" type="curve" smooth="yes"/>
      <point x="57" y="-6"/>
      <point x="23" y="62"/>
    </contour>
    <contour>
      <point x="97" y="157" type="curve" smooth="yes"/>
      <point x="97" y="94"/>
      <point x="111" y="50"/>
      <point x="164" y="50" type="curve" smooth="yes"/>
      <point x="232" y="50"/>
      <point x="259" y="121"/>
      <point x="259" y="210" type="curve" smooth="yes"/>
      <point x="259" y="272"/>
      <point x="246" y="314"/>
      <point x="192" y="314" type="curve" smooth="yes"/>
      <point x="127" y="314"/>
      <point x="97" y="252"/>
    </contour>
  </outline>
</glyph>
<glyph name="oneinferior" format="1">
  <advance width="261"/>
  <unicode hex="2081"/>
  <outline>
    <contour>
      <point x="9" y="54" type="line"/>
      <point x="81" y="54" type="line"/>
      <point x="108" y="310" type="line"/>
      <point x="36" y="310" type="line"/>
      <point x="41" y="364" type="line"/>
      <point x="184" y="364" type="line"/>
      <point x="151" y="54" type="line"/>
      <point x="220" y="54" type="line"/>
      <point x="214" y="0" type="line"/>
      <point x="3" y="0" type="line"/>
    </contour>
  </outline>
</glyph>
<glyph name="fourinferior" format="1">
  <advance width="353"/>
  <unicode hex="2084"/>
  <outline>
    <contour>
      <point x="170" y="0" type="line"/>
      <point x="238" y="0" type="line"/>
      <point x="247" y="93" type="line"/>
      <point x="303" y="93" type="line"/>
      <point x="314" y="143" type="line"/>
      <point x="253" y="143" type="line"/>
      <point x="276" y="364" type="line"/>
      <point x="150" y="364" type="line"/>
      <point x="6" y="145" type="line"/>
      <point x="7" y="93" type="line"/>
      <point x="180" y="93" type="line"/>
    </contour>
    <contour>
      <point x="175" y="310" type="line"/>
      <point x="203" y="310" type="line"/>
      <point x="185" y="143" type="line"/>
      <point x="66" y="143" type="line"/>
    </contour>
  </outline>
</glyph>
<glyph name="fiveinferior" format="1">
  <advance width="331"/>
  <unicode hex="2085"/>
  <outline>
    <contour>
      <point x="285" y="118" type="curve" smooth="yes"/>
      <point x="285" y="203"/>
      <point x="215" y="226"/>
      <point x="135" y="226" type="curve" smooth="yes"/>
      <point x="111" y="226" type="line"/>
      <point x="120" y="310" type="line"/>
      <point x="224" y="310" type="line"/>
      <point x="225" y="263" type="line"/>
      <point x="281" y="269" type="line"/>
      <point x="286" y="364" type="line"/>
      <point x="285" y="363" type="line"/>
      <point x="285" y="364" type="line"/>
      <point x="61" y="364" type="line"/>
      <point x="44" y="192" type="line"/>
      <point x="64" y="173" type="line"/>
      <point x="82" y="174"/>
      <point x="100" y="176"/>
      <point x="117" y="176" type="curve" smooth="yes"/>
      <point x="170" y="176"/>
      <point x="210" y="164"/>
      <point x="210" y="112" type="curve" smooth="yes"/>
      <point x="210" y="71"/>
      <point x="184" y="47"/>
      <point x="140" y="47" type="curve" smooth="yes"/>
      <point x="92" y="47"/>
      <point x="66" y="74"/>
      <point x="62" y="106" type="curve"/>
      <point x="9" y="91" type="line"/>
      <point x="13" y="27"/>
      <point x="64" y="-7"/>
      <point x="137" y="-7" type="curve" smooth="yes"/>
      <point x="220" y="-7"/>
      <point x="285" y="37"/>
    </contour>
  </outline>
</glyph>
